<?xml version="1.0" encoding="utf-8" standalone="no"?>
<!DOCTYPE svg PUBLIC "-//W3C//DTD SVG 1.1//EN"
  "http://www.w3.org/Graphics/SVG/1.1/DTD/svg11.dtd">
<svg xmlns:xlink="http://www.w3.org/1999/xlink" width="676.344675pt" height="410.205385pt" viewBox="0 0 676.344675 410.205385" xmlns="http://www.w3.org/2000/svg" version="1.1">
 <metadata>
  <rdf:RDF xmlns:dc="http://purl.org/dc/elements/1.1/" xmlns:cc="http://creativecommons.org/ns#" xmlns:rdf="http://www.w3.org/1999/02/22-rdf-syntax-ns#">
   <cc:Work>
    <dc:type rdf:resource="http://purl.org/dc/dcmitype/StillImage"/>
    <dc:date>2026-05-05T11:18:49.207378</dc:date>
    <dc:format>image/svg+xml</dc:format>
    <dc:creator>
     <cc:Agent>
      <dc:title>Matplotlib v3.10.9, https://matplotlib.org/</dc:title>
     </cc:Agent>
    </dc:creator>
   </cc:Work>
  </rdf:RDF>
 </metadata>
 <defs>
  <style type="text/css">*{stroke-linejoin: round; stroke-linecap: butt}</style>
 </defs>
 <g id="figure_1">
  <g id="patch_1">
   <path d="M 0 410.205385 
L 676.344675 410.205385 
L 676.344675 0 
L 0 0 
L 0 410.205385 
z
" style="fill: none"/>
  </g>
  <g id="axes_1">
   <g id="patch_2">
    <path d="M 190.213906 372.37101 
L 669.144675 372.37101 
L 669.144675 22.318125 
L 190.213906 22.318125 
L 190.213906 372.37101 
z
" style="fill: none"/>
   </g>
   <g id="PathCollection_1">
    <path d="M 211.983487 359.279836 
C 212.731445 359.279836 213.448869 358.982669 213.977755 358.453783 
C 214.506641 357.924897 214.803808 357.207473 214.803808 356.459515 
C 214.803808 355.711557 214.506641 354.994133 213.977755 354.465247 
C 213.448869 353.936361 212.731445 353.639194 211.983487 353.639194 
C 211.235529 353.639194 210.518105 353.936361 209.989218 354.465247 
C 209.460332 354.994133 209.163166 355.711557 209.163166 356.459515 
C 209.163166 357.207473 209.460332 357.924897 209.989218 358.453783 
C 210.518105 358.982669 211.235529 359.279836 211.983487 359.279836 
z
" clip-path="url(#pcf04c4a82c)" style="fill: #313695; fill-opacity: 0.86; stroke: #ffffff; stroke-opacity: 0.86; stroke-width: 0.3"/>
    <path d="M 229.03522 320.082204 
C 229.937289 320.082204 230.802532 319.723808 231.440391 319.085949 
C 232.07825 318.44809 232.436646 317.582847 232.436646 316.680778 
C 232.436646 315.778709 232.07825 314.913466 231.440391 314.275607 
C 230.802532 313.637748 229.937289 313.279352 229.03522 313.279352 
C 228.133151 313.279352 227.267908 313.637748 226.630049 314.275607 
C 225.99219 314.913466 225.633794 315.778709 225.633794 316.680778 
C 225.633794 317.582847 225.99219 318.44809 226.630049 319.085949 
C 227.267908 319.723808 228.133151 320.082204 229.03522 320.082204 
z
" clip-path="url(#pcf04c4a82c)" style="fill: #394fa1; fill-opacity: 0.86; stroke: #ffffff; stroke-opacity: 0.86; stroke-width: 0.3"/>
    <path d="M 235.96437 280.457168 
C 236.9072 280.457168 237.811542 280.082577 238.478224 279.415895 
C 239.144906 278.749213 239.519497 277.844872 239.519497 276.902041 
C 239.519497 275.95921 239.144906 275.054869 238.478224 274.388187 
C 237.811542 273.721505 236.9072 273.346914 235.96437 273.346914 
C 235.021539 273.346914 234.117197 273.721505 233.450515 274.388187 
C 232.783833 275.054869 232.409243 275.95921 232.409243 276.902041 
C 232.409243 277.844872 232.783833 278.749213 233.450515 279.415895 
C 234.117197 280.082577 235.021539 280.457168 235.96437 280.457168 
z
" clip-path="url(#pcf04c4a82c)" style="fill: #3c59a6; fill-opacity: 0.86; stroke: #ffffff; stroke-opacity: 0.86; stroke-width: 0.3"/>
    <path d="M 543.618612 242.911914 
C 545.153769 242.911914 546.626257 242.301989 547.711777 241.216469 
C 548.797297 240.130949 549.407221 238.658461 549.407221 237.123304 
C 549.407221 235.588147 548.797297 234.115659 547.711777 233.030139 
C 546.626257 231.944619 545.153769 231.334695 543.618612 231.334695 
C 542.083454 231.334695 540.610967 231.944619 539.525447 233.030139 
C 538.439927 234.115659 537.830002 235.588147 537.830002 237.123304 
C 537.830002 238.658461 538.439927 240.130949 539.525447 241.216469 
C 540.610967 242.301989 542.083454 242.911914 543.618612 242.911914 
z
" clip-path="url(#pcf04c4a82c)" style="fill: #f8864f; fill-opacity: 0.86; stroke: #ffffff; stroke-opacity: 0.86; stroke-width: 0.3"/>
    <path d="M 647.375095 200.826076 
C 648.298402 200.826076 649.184017 200.459243 649.836894 199.806366 
C 650.48977 199.153489 650.856604 198.267874 650.856604 197.344567 
C 650.856604 196.42126 650.48977 195.535645 649.836894 194.882769 
C 649.184017 194.229892 648.298402 193.863058 647.375095 193.863058 
C 646.451788 193.863058 645.566173 194.229892 644.913296 194.882769 
C 644.26042 195.535645 643.893586 196.42126 643.893586 197.344567 
C 643.893586 198.267874 644.26042 199.153489 644.913296 199.806366 
C 645.566173 200.459243 646.451788 200.826076 647.375095 200.826076 
z
" clip-path="url(#pcf04c4a82c)" style="fill: #a50026; fill-opacity: 0.86; stroke: #ffffff; stroke-opacity: 0.86; stroke-width: 0.3"/>
    <path d="M 647.375095 161.047339 
C 648.298402 161.047339 649.184017 160.680506 649.836894 160.027629 
C 650.48977 159.374752 650.856604 158.489137 650.856604 157.56583 
C 650.856604 156.642523 650.48977 155.756908 649.836894 155.104032 
C 649.184017 154.451155 648.298402 154.084321 647.375095 154.084321 
C 646.451788 154.084321 645.566173 154.451155 644.913296 155.104032 
C 644.26042 155.756908 643.893586 156.642523 643.893586 157.56583 
C 643.893586 158.489137 644.26042 159.374752 644.913296 160.027629 
C 645.566173 160.680506 646.451788 161.047339 647.375095 161.047339 
z
" clip-path="url(#pcf04c4a82c)" style="fill: #a50026; fill-opacity: 0.86; stroke: #ffffff; stroke-opacity: 0.86; stroke-width: 0.3"/>
    <path d="M 647.375095 121.268603 
C 648.298402 121.268603 649.184017 120.901769 649.836894 120.248892 
C 650.48977 119.596016 650.856604 118.710401 650.856604 117.787094 
C 650.856604 116.863787 650.48977 115.978172 649.836894 115.325295 
C 649.184017 114.672418 648.298402 114.305585 647.375095 114.305585 
C 646.451788 114.305585 645.566173 114.672418 644.913296 115.325295 
C 644.26042 115.978172 643.893586 116.863787 643.893586 117.787094 
C 643.893586 118.710401 644.26042 119.596016 644.913296 120.248892 
C 645.566173 120.901769 646.451788 121.268603 647.375095 121.268603 
z
" clip-path="url(#pcf04c4a82c)" style="fill: #a50026; fill-opacity: 0.86; stroke: #ffffff; stroke-opacity: 0.86; stroke-width: 0.3"/>
    <path d="M 647.375095 81.489866 
C 648.298402 81.489866 649.184017 81.123032 649.836894 80.470155 
C 650.48977 79.817279 650.856604 78.931664 650.856604 78.008357 
C 650.856604 77.08505 650.48977 76.199435 649.836894 75.546558 
C 649.184017 74.893681 648.298402 74.526848 647.375095 74.526848 
C 646.451788 74.526848 645.566173 74.893681 644.913296 75.546558 
C 644.26042 76.199435 643.893586 77.08505 643.893586 78.008357 
C 643.893586 78.931664 644.26042 79.817279 644.913296 80.470155 
C 645.566173 81.123032 646.451788 81.489866 647.375095 81.489866 
z
" clip-path="url(#pcf04c4a82c)" style="fill: #a50026; fill-opacity: 0.86; stroke: #ffffff; stroke-opacity: 0.86; stroke-width: 0.3"/>
    <path d="M 647.375095 41.711129 
C 648.298402 41.711129 649.184017 41.344295 649.836894 40.691418 
C 650.48977 40.038542 650.856604 39.152927 650.856604 38.22962 
C 650.856604 37.306313 650.48977 36.420698 649.836894 35.767821 
C 649.184017 35.114945 648.298402 34.748111 647.375095 34.748111 
C 646.451788 34.748111 645.566173 35.114945 644.913296 35.767821 
C 644.26042 36.420698 643.893586 37.306313 643.893586 38.22962 
C 643.893586 39.152927 644.26042 40.038542 644.913296 40.691418 
C 645.566173 41.344295 646.451788 41.711129 647.375095 41.711129 
z
" clip-path="url(#pcf04c4a82c)" style="fill: #a50026; fill-opacity: 0.86; stroke: #ffffff; stroke-opacity: 0.86; stroke-width: 0.3"/>
   </g>
   <g id="matplotlib.axis_1">
    <g id="xtick_1">
     <g id="line2d_1">
      <path d="M 204.512056 372.37101 
L 204.512056 22.318125 
" clip-path="url(#pcf04c4a82c)" style="fill: none; stroke-dasharray: 0.8,1.32; stroke-dashoffset: 0; stroke: #d8d2c2; stroke-opacity: 0.25; stroke-width: 0.8"/>
     </g>
     <g id="line2d_2">
      <defs>
       <path id="mf3e8bbd53d" d="M 0 0 
L 0 3.5 
" style="stroke: #1f2a44; stroke-width: 0.8"/>
      </defs>
      <g>
       <use xlink:href="#mf3e8bbd53d" x="204.512056" y="372.37101" style="fill: #1f2a44; stroke: #1f2a44; stroke-width: 0.8"/>
      </g>
     </g>
     <g id="text_1">
      <!-- 0 -->
      <g style="fill: #1f2a44" transform="translate(201.330806 386.969447) scale(0.1 -0.1)">
       <defs>
        <path id="DejaVuSans-30" d="M 2034 4250 
Q 1547 4250 1301 3770 
Q 1056 3291 1056 2328 
Q 1056 1369 1301 889 
Q 1547 409 2034 409 
Q 2525 409 2770 889 
Q 3016 1369 3016 2328 
Q 3016 3291 2770 3770 
Q 2525 4250 2034 4250 
z
M 2034 4750 
Q 2819 4750 3233 4129 
Q 3647 3509 3647 2328 
Q 3647 1150 3233 529 
Q 2819 -91 2034 -91 
Q 1250 -91 836 529 
Q 422 1150 422 2328 
Q 422 3509 836 4129 
Q 1250 4750 2034 4750 
z
" transform="scale(0.015625)"/>
       </defs>
       <use xlink:href="#DejaVuSans-30"/>
      </g>
     </g>
    </g>
    <g id="xtick_2">
     <g id="line2d_3">
      <path d="M 264.765531 372.37101 
L 264.765531 22.318125 
" clip-path="url(#pcf04c4a82c)" style="fill: none; stroke-dasharray: 0.8,1.32; stroke-dashoffset: 0; stroke: #d8d2c2; stroke-opacity: 0.25; stroke-width: 0.8"/>
     </g>
     <g id="line2d_4">
      <g>
       <use xlink:href="#mf3e8bbd53d" x="264.765531" y="372.37101" style="fill: #1f2a44; stroke: #1f2a44; stroke-width: 0.8"/>
      </g>
     </g>
     <g id="text_2">
      <!-- 1000 -->
      <g style="fill: #1f2a44" transform="translate(252.040531 386.969447) scale(0.1 -0.1)">
       <defs>
        <path id="DejaVuSans-31" d="M 794 531 
L 1825 531 
L 1825 4091 
L 703 3866 
L 703 4441 
L 1819 4666 
L 2450 4666 
L 2450 531 
L 3481 531 
L 3481 0 
L 794 0 
L 794 531 
z
" transform="scale(0.015625)"/>
       </defs>
       <use xlink:href="#DejaVuSans-31"/>
       <use xlink:href="#DejaVuSans-30" transform="translate(63.623047 0)"/>
       <use xlink:href="#DejaVuSans-30" transform="translate(127.246094 0)"/>
       <use xlink:href="#DejaVuSans-30" transform="translate(190.869141 0)"/>
      </g>
     </g>
    </g>
    <g id="xtick_3">
     <g id="line2d_5">
      <path d="M 325.019005 372.37101 
L 325.019005 22.318125 
" clip-path="url(#pcf04c4a82c)" style="fill: none; stroke-dasharray: 0.8,1.32; stroke-dashoffset: 0; stroke: #d8d2c2; stroke-opacity: 0.25; stroke-width: 0.8"/>
     </g>
     <g id="line2d_6">
      <g>
       <use xlink:href="#mf3e8bbd53d" x="325.019005" y="372.37101" style="fill: #1f2a44; stroke: #1f2a44; stroke-width: 0.8"/>
      </g>
     </g>
     <g id="text_3">
      <!-- 2000 -->
      <g style="fill: #1f2a44" transform="translate(312.294005 386.969447) scale(0.1 -0.1)">
       <defs>
        <path id="DejaVuSans-32" d="M 1228 531 
L 3431 531 
L 3431 0 
L 469 0 
L 469 531 
Q 828 903 1448 1529 
Q 2069 2156 2228 2338 
Q 2531 2678 2651 2914 
Q 2772 3150 2772 3378 
Q 2772 3750 2511 3984 
Q 2250 4219 1831 4219 
Q 1534 4219 1204 4116 
Q 875 4013 500 3803 
L 500 4441 
Q 881 4594 1212 4672 
Q 1544 4750 1819 4750 
Q 2544 4750 2975 4387 
Q 3406 4025 3406 3419 
Q 3406 3131 3298 2873 
Q 3191 2616 2906 2266 
Q 2828 2175 2409 1742 
Q 1991 1309 1228 531 
z
" transform="scale(0.015625)"/>
       </defs>
       <use xlink:href="#DejaVuSans-32"/>
       <use xlink:href="#DejaVuSans-30" transform="translate(63.623047 0)"/>
       <use xlink:href="#DejaVuSans-30" transform="translate(127.246094 0)"/>
       <use xlink:href="#DejaVuSans-30" transform="translate(190.869141 0)"/>
      </g>
     </g>
    </g>
    <g id="xtick_4">
     <g id="line2d_7">
      <path d="M 385.27248 372.37101 
L 385.27248 22.318125 
" clip-path="url(#pcf04c4a82c)" style="fill: none; stroke-dasharray: 0.8,1.32; stroke-dashoffset: 0; stroke: #d8d2c2; stroke-opacity: 0.25; stroke-width: 0.8"/>
     </g>
     <g id="line2d_8">
      <g>
       <use xlink:href="#mf3e8bbd53d" x="385.27248" y="372.37101" style="fill: #1f2a44; stroke: #1f2a44; stroke-width: 0.8"/>
      </g>
     </g>
     <g id="text_4">
      <!-- 3000 -->
      <g style="fill: #1f2a44" transform="translate(372.54748 386.969447) scale(0.1 -0.1)">
       <defs>
        <path id="DejaVuSans-33" d="M 2597 2516 
Q 3050 2419 3304 2112 
Q 3559 1806 3559 1356 
Q 3559 666 3084 287 
Q 2609 -91 1734 -91 
Q 1441 -91 1130 -33 
Q 819 25 488 141 
L 488 750 
Q 750 597 1062 519 
Q 1375 441 1716 441 
Q 2309 441 2620 675 
Q 2931 909 2931 1356 
Q 2931 1769 2642 2001 
Q 2353 2234 1838 2234 
L 1294 2234 
L 1294 2753 
L 1863 2753 
Q 2328 2753 2575 2939 
Q 2822 3125 2822 3475 
Q 2822 3834 2567 4026 
Q 2313 4219 1838 4219 
Q 1578 4219 1281 4162 
Q 984 4106 628 3988 
L 628 4550 
Q 988 4650 1302 4700 
Q 1616 4750 1894 4750 
Q 2613 4750 3031 4423 
Q 3450 4097 3450 3541 
Q 3450 3153 3228 2886 
Q 3006 2619 2597 2516 
z
" transform="scale(0.015625)"/>
       </defs>
       <use xlink:href="#DejaVuSans-33"/>
       <use xlink:href="#DejaVuSans-30" transform="translate(63.623047 0)"/>
       <use xlink:href="#DejaVuSans-30" transform="translate(127.246094 0)"/>
       <use xlink:href="#DejaVuSans-30" transform="translate(190.869141 0)"/>
      </g>
     </g>
    </g>
    <g id="xtick_5">
     <g id="line2d_9">
      <path d="M 445.525955 372.37101 
L 445.525955 22.318125 
" clip-path="url(#pcf04c4a82c)" style="fill: none; stroke-dasharray: 0.8,1.32; stroke-dashoffset: 0; stroke: #d8d2c2; stroke-opacity: 0.25; stroke-width: 0.8"/>
     </g>
     <g id="line2d_10">
      <g>
       <use xlink:href="#mf3e8bbd53d" x="445.525955" y="372.37101" style="fill: #1f2a44; stroke: #1f2a44; stroke-width: 0.8"/>
      </g>
     </g>
     <g id="text_5">
      <!-- 4000 -->
      <g style="fill: #1f2a44" transform="translate(432.800955 386.969447) scale(0.1 -0.1)">
       <defs>
        <path id="DejaVuSans-34" d="M 2419 4116 
L 825 1625 
L 2419 1625 
L 2419 4116 
z
M 2253 4666 
L 3047 4666 
L 3047 1625 
L 3713 1625 
L 3713 1100 
L 3047 1100 
L 3047 0 
L 2419 0 
L 2419 1100 
L 313 1100 
L 313 1709 
L 2253 4666 
z
" transform="scale(0.015625)"/>
       </defs>
       <use xlink:href="#DejaVuSans-34"/>
       <use xlink:href="#DejaVuSans-30" transform="translate(63.623047 0)"/>
       <use xlink:href="#DejaVuSans-30" transform="translate(127.246094 0)"/>
       <use xlink:href="#DejaVuSans-30" transform="translate(190.869141 0)"/>
      </g>
     </g>
    </g>
    <g id="xtick_6">
     <g id="line2d_11">
      <path d="M 505.779429 372.37101 
L 505.779429 22.318125 
" clip-path="url(#pcf04c4a82c)" style="fill: none; stroke-dasharray: 0.8,1.32; stroke-dashoffset: 0; stroke: #d8d2c2; stroke-opacity: 0.25; stroke-width: 0.8"/>
     </g>
     <g id="line2d_12">
      <g>
       <use xlink:href="#mf3e8bbd53d" x="505.779429" y="372.37101" style="fill: #1f2a44; stroke: #1f2a44; stroke-width: 0.8"/>
      </g>
     </g>
     <g id="text_6">
      <!-- 5000 -->
      <g style="fill: #1f2a44" transform="translate(493.054429 386.969447) scale(0.1 -0.1)">
       <defs>
        <path id="DejaVuSans-35" d="M 691 4666 
L 3169 4666 
L 3169 4134 
L 1269 4134 
L 1269 2991 
Q 1406 3038 1543 3061 
Q 1681 3084 1819 3084 
Q 2600 3084 3056 2656 
Q 3513 2228 3513 1497 
Q 3513 744 3044 326 
Q 2575 -91 1722 -91 
Q 1428 -91 1123 -41 
Q 819 9 494 109 
L 494 744 
Q 775 591 1075 516 
Q 1375 441 1709 441 
Q 2250 441 2565 725 
Q 2881 1009 2881 1497 
Q 2881 1984 2565 2268 
Q 2250 2553 1709 2553 
Q 1456 2553 1204 2497 
Q 953 2441 691 2322 
L 691 4666 
z
" transform="scale(0.015625)"/>
       </defs>
       <use xlink:href="#DejaVuSans-35"/>
       <use xlink:href="#DejaVuSans-30" transform="translate(63.623047 0)"/>
       <use xlink:href="#DejaVuSans-30" transform="translate(127.246094 0)"/>
       <use xlink:href="#DejaVuSans-30" transform="translate(190.869141 0)"/>
      </g>
     </g>
    </g>
    <g id="xtick_7">
     <g id="line2d_13">
      <path d="M 566.032904 372.37101 
L 566.032904 22.318125 
" clip-path="url(#pcf04c4a82c)" style="fill: none; stroke-dasharray: 0.8,1.32; stroke-dashoffset: 0; stroke: #d8d2c2; stroke-opacity: 0.25; stroke-width: 0.8"/>
     </g>
     <g id="line2d_14">
      <g>
       <use xlink:href="#mf3e8bbd53d" x="566.032904" y="372.37101" style="fill: #1f2a44; stroke: #1f2a44; stroke-width: 0.8"/>
      </g>
     </g>
     <g id="text_7">
      <!-- 6000 -->
      <g style="fill: #1f2a44" transform="translate(553.307904 386.969447) scale(0.1 -0.1)">
       <defs>
        <path id="DejaVuSans-36" d="M 2113 2584 
Q 1688 2584 1439 2293 
Q 1191 2003 1191 1497 
Q 1191 994 1439 701 
Q 1688 409 2113 409 
Q 2538 409 2786 701 
Q 3034 994 3034 1497 
Q 3034 2003 2786 2293 
Q 2538 2584 2113 2584 
z
M 3366 4563 
L 3366 3988 
Q 3128 4100 2886 4159 
Q 2644 4219 2406 4219 
Q 1781 4219 1451 3797 
Q 1122 3375 1075 2522 
Q 1259 2794 1537 2939 
Q 1816 3084 2150 3084 
Q 2853 3084 3261 2657 
Q 3669 2231 3669 1497 
Q 3669 778 3244 343 
Q 2819 -91 2113 -91 
Q 1303 -91 875 529 
Q 447 1150 447 2328 
Q 447 3434 972 4092 
Q 1497 4750 2381 4750 
Q 2619 4750 2861 4703 
Q 3103 4656 3366 4563 
z
" transform="scale(0.015625)"/>
       </defs>
       <use xlink:href="#DejaVuSans-36"/>
       <use xlink:href="#DejaVuSans-30" transform="translate(63.623047 0)"/>
       <use xlink:href="#DejaVuSans-30" transform="translate(127.246094 0)"/>
       <use xlink:href="#DejaVuSans-30" transform="translate(190.869141 0)"/>
      </g>
     </g>
    </g>
    <g id="xtick_8">
     <g id="line2d_15">
      <path d="M 626.286379 372.37101 
L 626.286379 22.318125 
" clip-path="url(#pcf04c4a82c)" style="fill: none; stroke-dasharray: 0.8,1.32; stroke-dashoffset: 0; stroke: #d8d2c2; stroke-opacity: 0.25; stroke-width: 0.8"/>
     </g>
     <g id="line2d_16">
      <g>
       <use xlink:href="#mf3e8bbd53d" x="626.286379" y="372.37101" style="fill: #1f2a44; stroke: #1f2a44; stroke-width: 0.8"/>
      </g>
     </g>
     <g id="text_8">
      <!-- 7000 -->
      <g style="fill: #1f2a44" transform="translate(613.561379 386.969447) scale(0.1 -0.1)">
       <defs>
        <path id="DejaVuSans-37" d="M 525 4666 
L 3525 4666 
L 3525 4397 
L 1831 0 
L 1172 0 
L 2766 4134 
L 525 4134 
L 525 4666 
z
" transform="scale(0.015625)"/>
       </defs>
       <use xlink:href="#DejaVuSans-37"/>
       <use xlink:href="#DejaVuSans-30" transform="translate(63.623047 0)"/>
       <use xlink:href="#DejaVuSans-30" transform="translate(127.246094 0)"/>
       <use xlink:href="#DejaVuSans-30" transform="translate(190.869141 0)"/>
      </g>
     </g>
    </g>
    <g id="text_9">
     <!-- Impact proxy (median_of_5_indicators) -->
     <g style="fill: #1f2a44" transform="translate(332.50976 400.647572) scale(0.1 -0.1)">
      <defs>
       <path id="DejaVuSans-49" d="M 628 4666 
L 1259 4666 
L 1259 0 
L 628 0 
L 628 4666 
z
" transform="scale(0.015625)"/>
       <path id="DejaVuSans-6d" d="M 3328 2828 
Q 3544 3216 3844 3400 
Q 4144 3584 4550 3584 
Q 5097 3584 5394 3201 
Q 5691 2819 5691 2113 
L 5691 0 
L 5113 0 
L 5113 2094 
Q 5113 2597 4934 2840 
Q 4756 3084 4391 3084 
Q 3944 3084 3684 2787 
Q 3425 2491 3425 1978 
L 3425 0 
L 2847 0 
L 2847 2094 
Q 2847 2600 2669 2842 
Q 2491 3084 2119 3084 
Q 1678 3084 1418 2786 
Q 1159 2488 1159 1978 
L 1159 0 
L 581 0 
L 581 3500 
L 1159 3500 
L 1159 2956 
Q 1356 3278 1631 3431 
Q 1906 3584 2284 3584 
Q 2666 3584 2933 3390 
Q 3200 3197 3328 2828 
z
" transform="scale(0.015625)"/>
       <path id="DejaVuSans-70" d="M 1159 525 
L 1159 -1331 
L 581 -1331 
L 581 3500 
L 1159 3500 
L 1159 2969 
Q 1341 3281 1617 3432 
Q 1894 3584 2278 3584 
Q 2916 3584 3314 3078 
Q 3713 2572 3713 1747 
Q 3713 922 3314 415 
Q 2916 -91 2278 -91 
Q 1894 -91 1617 61 
Q 1341 213 1159 525 
z
M 3116 1747 
Q 3116 2381 2855 2742 
Q 2594 3103 2138 3103 
Q 1681 3103 1420 2742 
Q 1159 2381 1159 1747 
Q 1159 1113 1420 752 
Q 1681 391 2138 391 
Q 2594 391 2855 752 
Q 3116 1113 3116 1747 
z
" transform="scale(0.015625)"/>
       <path id="DejaVuSans-61" d="M 2194 1759 
Q 1497 1759 1228 1600 
Q 959 1441 959 1056 
Q 959 750 1161 570 
Q 1363 391 1709 391 
Q 2188 391 2477 730 
Q 2766 1069 2766 1631 
L 2766 1759 
L 2194 1759 
z
M 3341 1997 
L 3341 0 
L 2766 0 
L 2766 531 
Q 2569 213 2275 61 
Q 1981 -91 1556 -91 
Q 1019 -91 701 211 
Q 384 513 384 1019 
Q 384 1609 779 1909 
Q 1175 2209 1959 2209 
L 2766 2209 
L 2766 2266 
Q 2766 2663 2505 2880 
Q 2244 3097 1772 3097 
Q 1472 3097 1187 3025 
Q 903 2953 641 2809 
L 641 3341 
Q 956 3463 1253 3523 
Q 1550 3584 1831 3584 
Q 2591 3584 2966 3190 
Q 3341 2797 3341 1997 
z
" transform="scale(0.015625)"/>
       <path id="DejaVuSans-63" d="M 3122 3366 
L 3122 2828 
Q 2878 2963 2633 3030 
Q 2388 3097 2138 3097 
Q 1578 3097 1268 2742 
Q 959 2388 959 1747 
Q 959 1106 1268 751 
Q 1578 397 2138 397 
Q 2388 397 2633 464 
Q 2878 531 3122 666 
L 3122 134 
Q 2881 22 2623 -34 
Q 2366 -91 2075 -91 
Q 1284 -91 818 406 
Q 353 903 353 1747 
Q 353 2603 823 3093 
Q 1294 3584 2113 3584 
Q 2378 3584 2631 3529 
Q 2884 3475 3122 3366 
z
" transform="scale(0.015625)"/>
       <path id="DejaVuSans-74" d="M 1172 4494 
L 1172 3500 
L 2356 3500 
L 2356 3053 
L 1172 3053 
L 1172 1153 
Q 1172 725 1289 603 
Q 1406 481 1766 481 
L 2356 481 
L 2356 0 
L 1766 0 
Q 1100 0 847 248 
Q 594 497 594 1153 
L 594 3053 
L 172 3053 
L 172 3500 
L 594 3500 
L 594 4494 
L 1172 4494 
z
" transform="scale(0.015625)"/>
       <path id="DejaVuSans-20" transform="scale(0.015625)"/>
       <path id="DejaVuSans-72" d="M 2631 2963 
Q 2534 3019 2420 3045 
Q 2306 3072 2169 3072 
Q 1681 3072 1420 2755 
Q 1159 2438 1159 1844 
L 1159 0 
L 581 0 
L 581 3500 
L 1159 3500 
L 1159 2956 
Q 1341 3275 1631 3429 
Q 1922 3584 2338 3584 
Q 2397 3584 2469 3576 
Q 2541 3569 2628 3553 
L 2631 2963 
z
" transform="scale(0.015625)"/>
       <path id="DejaVuSans-6f" d="M 1959 3097 
Q 1497 3097 1228 2736 
Q 959 2375 959 1747 
Q 959 1119 1226 758 
Q 1494 397 1959 397 
Q 2419 397 2687 759 
Q 2956 1122 2956 1747 
Q 2956 2369 2687 2733 
Q 2419 3097 1959 3097 
z
M 1959 3584 
Q 2709 3584 3137 3096 
Q 3566 2609 3566 1747 
Q 3566 888 3137 398 
Q 2709 -91 1959 -91 
Q 1206 -91 779 398 
Q 353 888 353 1747 
Q 353 2609 779 3096 
Q 1206 3584 1959 3584 
z
" transform="scale(0.015625)"/>
       <path id="DejaVuSans-78" d="M 3513 3500 
L 2247 1797 
L 3578 0 
L 2900 0 
L 1881 1375 
L 863 0 
L 184 0 
L 1544 1831 
L 300 3500 
L 978 3500 
L 1906 2253 
L 2834 3500 
L 3513 3500 
z
" transform="scale(0.015625)"/>
       <path id="DejaVuSans-79" d="M 2059 -325 
Q 1816 -950 1584 -1140 
Q 1353 -1331 966 -1331 
L 506 -1331 
L 506 -850 
L 844 -850 
Q 1081 -850 1212 -737 
Q 1344 -625 1503 -206 
L 1606 56 
L 191 3500 
L 800 3500 
L 1894 763 
L 2988 3500 
L 3597 3500 
L 2059 -325 
z
" transform="scale(0.015625)"/>
       <path id="DejaVuSans-28" d="M 1984 4856 
Q 1566 4138 1362 3434 
Q 1159 2731 1159 2009 
Q 1159 1288 1364 580 
Q 1569 -128 1984 -844 
L 1484 -844 
Q 1016 -109 783 600 
Q 550 1309 550 2009 
Q 550 2706 781 3412 
Q 1013 4119 1484 4856 
L 1984 4856 
z
" transform="scale(0.015625)"/>
       <path id="DejaVuSans-65" d="M 3597 1894 
L 3597 1613 
L 953 1613 
Q 991 1019 1311 708 
Q 1631 397 2203 397 
Q 2534 397 2845 478 
Q 3156 559 3463 722 
L 3463 178 
Q 3153 47 2828 -22 
Q 2503 -91 2169 -91 
Q 1331 -91 842 396 
Q 353 884 353 1716 
Q 353 2575 817 3079 
Q 1281 3584 2069 3584 
Q 2775 3584 3186 3129 
Q 3597 2675 3597 1894 
z
M 3022 2063 
Q 3016 2534 2758 2815 
Q 2500 3097 2075 3097 
Q 1594 3097 1305 2825 
Q 1016 2553 972 2059 
L 3022 2063 
z
" transform="scale(0.015625)"/>
       <path id="DejaVuSans-64" d="M 2906 2969 
L 2906 4863 
L 3481 4863 
L 3481 0 
L 2906 0 
L 2906 525 
Q 2725 213 2448 61 
Q 2172 -91 1784 -91 
Q 1150 -91 751 415 
Q 353 922 353 1747 
Q 353 2572 751 3078 
Q 1150 3584 1784 3584 
Q 2172 3584 2448 3432 
Q 2725 3281 2906 2969 
z
M 947 1747 
Q 947 1113 1208 752 
Q 1469 391 1925 391 
Q 2381 391 2643 752 
Q 2906 1113 2906 1747 
Q 2906 2381 2643 2742 
Q 2381 3103 1925 3103 
Q 1469 3103 1208 2742 
Q 947 2381 947 1747 
z
" transform="scale(0.015625)"/>
       <path id="DejaVuSans-69" d="M 603 3500 
L 1178 3500 
L 1178 0 
L 603 0 
L 603 3500 
z
M 603 4863 
L 1178 4863 
L 1178 4134 
L 603 4134 
L 603 4863 
z
" transform="scale(0.015625)"/>
       <path id="DejaVuSans-6e" d="M 3513 2113 
L 3513 0 
L 2938 0 
L 2938 2094 
Q 2938 2591 2744 2837 
Q 2550 3084 2163 3084 
Q 1697 3084 1428 2787 
Q 1159 2491 1159 1978 
L 1159 0 
L 581 0 
L 581 3500 
L 1159 3500 
L 1159 2956 
Q 1366 3272 1645 3428 
Q 1925 3584 2291 3584 
Q 2894 3584 3203 3211 
Q 3513 2838 3513 2113 
z
" transform="scale(0.015625)"/>
       <path id="DejaVuSans-5f" d="M 3263 -1063 
L 3263 -1509 
L -63 -1509 
L -63 -1063 
L 3263 -1063 
z
" transform="scale(0.015625)"/>
       <path id="DejaVuSans-66" d="M 2375 4863 
L 2375 4384 
L 1825 4384 
Q 1516 4384 1395 4259 
Q 1275 4134 1275 3809 
L 1275 3500 
L 2222 3500 
L 2222 3053 
L 1275 3053 
L 1275 0 
L 697 0 
L 697 3053 
L 147 3053 
L 147 3500 
L 697 3500 
L 697 3744 
Q 697 4328 969 4595 
Q 1241 4863 1831 4863 
L 2375 4863 
z
" transform="scale(0.015625)"/>
       <path id="DejaVuSans-73" d="M 2834 3397 
L 2834 2853 
Q 2591 2978 2328 3040 
Q 2066 3103 1784 3103 
Q 1356 3103 1142 2972 
Q 928 2841 928 2578 
Q 928 2378 1081 2264 
Q 1234 2150 1697 2047 
L 1894 2003 
Q 2506 1872 2764 1633 
Q 3022 1394 3022 966 
Q 3022 478 2636 193 
Q 2250 -91 1575 -91 
Q 1294 -91 989 -36 
Q 684 19 347 128 
L 347 722 
Q 666 556 975 473 
Q 1284 391 1588 391 
Q 1994 391 2212 530 
Q 2431 669 2431 922 
Q 2431 1156 2273 1281 
Q 2116 1406 1581 1522 
L 1381 1569 
Q 847 1681 609 1914 
Q 372 2147 372 2553 
Q 372 3047 722 3315 
Q 1072 3584 1716 3584 
Q 2034 3584 2315 3537 
Q 2597 3491 2834 3397 
z
" transform="scale(0.015625)"/>
       <path id="DejaVuSans-29" d="M 513 4856 
L 1013 4856 
Q 1481 4119 1714 3412 
Q 1947 2706 1947 2009 
Q 1947 1309 1714 600 
Q 1481 -109 1013 -844 
L 513 -844 
Q 928 -128 1133 580 
Q 1338 1288 1338 2009 
Q 1338 2731 1133 3434 
Q 928 4138 513 4856 
z
" transform="scale(0.015625)"/>
      </defs>
      <use xlink:href="#DejaVuSans-49"/>
      <use xlink:href="#DejaVuSans-6d" transform="translate(29.492188 0)"/>
      <use xlink:href="#DejaVuSans-70" transform="translate(126.904297 0)"/>
      <use xlink:href="#DejaVuSans-61" transform="translate(190.380859 0)"/>
      <use xlink:href="#DejaVuSans-63" transform="translate(251.660156 0)"/>
      <use xlink:href="#DejaVuSans-74" transform="translate(306.640625 0)"/>
      <use xlink:href="#DejaVuSans-20" transform="translate(345.849609 0)"/>
      <use xlink:href="#DejaVuSans-70" transform="translate(377.636719 0)"/>
      <use xlink:href="#DejaVuSans-72" transform="translate(441.113281 0)"/>
      <use xlink:href="#DejaVuSans-6f" transform="translate(479.976562 0)"/>
      <use xlink:href="#DejaVuSans-78" transform="translate(538.033203 0)"/>
      <use xlink:href="#DejaVuSans-79" transform="translate(597.212891 0)"/>
      <use xlink:href="#DejaVuSans-20" transform="translate(656.392578 0)"/>
      <use xlink:href="#DejaVuSans-28" transform="translate(688.179688 0)"/>
      <use xlink:href="#DejaVuSans-6d" transform="translate(727.193359 0)"/>
      <use xlink:href="#DejaVuSans-65" transform="translate(824.605469 0)"/>
      <use xlink:href="#DejaVuSans-64" transform="translate(886.128906 0)"/>
      <use xlink:href="#DejaVuSans-69" transform="translate(949.605469 0)"/>
      <use xlink:href="#DejaVuSans-61" transform="translate(977.388672 0)"/>
      <use xlink:href="#DejaVuSans-6e" transform="translate(1038.667969 0)"/>
      <use xlink:href="#DejaVuSans-5f" transform="translate(1102.046875 0)"/>
      <use xlink:href="#DejaVuSans-6f" transform="translate(1152.046875 0)"/>
      <use xlink:href="#DejaVuSans-66" transform="translate(1213.228516 0)"/>
      <use xlink:href="#DejaVuSans-5f" transform="translate(1248.433594 0)"/>
      <use xlink:href="#DejaVuSans-35" transform="translate(1298.433594 0)"/>
      <use xlink:href="#DejaVuSans-5f" transform="translate(1362.056641 0)"/>
      <use xlink:href="#DejaVuSans-69" transform="translate(1412.056641 0)"/>
      <use xlink:href="#DejaVuSans-6e" transform="translate(1439.839844 0)"/>
      <use xlink:href="#DejaVuSans-64" transform="translate(1503.21875 0)"/>
      <use xlink:href="#DejaVuSans-69" transform="translate(1566.695312 0)"/>
      <use xlink:href="#DejaVuSans-63" transform="translate(1594.478516 0)"/>
      <use xlink:href="#DejaVuSans-61" transform="translate(1649.458984 0)"/>
      <use xlink:href="#DejaVuSans-74" transform="translate(1710.738281 0)"/>
      <use xlink:href="#DejaVuSans-6f" transform="translate(1749.947266 0)"/>
      <use xlink:href="#DejaVuSans-72" transform="translate(1811.128906 0)"/>
      <use xlink:href="#DejaVuSans-73" transform="translate(1852.242188 0)"/>
      <use xlink:href="#DejaVuSans-29" transform="translate(1904.341797 0)"/>
     </g>
    </g>
   </g>
   <g id="matplotlib.axis_2">
    <g id="ytick_1">
     <g id="line2d_17">
      <path d="M 190.213906 356.459515 
L 669.144675 356.459515 
" clip-path="url(#pcf04c4a82c)" style="fill: none; stroke-dasharray: 0.8,1.32; stroke-dashoffset: 0; stroke: #d8d2c2; stroke-opacity: 0.45; stroke-width: 0.8"/>
     </g>
     <g id="line2d_18">
      <defs>
       <path id="ma14c5f76b3" d="M 0 0 
L -3.5 0 
" style="stroke: #1f2a44; stroke-width: 0.8"/>
      </defs>
      <g>
       <use xlink:href="#ma14c5f76b3" x="190.213906" y="356.459515" style="fill: #1f2a44; stroke: #1f2a44; stroke-width: 0.8"/>
      </g>
     </g>
     <g id="text_10">
      <!-- CAÑA DE AZÚCAR / AZÚCAR (TALLO FRESCO) -->
      <g style="fill: #1f2a44" transform="translate(24.302969 359.431234) scale(0.07 -0.07)">
       <defs>
        <path id="DejaVuSans-43" d="M 4122 4306 
L 4122 3641 
Q 3803 3938 3442 4084 
Q 3081 4231 2675 4231 
Q 1875 4231 1450 3742 
Q 1025 3253 1025 2328 
Q 1025 1406 1450 917 
Q 1875 428 2675 428 
Q 3081 428 3442 575 
Q 3803 722 4122 1019 
L 4122 359 
Q 3791 134 3420 21 
Q 3050 -91 2638 -91 
Q 1578 -91 968 557 
Q 359 1206 359 2328 
Q 359 3453 968 4101 
Q 1578 4750 2638 4750 
Q 3056 4750 3426 4639 
Q 3797 4528 4122 4306 
z
" transform="scale(0.015625)"/>
        <path id="DejaVuSans-41" d="M 2188 4044 
L 1331 1722 
L 3047 1722 
L 2188 4044 
z
M 1831 4666 
L 2547 4666 
L 4325 0 
L 3669 0 
L 3244 1197 
L 1141 1197 
L 716 0 
L 50 0 
L 1831 4666 
z
" transform="scale(0.015625)"/>
        <path id="DejaVuSans-d1" d="M 628 4666 
L 1478 4666 
L 3547 763 
L 3547 4666 
L 4159 4666 
L 4159 0 
L 3309 0 
L 1241 3903 
L 1241 0 
L 628 0 
L 628 4666 
z
M 2380 5330 
L 2201 5433 
Q 2123 5477 2074 5494 
Q 2026 5511 1989 5511 
Q 1876 5511 1813 5433 
Q 1751 5355 1751 5215 
L 1751 5196 
L 1361 5196 
Q 1361 5511 1522 5695 
Q 1683 5880 1951 5880 
Q 2064 5880 2159 5855 
Q 2255 5830 2405 5746 
L 2583 5652 
Q 2655 5611 2708 5592 
Q 2761 5574 2808 5574 
Q 2908 5574 2970 5653 
Q 3033 5733 3033 5861 
L 3033 5880 
L 3423 5880 
Q 3417 5568 3256 5382 
Q 3095 5196 2833 5196 
Q 2726 5196 2634 5221 
Q 2542 5246 2380 5330 
z
" transform="scale(0.015625)"/>
        <path id="DejaVuSans-44" d="M 1259 4147 
L 1259 519 
L 2022 519 
Q 2988 519 3436 956 
Q 3884 1394 3884 2338 
Q 3884 3275 3436 3711 
Q 2988 4147 2022 4147 
L 1259 4147 
z
M 628 4666 
L 1925 4666 
Q 3281 4666 3915 4102 
Q 4550 3538 4550 2338 
Q 4550 1131 3912 565 
Q 3275 0 1925 0 
L 628 0 
L 628 4666 
z
" transform="scale(0.015625)"/>
        <path id="DejaVuSans-45" d="M 628 4666 
L 3578 4666 
L 3578 4134 
L 1259 4134 
L 1259 2753 
L 3481 2753 
L 3481 2222 
L 1259 2222 
L 1259 531 
L 3634 531 
L 3634 0 
L 628 0 
L 628 4666 
z
" transform="scale(0.015625)"/>
        <path id="DejaVuSans-5a" d="M 359 4666 
L 4025 4666 
L 4025 4184 
L 1075 531 
L 4097 531 
L 4097 0 
L 288 0 
L 288 481 
L 3238 4134 
L 359 4134 
L 359 4666 
z
" transform="scale(0.015625)"/>
        <path id="DejaVuSans-da" d="M 556 4666 
L 1191 4666 
L 1191 1831 
Q 1191 1081 1462 751 
Q 1734 422 2344 422 
Q 2950 422 3222 751 
Q 3494 1081 3494 1831 
L 3494 4666 
L 4128 4666 
L 4128 1753 
Q 4128 841 3676 375 
Q 3225 -91 2344 -91 
Q 1459 -91 1007 375 
Q 556 841 556 1753 
L 556 4666 
z
M 2516 5921 
L 3094 5921 
L 2382 5096 
L 1903 5096 
L 2516 5921 
z
" transform="scale(0.015625)"/>
        <path id="DejaVuSans-52" d="M 2841 2188 
Q 3044 2119 3236 1894 
Q 3428 1669 3622 1275 
L 4263 0 
L 3584 0 
L 2988 1197 
Q 2756 1666 2539 1819 
Q 2322 1972 1947 1972 
L 1259 1972 
L 1259 0 
L 628 0 
L 628 4666 
L 2053 4666 
Q 2853 4666 3247 4331 
Q 3641 3997 3641 3322 
Q 3641 2881 3436 2590 
Q 3231 2300 2841 2188 
z
M 1259 4147 
L 1259 2491 
L 2053 2491 
Q 2509 2491 2742 2702 
Q 2975 2913 2975 3322 
Q 2975 3731 2742 3939 
Q 2509 4147 2053 4147 
L 1259 4147 
z
" transform="scale(0.015625)"/>
        <path id="DejaVuSans-2f" d="M 1625 4666 
L 2156 4666 
L 531 -594 
L 0 -594 
L 1625 4666 
z
" transform="scale(0.015625)"/>
        <path id="DejaVuSans-54" d="M -19 4666 
L 3928 4666 
L 3928 4134 
L 2272 4134 
L 2272 0 
L 1638 0 
L 1638 4134 
L -19 4134 
L -19 4666 
z
" transform="scale(0.015625)"/>
        <path id="DejaVuSans-4c" d="M 628 4666 
L 1259 4666 
L 1259 531 
L 3531 531 
L 3531 0 
L 628 0 
L 628 4666 
z
" transform="scale(0.015625)"/>
        <path id="DejaVuSans-4f" d="M 2522 4238 
Q 1834 4238 1429 3725 
Q 1025 3213 1025 2328 
Q 1025 1447 1429 934 
Q 1834 422 2522 422 
Q 3209 422 3611 934 
Q 4013 1447 4013 2328 
Q 4013 3213 3611 3725 
Q 3209 4238 2522 4238 
z
M 2522 4750 
Q 3503 4750 4090 4092 
Q 4678 3434 4678 2328 
Q 4678 1225 4090 567 
Q 3503 -91 2522 -91 
Q 1538 -91 948 565 
Q 359 1222 359 2328 
Q 359 3434 948 4092 
Q 1538 4750 2522 4750 
z
" transform="scale(0.015625)"/>
        <path id="DejaVuSans-46" d="M 628 4666 
L 3309 4666 
L 3309 4134 
L 1259 4134 
L 1259 2759 
L 3109 2759 
L 3109 2228 
L 1259 2228 
L 1259 0 
L 628 0 
L 628 4666 
z
" transform="scale(0.015625)"/>
        <path id="DejaVuSans-53" d="M 3425 4513 
L 3425 3897 
Q 3066 4069 2747 4153 
Q 2428 4238 2131 4238 
Q 1616 4238 1336 4038 
Q 1056 3838 1056 3469 
Q 1056 3159 1242 3001 
Q 1428 2844 1947 2747 
L 2328 2669 
Q 3034 2534 3370 2195 
Q 3706 1856 3706 1288 
Q 3706 609 3251 259 
Q 2797 -91 1919 -91 
Q 1588 -91 1214 -16 
Q 841 59 441 206 
L 441 856 
Q 825 641 1194 531 
Q 1563 422 1919 422 
Q 2459 422 2753 634 
Q 3047 847 3047 1241 
Q 3047 1584 2836 1778 
Q 2625 1972 2144 2069 
L 1759 2144 
Q 1053 2284 737 2584 
Q 422 2884 422 3419 
Q 422 4038 858 4394 
Q 1294 4750 2059 4750 
Q 2388 4750 2728 4690 
Q 3069 4631 3425 4513 
z
" transform="scale(0.015625)"/>
       </defs>
       <use xlink:href="#DejaVuSans-43"/>
       <use xlink:href="#DejaVuSans-41" transform="translate(69.824219 0)"/>
       <use xlink:href="#DejaVuSans-d1" transform="translate(138.232422 0)"/>
       <use xlink:href="#DejaVuSans-41" transform="translate(213.037109 0)"/>
       <use xlink:href="#DejaVuSans-20" transform="translate(281.445312 0)"/>
       <use xlink:href="#DejaVuSans-44" transform="translate(313.232422 0)"/>
       <use xlink:href="#DejaVuSans-45" transform="translate(390.234375 0)"/>
       <use xlink:href="#DejaVuSans-20" transform="translate(453.417969 0)"/>
       <use xlink:href="#DejaVuSans-41" transform="translate(485.205078 0)"/>
       <use xlink:href="#DejaVuSans-5a" transform="translate(553.613281 0)"/>
       <use xlink:href="#DejaVuSans-da" transform="translate(622.119141 0)"/>
       <use xlink:href="#DejaVuSans-43" transform="translate(695.3125 0)"/>
       <use xlink:href="#DejaVuSans-41" transform="translate(765.136719 0)"/>
       <use xlink:href="#DejaVuSans-52" transform="translate(833.544922 0)"/>
       <use xlink:href="#DejaVuSans-20" transform="translate(903.027344 0)"/>
       <use xlink:href="#DejaVuSans-2f" transform="translate(934.814453 0)"/>
       <use xlink:href="#DejaVuSans-20" transform="translate(968.505859 0)"/>
       <use xlink:href="#DejaVuSans-41" transform="translate(1000.292969 0)"/>
       <use xlink:href="#DejaVuSans-5a" transform="translate(1068.701172 0)"/>
       <use xlink:href="#DejaVuSans-da" transform="translate(1137.207031 0)"/>
       <use xlink:href="#DejaVuSans-43" transform="translate(1210.400391 0)"/>
       <use xlink:href="#DejaVuSans-41" transform="translate(1280.224609 0)"/>
       <use xlink:href="#DejaVuSans-52" transform="translate(1348.632812 0)"/>
       <use xlink:href="#DejaVuSans-20" transform="translate(1418.115234 0)"/>
       <use xlink:href="#DejaVuSans-28" transform="translate(1449.902344 0)"/>
       <use xlink:href="#DejaVuSans-54" transform="translate(1488.916016 0)"/>
       <use xlink:href="#DejaVuSans-41" transform="translate(1542.25 0)"/>
       <use xlink:href="#DejaVuSans-4c" transform="translate(1610.658203 0)"/>
       <use xlink:href="#DejaVuSans-4c" transform="translate(1666.371094 0)"/>
       <use xlink:href="#DejaVuSans-4f" transform="translate(1718.458984 0)"/>
       <use xlink:href="#DejaVuSans-20" transform="translate(1797.169922 0)"/>
       <use xlink:href="#DejaVuSans-46" transform="translate(1828.957031 0)"/>
       <use xlink:href="#DejaVuSans-52" transform="translate(1886.476562 0)"/>
       <use xlink:href="#DejaVuSans-45" transform="translate(1955.958984 0)"/>
       <use xlink:href="#DejaVuSans-53" transform="translate(2019.142578 0)"/>
       <use xlink:href="#DejaVuSans-43" transform="translate(2082.619141 0)"/>
       <use xlink:href="#DejaVuSans-4f" transform="translate(2152.443359 0)"/>
       <use xlink:href="#DejaVuSans-29" transform="translate(2231.154297 0)"/>
      </g>
     </g>
    </g>
    <g id="ytick_2">
     <g id="line2d_19">
      <path d="M 190.213906 316.680778 
L 669.144675 316.680778 
" clip-path="url(#pcf04c4a82c)" style="fill: none; stroke-dasharray: 0.8,1.32; stroke-dashoffset: 0; stroke: #d8d2c2; stroke-opacity: 0.45; stroke-width: 0.8"/>
     </g>
     <g id="line2d_20">
      <g>
       <use xlink:href="#ma14c5f76b3" x="190.213906" y="316.680778" style="fill: #1f2a44; stroke: #1f2a44; stroke-width: 0.8"/>
      </g>
     </g>
     <g id="text_11">
      <!-- CAÑA DE AZÚCAR / OTROS USOS (TALLO FRESCO) -->
      <g style="fill: #1f2a44" transform="translate(7.2 319.652497) scale(0.07 -0.07)">
       <defs>
        <path id="DejaVuSans-55" d="M 556 4666 
L 1191 4666 
L 1191 1831 
Q 1191 1081 1462 751 
Q 1734 422 2344 422 
Q 2950 422 3222 751 
Q 3494 1081 3494 1831 
L 3494 4666 
L 4128 4666 
L 4128 1753 
Q 4128 841 3676 375 
Q 3225 -91 2344 -91 
Q 1459 -91 1007 375 
Q 556 841 556 1753 
L 556 4666 
z
" transform="scale(0.015625)"/>
       </defs>
       <use xlink:href="#DejaVuSans-43"/>
       <use xlink:href="#DejaVuSans-41" transform="translate(69.824219 0)"/>
       <use xlink:href="#DejaVuSans-d1" transform="translate(138.232422 0)"/>
       <use xlink:href="#DejaVuSans-41" transform="translate(213.037109 0)"/>
       <use xlink:href="#DejaVuSans-20" transform="translate(281.445312 0)"/>
       <use xlink:href="#DejaVuSans-44" transform="translate(313.232422 0)"/>
       <use xlink:href="#DejaVuSans-45" transform="translate(390.234375 0)"/>
       <use xlink:href="#DejaVuSans-20" transform="translate(453.417969 0)"/>
       <use xlink:href="#DejaVuSans-41" transform="translate(485.205078 0)"/>
       <use xlink:href="#DejaVuSans-5a" transform="translate(553.613281 0)"/>
       <use xlink:href="#DejaVuSans-da" transform="translate(622.119141 0)"/>
       <use xlink:href="#DejaVuSans-43" transform="translate(695.3125 0)"/>
       <use xlink:href="#DejaVuSans-41" transform="translate(765.136719 0)"/>
       <use xlink:href="#DejaVuSans-52" transform="translate(833.544922 0)"/>
       <use xlink:href="#DejaVuSans-20" transform="translate(903.027344 0)"/>
       <use xlink:href="#DejaVuSans-2f" transform="translate(934.814453 0)"/>
       <use xlink:href="#DejaVuSans-20" transform="translate(968.505859 0)"/>
       <use xlink:href="#DejaVuSans-4f" transform="translate(1000.292969 0)"/>
       <use xlink:href="#DejaVuSans-54" transform="translate(1079.003906 0)"/>
       <use xlink:href="#DejaVuSans-52" transform="translate(1140.087891 0)"/>
       <use xlink:href="#DejaVuSans-4f" transform="translate(1209.570312 0)"/>
       <use xlink:href="#DejaVuSans-53" transform="translate(1288.28125 0)"/>
       <use xlink:href="#DejaVuSans-20" transform="translate(1351.757812 0)"/>
       <use xlink:href="#DejaVuSans-55" transform="translate(1383.544922 0)"/>
       <use xlink:href="#DejaVuSans-53" transform="translate(1456.738281 0)"/>
       <use xlink:href="#DejaVuSans-4f" transform="translate(1520.214844 0)"/>
       <use xlink:href="#DejaVuSans-53" transform="translate(1598.925781 0)"/>
       <use xlink:href="#DejaVuSans-20" transform="translate(1662.402344 0)"/>
       <use xlink:href="#DejaVuSans-28" transform="translate(1694.189453 0)"/>
       <use xlink:href="#DejaVuSans-54" transform="translate(1733.203125 0)"/>
       <use xlink:href="#DejaVuSans-41" transform="translate(1786.537109 0)"/>
       <use xlink:href="#DejaVuSans-4c" transform="translate(1854.945312 0)"/>
       <use xlink:href="#DejaVuSans-4c" transform="translate(1910.658203 0)"/>
       <use xlink:href="#DejaVuSans-4f" transform="translate(1962.746094 0)"/>
       <use xlink:href="#DejaVuSans-20" transform="translate(2041.457031 0)"/>
       <use xlink:href="#DejaVuSans-46" transform="translate(2073.244141 0)"/>
       <use xlink:href="#DejaVuSans-52" transform="translate(2130.763672 0)"/>
       <use xlink:href="#DejaVuSans-45" transform="translate(2200.246094 0)"/>
       <use xlink:href="#DejaVuSans-53" transform="translate(2263.429688 0)"/>
       <use xlink:href="#DejaVuSans-43" transform="translate(2326.90625 0)"/>
       <use xlink:href="#DejaVuSans-4f" transform="translate(2396.730469 0)"/>
       <use xlink:href="#DejaVuSans-29" transform="translate(2475.441406 0)"/>
      </g>
     </g>
    </g>
    <g id="ytick_3">
     <g id="line2d_21">
      <path d="M 190.213906 276.902041 
L 669.144675 276.902041 
" clip-path="url(#pcf04c4a82c)" style="fill: none; stroke-dasharray: 0.8,1.32; stroke-dashoffset: 0; stroke: #d8d2c2; stroke-opacity: 0.45; stroke-width: 0.8"/>
     </g>
     <g id="line2d_22">
      <g>
       <use xlink:href="#ma14c5f76b3" x="190.213906" y="276.902041" style="fill: #1f2a44; stroke: #1f2a44; stroke-width: 0.8"/>
      </g>
     </g>
     <g id="text_12">
      <!-- CAFÉ (GRANO ORO) -->
      <g style="fill: #1f2a44" transform="translate(113.74875 279.87376) scale(0.07 -0.07)">
       <defs>
        <path id="DejaVuSans-c9" d="M 628 4666 
L 3578 4666 
L 3578 4134 
L 1259 4134 
L 1259 2753 
L 3481 2753 
L 3481 2222 
L 1259 2222 
L 1259 531 
L 3634 531 
L 3634 0 
L 628 0 
L 628 4666 
z
M 2268 5921 
L 2846 5921 
L 2134 5096 
L 1655 5096 
L 2268 5921 
z
" transform="scale(0.015625)"/>
        <path id="DejaVuSans-47" d="M 3809 666 
L 3809 1919 
L 2778 1919 
L 2778 2438 
L 4434 2438 
L 4434 434 
Q 4069 175 3628 42 
Q 3188 -91 2688 -91 
Q 1594 -91 976 548 
Q 359 1188 359 2328 
Q 359 3472 976 4111 
Q 1594 4750 2688 4750 
Q 3144 4750 3555 4637 
Q 3966 4525 4313 4306 
L 4313 3634 
Q 3963 3931 3569 4081 
Q 3175 4231 2741 4231 
Q 1884 4231 1454 3753 
Q 1025 3275 1025 2328 
Q 1025 1384 1454 906 
Q 1884 428 2741 428 
Q 3075 428 3337 486 
Q 3600 544 3809 666 
z
" transform="scale(0.015625)"/>
        <path id="DejaVuSans-4e" d="M 628 4666 
L 1478 4666 
L 3547 763 
L 3547 4666 
L 4159 4666 
L 4159 0 
L 3309 0 
L 1241 3903 
L 1241 0 
L 628 0 
L 628 4666 
z
" transform="scale(0.015625)"/>
       </defs>
       <use xlink:href="#DejaVuSans-43"/>
       <use xlink:href="#DejaVuSans-41" transform="translate(69.824219 0)"/>
       <use xlink:href="#DejaVuSans-46" transform="translate(138.232422 0)"/>
       <use xlink:href="#DejaVuSans-c9" transform="translate(195.751953 0)"/>
       <use xlink:href="#DejaVuSans-20" transform="translate(258.935547 0)"/>
       <use xlink:href="#DejaVuSans-28" transform="translate(290.722656 0)"/>
       <use xlink:href="#DejaVuSans-47" transform="translate(329.736328 0)"/>
       <use xlink:href="#DejaVuSans-52" transform="translate(407.226562 0)"/>
       <use xlink:href="#DejaVuSans-41" transform="translate(472.708984 0)"/>
       <use xlink:href="#DejaVuSans-4e" transform="translate(541.117188 0)"/>
       <use xlink:href="#DejaVuSans-4f" transform="translate(615.921875 0)"/>
       <use xlink:href="#DejaVuSans-20" transform="translate(694.632812 0)"/>
       <use xlink:href="#DejaVuSans-4f" transform="translate(726.419922 0)"/>
       <use xlink:href="#DejaVuSans-52" transform="translate(805.130859 0)"/>
       <use xlink:href="#DejaVuSans-4f" transform="translate(874.613281 0)"/>
       <use xlink:href="#DejaVuSans-29" transform="translate(953.324219 0)"/>
      </g>
     </g>
    </g>
    <g id="ytick_4">
     <g id="line2d_23">
      <path d="M 190.213906 237.123304 
L 669.144675 237.123304 
" clip-path="url(#pcf04c4a82c)" style="fill: none; stroke-dasharray: 0.8,1.32; stroke-dashoffset: 0; stroke: #d8d2c2; stroke-opacity: 0.45; stroke-width: 0.8"/>
     </g>
     <g id="line2d_24">
      <g>
       <use xlink:href="#ma14c5f76b3" x="190.213906" y="237.123304" style="fill: #1f2a44; stroke: #1f2a44; stroke-width: 0.8"/>
      </g>
     </g>
     <g id="text_13">
      <!-- CACAO (ALMENDRA SECA) -->
      <g style="fill: #1f2a44" transform="translate(90.99 239.782757) scale(0.07 -0.07)">
       <defs>
        <path id="DejaVuSans-4d" d="M 628 4666 
L 1569 4666 
L 2759 1491 
L 3956 4666 
L 4897 4666 
L 4897 0 
L 4281 0 
L 4281 4097 
L 3078 897 
L 2444 897 
L 1241 4097 
L 1241 0 
L 628 0 
L 628 4666 
z
" transform="scale(0.015625)"/>
       </defs>
       <use xlink:href="#DejaVuSans-43"/>
       <use xlink:href="#DejaVuSans-41" transform="translate(69.824219 0)"/>
       <use xlink:href="#DejaVuSans-43" transform="translate(136.482422 0)"/>
       <use xlink:href="#DejaVuSans-41" transform="translate(206.306641 0)"/>
       <use xlink:href="#DejaVuSans-4f" transform="translate(272.964844 0)"/>
       <use xlink:href="#DejaVuSans-20" transform="translate(351.675781 0)"/>
       <use xlink:href="#DejaVuSans-28" transform="translate(383.462891 0)"/>
       <use xlink:href="#DejaVuSans-41" transform="translate(422.476562 0)"/>
       <use xlink:href="#DejaVuSans-4c" transform="translate(490.884766 0)"/>
       <use xlink:href="#DejaVuSans-4d" transform="translate(546.597656 0)"/>
       <use xlink:href="#DejaVuSans-45" transform="translate(632.876953 0)"/>
       <use xlink:href="#DejaVuSans-4e" transform="translate(696.060547 0)"/>
       <use xlink:href="#DejaVuSans-44" transform="translate(770.865234 0)"/>
       <use xlink:href="#DejaVuSans-52" transform="translate(847.867188 0)"/>
       <use xlink:href="#DejaVuSans-41" transform="translate(913.349609 0)"/>
       <use xlink:href="#DejaVuSans-20" transform="translate(981.757812 0)"/>
       <use xlink:href="#DejaVuSans-53" transform="translate(1013.544922 0)"/>
       <use xlink:href="#DejaVuSans-45" transform="translate(1077.021484 0)"/>
       <use xlink:href="#DejaVuSans-43" transform="translate(1140.205078 0)"/>
       <use xlink:href="#DejaVuSans-41" transform="translate(1210.029297 0)"/>
       <use xlink:href="#DejaVuSans-29" transform="translate(1278.4375 0)"/>
      </g>
     </g>
    </g>
    <g id="ytick_5">
     <g id="line2d_25">
      <path d="M 190.213906 197.344567 
L 669.144675 197.344567 
" clip-path="url(#pcf04c4a82c)" style="fill: none; stroke-dasharray: 0.8,1.32; stroke-dashoffset: 0; stroke: #d8d2c2; stroke-opacity: 0.45; stroke-width: 0.8"/>
     </g>
     <g id="line2d_26">
      <g>
       <use xlink:href="#ma14c5f76b3" x="190.213906" y="197.344567" style="fill: #1f2a44; stroke: #1f2a44; stroke-width: 0.8"/>
      </g>
     </g>
     <g id="text_14">
      <!-- CACAO CCN51 O RAMILLA (ALMENDRA FRESCA) -->
      <g style="fill: #1f2a44" transform="translate(15.771719 200.00402) scale(0.07 -0.07)">
       <use xlink:href="#DejaVuSans-43"/>
       <use xlink:href="#DejaVuSans-41" transform="translate(69.824219 0)"/>
       <use xlink:href="#DejaVuSans-43" transform="translate(136.482422 0)"/>
       <use xlink:href="#DejaVuSans-41" transform="translate(206.306641 0)"/>
       <use xlink:href="#DejaVuSans-4f" transform="translate(272.964844 0)"/>
       <use xlink:href="#DejaVuSans-20" transform="translate(351.675781 0)"/>
       <use xlink:href="#DejaVuSans-43" transform="translate(383.462891 0)"/>
       <use xlink:href="#DejaVuSans-43" transform="translate(453.287109 0)"/>
       <use xlink:href="#DejaVuSans-4e" transform="translate(523.111328 0)"/>
       <use xlink:href="#DejaVuSans-35" transform="translate(597.916016 0)"/>
       <use xlink:href="#DejaVuSans-31" transform="translate(661.539062 0)"/>
       <use xlink:href="#DejaVuSans-20" transform="translate(725.162109 0)"/>
       <use xlink:href="#DejaVuSans-4f" transform="translate(756.949219 0)"/>
       <use xlink:href="#DejaVuSans-20" transform="translate(835.660156 0)"/>
       <use xlink:href="#DejaVuSans-52" transform="translate(867.447266 0)"/>
       <use xlink:href="#DejaVuSans-41" transform="translate(932.929688 0)"/>
       <use xlink:href="#DejaVuSans-4d" transform="translate(1001.337891 0)"/>
       <use xlink:href="#DejaVuSans-49" transform="translate(1087.617188 0)"/>
       <use xlink:href="#DejaVuSans-4c" transform="translate(1117.109375 0)"/>
       <use xlink:href="#DejaVuSans-4c" transform="translate(1172.822266 0)"/>
       <use xlink:href="#DejaVuSans-41" transform="translate(1230.785156 0)"/>
       <use xlink:href="#DejaVuSans-20" transform="translate(1299.193359 0)"/>
       <use xlink:href="#DejaVuSans-28" transform="translate(1330.980469 0)"/>
       <use xlink:href="#DejaVuSans-41" transform="translate(1369.994141 0)"/>
       <use xlink:href="#DejaVuSans-4c" transform="translate(1438.402344 0)"/>
       <use xlink:href="#DejaVuSans-4d" transform="translate(1494.115234 0)"/>
       <use xlink:href="#DejaVuSans-45" transform="translate(1580.394531 0)"/>
       <use xlink:href="#DejaVuSans-4e" transform="translate(1643.578125 0)"/>
       <use xlink:href="#DejaVuSans-44" transform="translate(1718.382812 0)"/>
       <use xlink:href="#DejaVuSans-52" transform="translate(1795.384766 0)"/>
       <use xlink:href="#DejaVuSans-41" transform="translate(1860.867188 0)"/>
       <use xlink:href="#DejaVuSans-20" transform="translate(1929.275391 0)"/>
       <use xlink:href="#DejaVuSans-46" transform="translate(1961.0625 0)"/>
       <use xlink:href="#DejaVuSans-52" transform="translate(2018.582031 0)"/>
       <use xlink:href="#DejaVuSans-45" transform="translate(2088.064453 0)"/>
       <use xlink:href="#DejaVuSans-53" transform="translate(2151.248047 0)"/>
       <use xlink:href="#DejaVuSans-43" transform="translate(2214.724609 0)"/>
       <use xlink:href="#DejaVuSans-41" transform="translate(2284.548828 0)"/>
       <use xlink:href="#DejaVuSans-29" transform="translate(2352.957031 0)"/>
      </g>
     </g>
    </g>
    <g id="ytick_6">
     <g id="line2d_27">
      <path d="M 190.213906 157.56583 
L 669.144675 157.56583 
" clip-path="url(#pcf04c4a82c)" style="fill: none; stroke-dasharray: 0.8,1.32; stroke-dashoffset: 0; stroke: #d8d2c2; stroke-opacity: 0.45; stroke-width: 0.8"/>
     </g>
     <g id="line2d_28">
      <g>
       <use xlink:href="#ma14c5f76b3" x="190.213906" y="157.56583" style="fill: #1f2a44; stroke: #1f2a44; stroke-width: 0.8"/>
      </g>
     </g>
     <g id="text_15">
      <!-- BAMBÚ O CAÑA GUADUA -->
      <g style="fill: #1f2a44" transform="translate(95.134219 160.225284) scale(0.07 -0.07)">
       <defs>
        <path id="DejaVuSans-42" d="M 1259 2228 
L 1259 519 
L 2272 519 
Q 2781 519 3026 730 
Q 3272 941 3272 1375 
Q 3272 1813 3026 2020 
Q 2781 2228 2272 2228 
L 1259 2228 
z
M 1259 4147 
L 1259 2741 
L 2194 2741 
Q 2656 2741 2882 2914 
Q 3109 3088 3109 3444 
Q 3109 3797 2882 3972 
Q 2656 4147 2194 4147 
L 1259 4147 
z
M 628 4666 
L 2241 4666 
Q 2963 4666 3353 4366 
Q 3744 4066 3744 3513 
Q 3744 3084 3544 2831 
Q 3344 2578 2956 2516 
Q 3422 2416 3680 2098 
Q 3938 1781 3938 1306 
Q 3938 681 3513 340 
Q 3088 0 2303 0 
L 628 0 
L 628 4666 
z
" transform="scale(0.015625)"/>
       </defs>
       <use xlink:href="#DejaVuSans-42"/>
       <use xlink:href="#DejaVuSans-41" transform="translate(68.603516 0)"/>
       <use xlink:href="#DejaVuSans-4d" transform="translate(137.011719 0)"/>
       <use xlink:href="#DejaVuSans-42" transform="translate(223.291016 0)"/>
       <use xlink:href="#DejaVuSans-da" transform="translate(291.894531 0)"/>
       <use xlink:href="#DejaVuSans-20" transform="translate(365.087891 0)"/>
       <use xlink:href="#DejaVuSans-4f" transform="translate(396.875 0)"/>
       <use xlink:href="#DejaVuSans-20" transform="translate(475.585938 0)"/>
       <use xlink:href="#DejaVuSans-43" transform="translate(507.373047 0)"/>
       <use xlink:href="#DejaVuSans-41" transform="translate(577.197266 0)"/>
       <use xlink:href="#DejaVuSans-d1" transform="translate(645.605469 0)"/>
       <use xlink:href="#DejaVuSans-41" transform="translate(720.410156 0)"/>
       <use xlink:href="#DejaVuSans-20" transform="translate(788.818359 0)"/>
       <use xlink:href="#DejaVuSans-47" transform="translate(820.605469 0)"/>
       <use xlink:href="#DejaVuSans-55" transform="translate(898.095703 0)"/>
       <use xlink:href="#DejaVuSans-41" transform="translate(971.289062 0)"/>
       <use xlink:href="#DejaVuSans-44" transform="translate(1039.697266 0)"/>
       <use xlink:href="#DejaVuSans-55" transform="translate(1116.699219 0)"/>
       <use xlink:href="#DejaVuSans-41" transform="translate(1189.892578 0)"/>
      </g>
     </g>
    </g>
    <g id="ytick_7">
     <g id="line2d_29">
      <path d="M 190.213906 117.787094 
L 669.144675 117.787094 
" clip-path="url(#pcf04c4a82c)" style="fill: none; stroke-dasharray: 0.8,1.32; stroke-dashoffset: 0; stroke: #d8d2c2; stroke-opacity: 0.45; stroke-width: 0.8"/>
     </g>
     <g id="line2d_30">
      <g>
       <use xlink:href="#ma14c5f76b3" x="190.213906" y="117.787094" style="fill: #1f2a44; stroke: #1f2a44; stroke-width: 0.8"/>
      </g>
     </g>
     <g id="text_16">
      <!-- ABACÁ -->
      <g style="fill: #1f2a44" transform="translate(159.280469 120.446547) scale(0.07 -0.07)">
       <defs>
        <path id="DejaVuSans-c1" d="M 2188 4044 
L 1331 1722 
L 3047 1722 
L 2188 4044 
z
M 1831 4666 
L 2547 4666 
L 4325 0 
L 3669 0 
L 3244 1197 
L 1141 1197 
L 716 0 
L 50 0 
L 1831 4666 
z
M 2356 5921 
L 2934 5921 
L 2222 5096 
L 1743 5096 
L 2356 5921 
z
" transform="scale(0.015625)"/>
       </defs>
       <use xlink:href="#DejaVuSans-41"/>
       <use xlink:href="#DejaVuSans-42" transform="translate(68.408203 0)"/>
       <use xlink:href="#DejaVuSans-41" transform="translate(137.011719 0)"/>
       <use xlink:href="#DejaVuSans-43" transform="translate(203.669922 0)"/>
       <use xlink:href="#DejaVuSans-c1" transform="translate(273.494141 0)"/>
      </g>
     </g>
    </g>
    <g id="ytick_8">
     <g id="line2d_31">
      <path d="M 190.213906 78.008357 
L 669.144675 78.008357 
" clip-path="url(#pcf04c4a82c)" style="fill: none; stroke-dasharray: 0.8,1.32; stroke-dashoffset: 0; stroke: #d8d2c2; stroke-opacity: 0.45; stroke-width: 0.8"/>
     </g>
     <g id="line2d_32">
      <g>
       <use xlink:href="#ma14c5f76b3" x="190.213906" y="78.008357" style="fill: #1f2a44; stroke: #1f2a44; stroke-width: 0.8"/>
      </g>
     </g>
     <g id="text_17">
      <!-- CAUCHO -->
      <g style="fill: #1f2a44" transform="translate(152.751875 80.66781) scale(0.07 -0.07)">
       <defs>
        <path id="DejaVuSans-48" d="M 628 4666 
L 1259 4666 
L 1259 2753 
L 3553 2753 
L 3553 4666 
L 4184 4666 
L 4184 0 
L 3553 0 
L 3553 2222 
L 1259 2222 
L 1259 0 
L 628 0 
L 628 4666 
z
" transform="scale(0.015625)"/>
       </defs>
       <use xlink:href="#DejaVuSans-43"/>
       <use xlink:href="#DejaVuSans-41" transform="translate(69.824219 0)"/>
       <use xlink:href="#DejaVuSans-55" transform="translate(138.232422 0)"/>
       <use xlink:href="#DejaVuSans-43" transform="translate(211.425781 0)"/>
       <use xlink:href="#DejaVuSans-48" transform="translate(281.25 0)"/>
       <use xlink:href="#DejaVuSans-4f" transform="translate(356.445312 0)"/>
      </g>
     </g>
    </g>
    <g id="ytick_9">
     <g id="line2d_33">
      <path d="M 190.213906 38.22962 
L 669.144675 38.22962 
" clip-path="url(#pcf04c4a82c)" style="fill: none; stroke-dasharray: 0.8,1.32; stroke-dashoffset: 0; stroke: #d8d2c2; stroke-opacity: 0.45; stroke-width: 0.8"/>
     </g>
     <g id="line2d_34">
      <g>
       <use xlink:href="#ma14c5f76b3" x="190.213906" y="38.22962" style="fill: #1f2a44; stroke: #1f2a44; stroke-width: 0.8"/>
      </g>
     </g>
     <g id="text_18">
      <!-- CAÑA DE AZÚCAR /BIOCOMBUSTIBLE -->
      <g style="fill: #1f2a44" transform="translate(52.767812 41.06462) scale(0.07 -0.07)">
       <use xlink:href="#DejaVuSans-43"/>
       <use xlink:href="#DejaVuSans-41" transform="translate(69.824219 0)"/>
       <use xlink:href="#DejaVuSans-d1" transform="translate(138.232422 0)"/>
       <use xlink:href="#DejaVuSans-41" transform="translate(213.037109 0)"/>
       <use xlink:href="#DejaVuSans-20" transform="translate(281.445312 0)"/>
       <use xlink:href="#DejaVuSans-44" transform="translate(313.232422 0)"/>
       <use xlink:href="#DejaVuSans-45" transform="translate(390.234375 0)"/>
       <use xlink:href="#DejaVuSans-20" transform="translate(453.417969 0)"/>
       <use xlink:href="#DejaVuSans-41" transform="translate(485.205078 0)"/>
       <use xlink:href="#DejaVuSans-5a" transform="translate(553.613281 0)"/>
       <use xlink:href="#DejaVuSans-da" transform="translate(622.119141 0)"/>
       <use xlink:href="#DejaVuSans-43" transform="translate(695.3125 0)"/>
       <use xlink:href="#DejaVuSans-41" transform="translate(765.136719 0)"/>
       <use xlink:href="#DejaVuSans-52" transform="translate(833.544922 0)"/>
       <use xlink:href="#DejaVuSans-20" transform="translate(903.027344 0)"/>
       <use xlink:href="#DejaVuSans-2f" transform="translate(934.814453 0)"/>
       <use xlink:href="#DejaVuSans-42" transform="translate(968.505859 0)"/>
       <use xlink:href="#DejaVuSans-49" transform="translate(1037.109375 0)"/>
       <use xlink:href="#DejaVuSans-4f" transform="translate(1066.601562 0)"/>
       <use xlink:href="#DejaVuSans-43" transform="translate(1145.3125 0)"/>
       <use xlink:href="#DejaVuSans-4f" transform="translate(1215.136719 0)"/>
       <use xlink:href="#DejaVuSans-4d" transform="translate(1293.847656 0)"/>
       <use xlink:href="#DejaVuSans-42" transform="translate(1380.126953 0)"/>
       <use xlink:href="#DejaVuSans-55" transform="translate(1448.730469 0)"/>
       <use xlink:href="#DejaVuSans-53" transform="translate(1521.923828 0)"/>
       <use xlink:href="#DejaVuSans-54" transform="translate(1585.400391 0)"/>
       <use xlink:href="#DejaVuSans-49" transform="translate(1646.484375 0)"/>
       <use xlink:href="#DejaVuSans-42" transform="translate(1675.976562 0)"/>
       <use xlink:href="#DejaVuSans-4c" transform="translate(1744.580078 0)"/>
       <use xlink:href="#DejaVuSans-45" transform="translate(1800.292969 0)"/>
      </g>
     </g>
    </g>
   </g>
   <g id="patch_3">
    <path d="M 190.213906 372.37101 
L 190.213906 22.318125 
" style="fill: none; stroke: #1f2a44; stroke-width: 0.8; stroke-linejoin: miter; stroke-linecap: square"/>
   </g>
   <g id="patch_4">
    <path d="M 669.144675 372.37101 
L 669.144675 22.318125 
" style="fill: none; stroke: #1f2a44; stroke-width: 0.8; stroke-linejoin: miter; stroke-linecap: square"/>
   </g>
   <g id="patch_5">
    <path d="M 190.213906 372.37101 
L 669.144675 372.37101 
" style="fill: none; stroke: #1f2a44; stroke-width: 0.8; stroke-linejoin: miter; stroke-linecap: square"/>
   </g>
   <g id="patch_6">
    <path d="M 190.213906 22.318125 
L 669.144675 22.318125 
" style="fill: none; stroke: #1f2a44; stroke-width: 0.8; stroke-linejoin: miter; stroke-linecap: square"/>
   </g>
   <g id="text_19">
    <!-- Individual Tropical Crops: Industrial Cash (Ranked Dot Plot) -->
    <g style="fill: #1f2a44" transform="translate(228.323978 16.318125) scale(0.12 -0.12)">
     <defs>
      <path id="DejaVuSans-Bold-49" d="M 588 4666 
L 1791 4666 
L 1791 0 
L 588 0 
L 588 4666 
z
" transform="scale(0.015625)"/>
      <path id="DejaVuSans-Bold-6e" d="M 4056 2131 
L 4056 0 
L 2931 0 
L 2931 347 
L 2931 1631 
Q 2931 2084 2911 2256 
Q 2891 2428 2841 2509 
Q 2775 2619 2662 2680 
Q 2550 2741 2406 2741 
Q 2056 2741 1856 2470 
Q 1656 2200 1656 1722 
L 1656 0 
L 538 0 
L 538 3500 
L 1656 3500 
L 1656 2988 
Q 1909 3294 2193 3439 
Q 2478 3584 2822 3584 
Q 3428 3584 3742 3212 
Q 4056 2841 4056 2131 
z
" transform="scale(0.015625)"/>
      <path id="DejaVuSans-Bold-64" d="M 2919 2988 
L 2919 4863 
L 4044 4863 
L 4044 0 
L 2919 0 
L 2919 506 
Q 2688 197 2409 53 
Q 2131 -91 1766 -91 
Q 1119 -91 703 423 
Q 288 938 288 1747 
Q 288 2556 703 3070 
Q 1119 3584 1766 3584 
Q 2128 3584 2408 3439 
Q 2688 3294 2919 2988 
z
M 2181 722 
Q 2541 722 2730 984 
Q 2919 1247 2919 1747 
Q 2919 2247 2730 2509 
Q 2541 2772 2181 2772 
Q 1825 2772 1636 2509 
Q 1447 2247 1447 1747 
Q 1447 1247 1636 984 
Q 1825 722 2181 722 
z
" transform="scale(0.015625)"/>
      <path id="DejaVuSans-Bold-69" d="M 538 3500 
L 1656 3500 
L 1656 0 
L 538 0 
L 538 3500 
z
M 538 4863 
L 1656 4863 
L 1656 3950 
L 538 3950 
L 538 4863 
z
" transform="scale(0.015625)"/>
      <path id="DejaVuSans-Bold-76" d="M 97 3500 
L 1216 3500 
L 2088 1081 
L 2956 3500 
L 4078 3500 
L 2700 0 
L 1472 0 
L 97 3500 
z
" transform="scale(0.015625)"/>
      <path id="DejaVuSans-Bold-75" d="M 500 1363 
L 500 3500 
L 1625 3500 
L 1625 3150 
Q 1625 2866 1622 2436 
Q 1619 2006 1619 1863 
Q 1619 1441 1641 1255 
Q 1663 1069 1716 984 
Q 1784 875 1895 815 
Q 2006 756 2150 756 
Q 2500 756 2700 1025 
Q 2900 1294 2900 1772 
L 2900 3500 
L 4019 3500 
L 4019 0 
L 2900 0 
L 2900 506 
Q 2647 200 2364 54 
Q 2081 -91 1741 -91 
Q 1134 -91 817 281 
Q 500 653 500 1363 
z
" transform="scale(0.015625)"/>
      <path id="DejaVuSans-Bold-61" d="M 2106 1575 
Q 1756 1575 1579 1456 
Q 1403 1338 1403 1106 
Q 1403 894 1545 773 
Q 1688 653 1941 653 
Q 2256 653 2472 879 
Q 2688 1106 2688 1447 
L 2688 1575 
L 2106 1575 
z
M 3816 1997 
L 3816 0 
L 2688 0 
L 2688 519 
Q 2463 200 2181 54 
Q 1900 -91 1497 -91 
Q 953 -91 614 226 
Q 275 544 275 1050 
Q 275 1666 698 1953 
Q 1122 2241 2028 2241 
L 2688 2241 
L 2688 2328 
Q 2688 2594 2478 2717 
Q 2269 2841 1825 2841 
Q 1466 2841 1156 2769 
Q 847 2697 581 2553 
L 581 3406 
Q 941 3494 1303 3539 
Q 1666 3584 2028 3584 
Q 2975 3584 3395 3211 
Q 3816 2838 3816 1997 
z
" transform="scale(0.015625)"/>
      <path id="DejaVuSans-Bold-6c" d="M 538 4863 
L 1656 4863 
L 1656 0 
L 538 0 
L 538 4863 
z
" transform="scale(0.015625)"/>
      <path id="DejaVuSans-Bold-20" transform="scale(0.015625)"/>
      <path id="DejaVuSans-Bold-54" d="M 31 4666 
L 4331 4666 
L 4331 3756 
L 2784 3756 
L 2784 0 
L 1581 0 
L 1581 3756 
L 31 3756 
L 31 4666 
z
" transform="scale(0.015625)"/>
      <path id="DejaVuSans-Bold-72" d="M 3138 2547 
Q 2991 2616 2845 2648 
Q 2700 2681 2553 2681 
Q 2122 2681 1889 2404 
Q 1656 2128 1656 1613 
L 1656 0 
L 538 0 
L 538 3500 
L 1656 3500 
L 1656 2925 
Q 1872 3269 2151 3426 
Q 2431 3584 2822 3584 
Q 2878 3584 2943 3579 
Q 3009 3575 3134 3559 
L 3138 2547 
z
" transform="scale(0.015625)"/>
      <path id="DejaVuSans-Bold-6f" d="M 2203 2784 
Q 1831 2784 1636 2517 
Q 1441 2250 1441 1747 
Q 1441 1244 1636 976 
Q 1831 709 2203 709 
Q 2569 709 2762 976 
Q 2956 1244 2956 1747 
Q 2956 2250 2762 2517 
Q 2569 2784 2203 2784 
z
M 2203 3584 
Q 3106 3584 3614 3096 
Q 4122 2609 4122 1747 
Q 4122 884 3614 396 
Q 3106 -91 2203 -91 
Q 1297 -91 786 396 
Q 275 884 275 1747 
Q 275 2609 786 3096 
Q 1297 3584 2203 3584 
z
" transform="scale(0.015625)"/>
      <path id="DejaVuSans-Bold-70" d="M 1656 506 
L 1656 -1331 
L 538 -1331 
L 538 3500 
L 1656 3500 
L 1656 2988 
Q 1888 3294 2169 3439 
Q 2450 3584 2816 3584 
Q 3463 3584 3878 3070 
Q 4294 2556 4294 1747 
Q 4294 938 3878 423 
Q 3463 -91 2816 -91 
Q 2450 -91 2169 54 
Q 1888 200 1656 506 
z
M 2400 2772 
Q 2041 2772 1848 2508 
Q 1656 2244 1656 1747 
Q 1656 1250 1848 986 
Q 2041 722 2400 722 
Q 2759 722 2948 984 
Q 3138 1247 3138 1747 
Q 3138 2247 2948 2509 
Q 2759 2772 2400 2772 
z
" transform="scale(0.015625)"/>
      <path id="DejaVuSans-Bold-63" d="M 3366 3391 
L 3366 2478 
Q 3138 2634 2908 2709 
Q 2678 2784 2431 2784 
Q 1963 2784 1702 2511 
Q 1441 2238 1441 1747 
Q 1441 1256 1702 982 
Q 1963 709 2431 709 
Q 2694 709 2930 787 
Q 3166 866 3366 1019 
L 3366 103 
Q 3103 6 2833 -42 
Q 2563 -91 2291 -91 
Q 1344 -91 809 395 
Q 275 881 275 1747 
Q 275 2613 809 3098 
Q 1344 3584 2291 3584 
Q 2566 3584 2833 3536 
Q 3100 3488 3366 3391 
z
" transform="scale(0.015625)"/>
      <path id="DejaVuSans-Bold-43" d="M 4288 256 
Q 3956 84 3597 -3 
Q 3238 -91 2847 -91 
Q 1681 -91 1000 561 
Q 319 1213 319 2328 
Q 319 3447 1000 4098 
Q 1681 4750 2847 4750 
Q 3238 4750 3597 4662 
Q 3956 4575 4288 4403 
L 4288 3438 
Q 3953 3666 3628 3772 
Q 3303 3878 2944 3878 
Q 2300 3878 1931 3465 
Q 1563 3053 1563 2328 
Q 1563 1606 1931 1193 
Q 2300 781 2944 781 
Q 3303 781 3628 887 
Q 3953 994 4288 1222 
L 4288 256 
z
" transform="scale(0.015625)"/>
      <path id="DejaVuSans-Bold-73" d="M 3272 3391 
L 3272 2541 
Q 2913 2691 2578 2766 
Q 2244 2841 1947 2841 
Q 1628 2841 1473 2761 
Q 1319 2681 1319 2516 
Q 1319 2381 1436 2309 
Q 1553 2238 1856 2203 
L 2053 2175 
Q 2913 2066 3209 1816 
Q 3506 1566 3506 1031 
Q 3506 472 3093 190 
Q 2681 -91 1863 -91 
Q 1516 -91 1145 -36 
Q 775 19 384 128 
L 384 978 
Q 719 816 1070 734 
Q 1422 653 1784 653 
Q 2113 653 2278 743 
Q 2444 834 2444 1013 
Q 2444 1163 2330 1236 
Q 2216 1309 1875 1350 
L 1678 1375 
Q 931 1469 631 1722 
Q 331 1975 331 2491 
Q 331 3047 712 3315 
Q 1094 3584 1881 3584 
Q 2191 3584 2531 3537 
Q 2872 3491 3272 3391 
z
" transform="scale(0.015625)"/>
      <path id="DejaVuSans-Bold-3a" d="M 716 3500 
L 1844 3500 
L 1844 2291 
L 716 2291 
L 716 3500 
z
M 716 1209 
L 1844 1209 
L 1844 0 
L 716 0 
L 716 1209 
z
" transform="scale(0.015625)"/>
      <path id="DejaVuSans-Bold-74" d="M 1759 4494 
L 1759 3500 
L 2913 3500 
L 2913 2700 
L 1759 2700 
L 1759 1216 
Q 1759 972 1856 886 
Q 1953 800 2241 800 
L 2816 800 
L 2816 0 
L 1856 0 
Q 1194 0 917 276 
Q 641 553 641 1216 
L 641 2700 
L 84 2700 
L 84 3500 
L 641 3500 
L 641 4494 
L 1759 4494 
z
" transform="scale(0.015625)"/>
      <path id="DejaVuSans-Bold-68" d="M 4056 2131 
L 4056 0 
L 2931 0 
L 2931 347 
L 2931 1625 
Q 2931 2084 2911 2256 
Q 2891 2428 2841 2509 
Q 2775 2619 2662 2680 
Q 2550 2741 2406 2741 
Q 2056 2741 1856 2470 
Q 1656 2200 1656 1722 
L 1656 0 
L 538 0 
L 538 4863 
L 1656 4863 
L 1656 2988 
Q 1909 3294 2193 3439 
Q 2478 3584 2822 3584 
Q 3428 3584 3742 3212 
Q 4056 2841 4056 2131 
z
" transform="scale(0.015625)"/>
      <path id="DejaVuSans-Bold-28" d="M 2413 -844 
L 1484 -844 
Q 1006 -72 778 623 
Q 550 1319 550 2003 
Q 550 2688 779 3389 
Q 1009 4091 1484 4856 
L 2413 4856 
Q 2013 4116 1813 3408 
Q 1613 2700 1613 2009 
Q 1613 1319 1811 609 
Q 2009 -100 2413 -844 
z
" transform="scale(0.015625)"/>
      <path id="DejaVuSans-Bold-52" d="M 2297 2597 
Q 2675 2597 2839 2737 
Q 3003 2878 3003 3200 
Q 3003 3519 2839 3656 
Q 2675 3794 2297 3794 
L 1791 3794 
L 1791 2597 
L 2297 2597 
z
M 1791 1766 
L 1791 0 
L 588 0 
L 588 4666 
L 2425 4666 
Q 3347 4666 3776 4356 
Q 4206 4047 4206 3378 
Q 4206 2916 3982 2619 
Q 3759 2322 3309 2181 
Q 3556 2125 3751 1926 
Q 3947 1728 4147 1325 
L 4800 0 
L 3519 0 
L 2950 1159 
Q 2778 1509 2601 1637 
Q 2425 1766 2131 1766 
L 1791 1766 
z
" transform="scale(0.015625)"/>
      <path id="DejaVuSans-Bold-6b" d="M 538 4863 
L 1656 4863 
L 1656 2216 
L 2944 3500 
L 4244 3500 
L 2534 1894 
L 4378 0 
L 3022 0 
L 1656 1459 
L 1656 0 
L 538 0 
L 538 4863 
z
" transform="scale(0.015625)"/>
      <path id="DejaVuSans-Bold-65" d="M 4031 1759 
L 4031 1441 
L 1416 1441 
Q 1456 1047 1700 850 
Q 1944 653 2381 653 
Q 2734 653 3104 758 
Q 3475 863 3866 1075 
L 3866 213 
Q 3469 63 3072 -14 
Q 2675 -91 2278 -91 
Q 1328 -91 801 392 
Q 275 875 275 1747 
Q 275 2603 792 3093 
Q 1309 3584 2216 3584 
Q 3041 3584 3536 3087 
Q 4031 2591 4031 1759 
z
M 2881 2131 
Q 2881 2450 2695 2645 
Q 2509 2841 2209 2841 
Q 1884 2841 1681 2658 
Q 1478 2475 1428 2131 
L 2881 2131 
z
" transform="scale(0.015625)"/>
      <path id="DejaVuSans-Bold-44" d="M 1791 3756 
L 1791 909 
L 2222 909 
Q 2959 909 3348 1275 
Q 3738 1641 3738 2338 
Q 3738 3031 3350 3393 
Q 2963 3756 2222 3756 
L 1791 3756 
z
M 588 4666 
L 1856 4666 
Q 2919 4666 3439 4514 
Q 3959 4363 4331 4000 
Q 4659 3684 4818 3271 
Q 4978 2859 4978 2338 
Q 4978 1809 4818 1395 
Q 4659 981 4331 666 
Q 3956 303 3431 151 
Q 2906 0 1856 0 
L 588 0 
L 588 4666 
z
" transform="scale(0.015625)"/>
      <path id="DejaVuSans-Bold-50" d="M 588 4666 
L 2584 4666 
Q 3475 4666 3951 4270 
Q 4428 3875 4428 3144 
Q 4428 2409 3951 2014 
Q 3475 1619 2584 1619 
L 1791 1619 
L 1791 0 
L 588 0 
L 588 4666 
z
M 1791 3794 
L 1791 2491 
L 2456 2491 
Q 2806 2491 2997 2661 
Q 3188 2831 3188 3144 
Q 3188 3456 2997 3625 
Q 2806 3794 2456 3794 
L 1791 3794 
z
" transform="scale(0.015625)"/>
      <path id="DejaVuSans-Bold-29" d="M 513 -844 
Q 913 -100 1113 609 
Q 1313 1319 1313 2009 
Q 1313 2700 1113 3408 
Q 913 4116 513 4856 
L 1441 4856 
Q 1916 4091 2145 3389 
Q 2375 2688 2375 2003 
Q 2375 1319 2147 623 
Q 1919 -72 1441 -844 
L 513 -844 
z
" transform="scale(0.015625)"/>
     </defs>
     <use xlink:href="#DejaVuSans-Bold-49"/>
     <use xlink:href="#DejaVuSans-Bold-6e" transform="translate(37.207031 0)"/>
     <use xlink:href="#DejaVuSans-Bold-64" transform="translate(108.398438 0)"/>
     <use xlink:href="#DejaVuSans-Bold-69" transform="translate(179.980469 0)"/>
     <use xlink:href="#DejaVuSans-Bold-76" transform="translate(214.257812 0)"/>
     <use xlink:href="#DejaVuSans-Bold-69" transform="translate(279.443359 0)"/>
     <use xlink:href="#DejaVuSans-Bold-64" transform="translate(313.720703 0)"/>
     <use xlink:href="#DejaVuSans-Bold-75" transform="translate(385.302734 0)"/>
     <use xlink:href="#DejaVuSans-Bold-61" transform="translate(456.494141 0)"/>
     <use xlink:href="#DejaVuSans-Bold-6c" transform="translate(523.974609 0)"/>
     <use xlink:href="#DejaVuSans-Bold-20" transform="translate(558.251953 0)"/>
     <use xlink:href="#DejaVuSans-Bold-54" transform="translate(593.066406 0)"/>
     <use xlink:href="#DejaVuSans-Bold-72" transform="translate(650.279297 0)"/>
     <use xlink:href="#DejaVuSans-Bold-6f" transform="translate(699.595703 0)"/>
     <use xlink:href="#DejaVuSans-Bold-70" transform="translate(768.296875 0)"/>
     <use xlink:href="#DejaVuSans-Bold-69" transform="translate(839.878906 0)"/>
     <use xlink:href="#DejaVuSans-Bold-63" transform="translate(874.15625 0)"/>
     <use xlink:href="#DejaVuSans-Bold-61" transform="translate(933.433594 0)"/>
     <use xlink:href="#DejaVuSans-Bold-6c" transform="translate(1000.914062 0)"/>
     <use xlink:href="#DejaVuSans-Bold-20" transform="translate(1035.191406 0)"/>
     <use xlink:href="#DejaVuSans-Bold-43" transform="translate(1070.005859 0)"/>
     <use xlink:href="#DejaVuSans-Bold-72" transform="translate(1143.394531 0)"/>
     <use xlink:href="#DejaVuSans-Bold-6f" transform="translate(1192.710938 0)"/>
     <use xlink:href="#DejaVuSans-Bold-70" transform="translate(1261.412109 0)"/>
     <use xlink:href="#DejaVuSans-Bold-73" transform="translate(1332.994141 0)"/>
     <use xlink:href="#DejaVuSans-Bold-3a" transform="translate(1392.515625 0)"/>
     <use xlink:href="#DejaVuSans-Bold-20" transform="translate(1432.505859 0)"/>
     <use xlink:href="#DejaVuSans-Bold-49" transform="translate(1467.320312 0)"/>
     <use xlink:href="#DejaVuSans-Bold-6e" transform="translate(1504.527344 0)"/>
     <use xlink:href="#DejaVuSans-Bold-64" transform="translate(1575.71875 0)"/>
     <use xlink:href="#DejaVuSans-Bold-75" transform="translate(1647.300781 0)"/>
     <use xlink:href="#DejaVuSans-Bold-73" transform="translate(1718.492188 0)"/>
     <use xlink:href="#DejaVuSans-Bold-74" transform="translate(1778.013672 0)"/>
     <use xlink:href="#DejaVuSans-Bold-72" transform="translate(1825.816406 0)"/>
     <use xlink:href="#DejaVuSans-Bold-69" transform="translate(1875.132812 0)"/>
     <use xlink:href="#DejaVuSans-Bold-61" transform="translate(1909.410156 0)"/>
     <use xlink:href="#DejaVuSans-Bold-6c" transform="translate(1976.890625 0)"/>
     <use xlink:href="#DejaVuSans-Bold-20" transform="translate(2011.167969 0)"/>
     <use xlink:href="#DejaVuSans-Bold-43" transform="translate(2045.982422 0)"/>
     <use xlink:href="#DejaVuSans-Bold-61" transform="translate(2119.371094 0)"/>
     <use xlink:href="#DejaVuSans-Bold-73" transform="translate(2186.851562 0)"/>
     <use xlink:href="#DejaVuSans-Bold-68" transform="translate(2246.373047 0)"/>
     <use xlink:href="#DejaVuSans-Bold-20" transform="translate(2317.564453 0)"/>
     <use xlink:href="#DejaVuSans-Bold-28" transform="translate(2352.378906 0)"/>
     <use xlink:href="#DejaVuSans-Bold-52" transform="translate(2398.082031 0)"/>
     <use xlink:href="#DejaVuSans-Bold-61" transform="translate(2475.083984 0)"/>
     <use xlink:href="#DejaVuSans-Bold-6e" transform="translate(2542.564453 0)"/>
     <use xlink:href="#DejaVuSans-Bold-6b" transform="translate(2613.755859 0)"/>
     <use xlink:href="#DejaVuSans-Bold-65" transform="translate(2677.634766 0)"/>
     <use xlink:href="#DejaVuSans-Bold-64" transform="translate(2745.457031 0)"/>
     <use xlink:href="#DejaVuSans-Bold-20" transform="translate(2817.039062 0)"/>
     <use xlink:href="#DejaVuSans-Bold-44" transform="translate(2851.853516 0)"/>
     <use xlink:href="#DejaVuSans-Bold-6f" transform="translate(2934.861328 0)"/>
     <use xlink:href="#DejaVuSans-Bold-74" transform="translate(3003.5625 0)"/>
     <use xlink:href="#DejaVuSans-Bold-20" transform="translate(3051.365234 0)"/>
     <use xlink:href="#DejaVuSans-Bold-50" transform="translate(3086.179688 0)"/>
     <use xlink:href="#DejaVuSans-Bold-6c" transform="translate(3159.470703 0)"/>
     <use xlink:href="#DejaVuSans-Bold-6f" transform="translate(3193.748047 0)"/>
     <use xlink:href="#DejaVuSans-Bold-74" transform="translate(3262.449219 0)"/>
     <use xlink:href="#DejaVuSans-Bold-29" transform="translate(3310.251953 0)"/>
    </g>
   </g>
  </g>
 </g>
 <defs>
  <clipPath id="pcf04c4a82c">
   <rect x="190.213906" y="22.318125" width="478.930769" height="350.052885"/>
  </clipPath>
 </defs>
</svg>
