<?xml version="1.0" encoding="utf-8" standalone="no"?>
<!DOCTYPE svg PUBLIC "-//W3C//DTD SVG 1.1//EN"
  "http://www.w3.org/Graphics/SVG/1.1/DTD/svg11.dtd">
<svg xmlns:xlink="http://www.w3.org/1999/xlink" width="676.706322pt" height="410.205385pt" viewBox="0 0 676.706322 410.205385" xmlns="http://www.w3.org/2000/svg" version="1.1">
 <metadata>
  <rdf:RDF xmlns:dc="http://purl.org/dc/elements/1.1/" xmlns:cc="http://creativecommons.org/ns#" xmlns:rdf="http://www.w3.org/1999/02/22-rdf-syntax-ns#">
   <cc:Work>
    <dc:type rdf:resource="http://purl.org/dc/dcmitype/StillImage"/>
    <dc:date>2026-05-05T11:18:48.810527</dc:date>
    <dc:format>image/svg+xml</dc:format>
    <dc:creator>
     <cc:Agent>
      <dc:title>Matplotlib v3.10.9, https://matplotlib.org/</dc:title>
     </cc:Agent>
    </dc:creator>
   </cc:Work>
  </rdf:RDF>
 </metadata>
 <defs>
  <style type="text/css">*{stroke-linejoin: round; stroke-linecap: butt}</style>
 </defs>
 <g id="figure_1">
  <g id="patch_1">
   <path d="M 0 410.205385 
L 676.706322 410.205385 
L 676.706322 0 
L 0 0 
L 0 410.205385 
z
" style="fill: none"/>
  </g>
  <g id="axes_1">
   <g id="patch_2">
    <path d="M 111.790938 372.37101 
L 669.506322 372.37101 
L 669.506322 22.318125 
L 111.790938 22.318125 
L 111.790938 372.37101 
z
" style="fill: none"/>
   </g>
   <g id="PathCollection_1">
    <path d="M 137.141637 359.115692 
C 137.846063 359.115692 138.521733 358.835821 139.019838 358.337716 
C 139.517942 357.839611 139.797814 357.163941 139.797814 356.459515 
C 139.797814 355.755088 139.517942 355.079419 139.019838 354.581314 
C 138.521733 354.083209 137.846063 353.803338 137.141637 353.803338 
C 136.43721 353.803338 135.761541 354.083209 135.263436 354.581314 
C 134.765331 355.079419 134.48546 355.755088 134.48546 356.459515 
C 134.48546 357.163941 134.765331 357.839611 135.263436 358.337716 
C 135.761541 358.835821 136.43721 359.115692 137.141637 359.115692 
z
" clip-path="url(#p0f7448f708)" style="fill: #313695; fill-opacity: 0.86; stroke: #ffffff; stroke-opacity: 0.86; stroke-width: 0.3"/>
    <path d="M 149.88161 341.844773 
C 150.694377 341.844773 151.473964 341.521857 152.048678 340.947144 
C 152.623391 340.372431 152.946307 339.592843 152.946307 338.780076 
C 152.946307 337.967309 152.623391 337.187721 152.048678 336.613008 
C 151.473964 336.038295 150.694377 335.715379 149.88161 335.715379 
C 149.068842 335.715379 148.289255 336.038295 147.714541 336.613008 
C 147.139828 337.187721 146.816912 337.967309 146.816912 338.780076 
C 146.816912 339.592843 147.139828 340.372431 147.714541 340.947144 
C 148.289255 341.521857 149.068842 341.844773 149.88161 341.844773 
z
" clip-path="url(#p0f7448f708)" style="fill: #36459c; fill-opacity: 0.86; stroke: #ffffff; stroke-opacity: 0.86; stroke-width: 0.3"/>
    <path d="M 153.389718 324.245075 
C 154.223633 324.245075 155.023504 323.913757 155.613171 323.324091 
C 156.202838 322.734424 156.534156 321.934552 156.534156 321.100638 
C 156.534156 320.266723 156.202838 319.466851 155.613171 318.877184 
C 155.023504 318.287518 154.223633 317.9562 153.389718 317.9562 
C 152.555803 317.9562 151.755931 318.287518 151.166265 318.877184 
C 150.576598 319.466851 150.24528 320.266723 150.24528 321.100638 
C 150.24528 321.934552 150.576598 322.734424 151.166265 323.324091 
C 151.755931 323.913757 152.555803 324.245075 153.389718 324.245075 
z
" clip-path="url(#p0f7448f708)" style="fill: #374a9f; fill-opacity: 0.86; stroke: #ffffff; stroke-opacity: 0.86; stroke-width: 0.3"/>
    <path d="M 195.117744 307.180958 
C 196.114844 307.180958 197.07124 306.784806 197.776296 306.07975 
C 198.481352 305.374694 198.877504 304.418299 198.877504 303.421199 
C 198.877504 302.424099 198.481352 301.467704 197.776296 300.762648 
C 197.07124 300.057592 196.114844 299.66144 195.117744 299.66144 
C 194.120645 299.66144 193.164249 300.057592 192.459193 300.762648 
C 191.754137 301.467704 191.357985 302.424099 191.357985 303.421199 
C 191.357985 304.418299 191.754137 305.374694 192.459193 306.07975 
C 193.164249 306.784806 194.120645 307.180958 195.117744 307.180958 
z
" clip-path="url(#p0f7448f708)" style="fill: #4b7db8; fill-opacity: 0.86; stroke: #ffffff; stroke-opacity: 0.86; stroke-width: 0.3"/>
    <path d="M 644.155623 288.847387 
C 644.979245 288.847387 645.769244 288.520159 646.351632 287.93777 
C 646.934021 287.355381 647.261249 286.565382 647.261249 285.74176 
C 647.261249 284.918139 646.934021 284.128139 646.351632 283.545751 
C 645.769244 282.963362 644.979245 282.636134 644.155623 282.636134 
C 643.332001 282.636134 642.542002 282.963362 641.959613 283.545751 
C 641.377225 284.128139 641.049996 284.918139 641.049996 285.74176 
C 641.049996 286.565382 641.377225 287.355381 641.959613 287.93777 
C 642.542002 288.520159 643.332001 288.847387 644.155623 288.847387 
z
" clip-path="url(#p0f7448f708)" style="fill: #a50026; fill-opacity: 0.86; stroke: #ffffff; stroke-opacity: 0.86; stroke-width: 0.3"/>
    <path d="M 644.155623 271.167948 
C 644.979245 271.167948 645.769244 270.84072 646.351632 270.258331 
C 646.934021 269.675943 647.261249 268.885944 647.261249 268.062322 
C 647.261249 267.2387 646.934021 266.448701 646.351632 265.866312 
C 645.769244 265.283924 644.979245 264.956695 644.155623 264.956695 
C 643.332001 264.956695 642.542002 265.283924 641.959613 265.866312 
C 641.377225 266.448701 641.049996 267.2387 641.049996 268.062322 
C 641.049996 268.885944 641.377225 269.675943 641.959613 270.258331 
C 642.542002 270.84072 643.332001 271.167948 644.155623 271.167948 
z
" clip-path="url(#p0f7448f708)" style="fill: #a50026; fill-opacity: 0.86; stroke: #ffffff; stroke-opacity: 0.86; stroke-width: 0.3"/>
    <path d="M 644.155623 253.48851 
C 644.979245 253.48851 645.769244 253.161281 646.351632 252.578893 
C 646.934021 251.996504 647.261249 251.206505 647.261249 250.382883 
C 647.261249 249.559261 646.934021 248.769262 646.351632 248.186874 
C 645.769244 247.604485 644.979245 247.277257 644.155623 247.277257 
C 643.332001 247.277257 642.542002 247.604485 641.959613 248.186874 
C 641.377225 248.769262 641.049996 249.559261 641.049996 250.382883 
C 641.049996 251.206505 641.377225 251.996504 641.959613 252.578893 
C 642.542002 253.161281 643.332001 253.48851 644.155623 253.48851 
z
" clip-path="url(#p0f7448f708)" style="fill: #a50026; fill-opacity: 0.86; stroke: #ffffff; stroke-opacity: 0.86; stroke-width: 0.3"/>
    <path d="M 644.155623 235.809071 
C 644.979245 235.809071 645.769244 235.481843 646.351632 234.899454 
C 646.934021 234.317066 647.261249 233.527066 647.261249 232.703445 
C 647.261249 231.879823 646.934021 231.089823 646.351632 230.507435 
C 645.769244 229.925046 644.979245 229.597818 644.155623 229.597818 
C 643.332001 229.597818 642.542002 229.925046 641.959613 230.507435 
C 641.377225 231.089823 641.049996 231.879823 641.049996 232.703445 
C 641.049996 233.527066 641.377225 234.317066 641.959613 234.899454 
C 642.542002 235.481843 643.332001 235.809071 644.155623 235.809071 
z
" clip-path="url(#p0f7448f708)" style="fill: #a50026; fill-opacity: 0.86; stroke: #ffffff; stroke-opacity: 0.86; stroke-width: 0.3"/>
    <path d="M 644.155623 218.129633 
C 644.979245 218.129633 645.769244 217.802404 646.351632 217.220016 
C 646.934021 216.637627 647.261249 215.847628 647.261249 215.024006 
C 647.261249 214.200384 646.934021 213.410385 646.351632 212.827996 
C 645.769244 212.245608 644.979245 211.918379 644.155623 211.918379 
C 643.332001 211.918379 642.542002 212.245608 641.959613 212.827996 
C 641.377225 213.410385 641.049996 214.200384 641.049996 215.024006 
C 641.049996 215.847628 641.377225 216.637627 641.959613 217.220016 
C 642.542002 217.802404 643.332001 218.129633 644.155623 218.129633 
z
" clip-path="url(#p0f7448f708)" style="fill: #a50026; fill-opacity: 0.86; stroke: #ffffff; stroke-opacity: 0.86; stroke-width: 0.3"/>
    <path d="M 644.155623 200.450194 
C 644.979245 200.450194 645.769244 200.122966 646.351632 199.540577 
C 646.934021 198.958188 647.261249 198.168189 647.261249 197.344567 
C 647.261249 196.520946 646.934021 195.730946 646.351632 195.148558 
C 645.769244 194.566169 644.979245 194.238941 644.155623 194.238941 
C 643.332001 194.238941 642.542002 194.566169 641.959613 195.148558 
C 641.377225 195.730946 641.049996 196.520946 641.049996 197.344567 
C 641.049996 198.168189 641.377225 198.958188 641.959613 199.540577 
C 642.542002 200.122966 643.332001 200.450194 644.155623 200.450194 
z
" clip-path="url(#p0f7448f708)" style="fill: #a50026; fill-opacity: 0.86; stroke: #ffffff; stroke-opacity: 0.86; stroke-width: 0.3"/>
    <path d="M 644.155623 182.770755 
C 644.979245 182.770755 645.769244 182.443527 646.351632 181.861138 
C 646.934021 181.27875 647.261249 180.48875 647.261249 179.665129 
C 647.261249 178.841507 646.934021 178.051508 646.351632 177.469119 
C 645.769244 176.88673 644.979245 176.559502 644.155623 176.559502 
C 643.332001 176.559502 642.542002 176.88673 641.959613 177.469119 
C 641.377225 178.051508 641.049996 178.841507 641.049996 179.665129 
C 641.049996 180.48875 641.377225 181.27875 641.959613 181.861138 
C 642.542002 182.443527 643.332001 182.770755 644.155623 182.770755 
z
" clip-path="url(#p0f7448f708)" style="fill: #a50026; fill-opacity: 0.86; stroke: #ffffff; stroke-opacity: 0.86; stroke-width: 0.3"/>
    <path d="M 644.155623 165.091317 
C 644.979245 165.091317 645.769244 164.764088 646.351632 164.1817 
C 646.934021 163.599311 647.261249 162.809312 647.261249 161.98569 
C 647.261249 161.162068 646.934021 160.372069 646.351632 159.78968 
C 645.769244 159.207292 644.979245 158.880063 644.155623 158.880063 
C 643.332001 158.880063 642.542002 159.207292 641.959613 159.78968 
C 641.377225 160.372069 641.049996 161.162068 641.049996 161.98569 
C 641.049996 162.809312 641.377225 163.599311 641.959613 164.1817 
C 642.542002 164.764088 643.332001 165.091317 644.155623 165.091317 
z
" clip-path="url(#p0f7448f708)" style="fill: #a50026; fill-opacity: 0.86; stroke: #ffffff; stroke-opacity: 0.86; stroke-width: 0.3"/>
    <path d="M 644.155623 147.411878 
C 644.979245 147.411878 645.769244 147.08465 646.351632 146.502261 
C 646.934021 145.919873 647.261249 145.129873 647.261249 144.306251 
C 647.261249 143.48263 646.934021 142.69263 646.351632 142.110242 
C 645.769244 141.527853 644.979245 141.200625 644.155623 141.200625 
C 643.332001 141.200625 642.542002 141.527853 641.959613 142.110242 
C 641.377225 142.69263 641.049996 143.48263 641.049996 144.306251 
C 641.049996 145.129873 641.377225 145.919873 641.959613 146.502261 
C 642.542002 147.08465 643.332001 147.411878 644.155623 147.411878 
z
" clip-path="url(#p0f7448f708)" style="fill: #a50026; fill-opacity: 0.86; stroke: #ffffff; stroke-opacity: 0.86; stroke-width: 0.3"/>
    <path d="M 644.155623 129.732439 
C 644.979245 129.732439 645.769244 129.405211 646.351632 128.822822 
C 646.934021 128.240434 647.261249 127.450435 647.261249 126.626813 
C 647.261249 125.803191 646.934021 125.013192 646.351632 124.430803 
C 645.769244 123.848415 644.979245 123.521186 644.155623 123.521186 
C 643.332001 123.521186 642.542002 123.848415 641.959613 124.430803 
C 641.377225 125.013192 641.049996 125.803191 641.049996 126.626813 
C 641.049996 127.450435 641.377225 128.240434 641.959613 128.822822 
C 642.542002 129.405211 643.332001 129.732439 644.155623 129.732439 
z
" clip-path="url(#p0f7448f708)" style="fill: #a50026; fill-opacity: 0.86; stroke: #ffffff; stroke-opacity: 0.86; stroke-width: 0.3"/>
    <path d="M 644.155623 112.053001 
C 644.979245 112.053001 645.769244 111.725772 646.351632 111.143384 
C 646.934021 110.560995 647.261249 109.770996 647.261249 108.947374 
C 647.261249 108.123752 646.934021 107.333753 646.351632 106.751365 
C 645.769244 106.168976 644.979245 105.841748 644.155623 105.841748 
C 643.332001 105.841748 642.542002 106.168976 641.959613 106.751365 
C 641.377225 107.333753 641.049996 108.123752 641.049996 108.947374 
C 641.049996 109.770996 641.377225 110.560995 641.959613 111.143384 
C 642.542002 111.725772 643.332001 112.053001 644.155623 112.053001 
z
" clip-path="url(#p0f7448f708)" style="fill: #a50026; fill-opacity: 0.86; stroke: #ffffff; stroke-opacity: 0.86; stroke-width: 0.3"/>
    <path d="M 644.155623 94.373562 
C 644.979245 94.373562 645.769244 94.046334 646.351632 93.463945 
C 646.934021 92.881557 647.261249 92.091557 647.261249 91.267936 
C 647.261249 90.444314 646.934021 89.654315 646.351632 89.071926 
C 645.769244 88.489537 644.979245 88.162309 644.155623 88.162309 
C 643.332001 88.162309 642.542002 88.489537 641.959613 89.071926 
C 641.377225 89.654315 641.049996 90.444314 641.049996 91.267936 
C 641.049996 92.091557 641.377225 92.881557 641.959613 93.463945 
C 642.542002 94.046334 643.332001 94.373562 644.155623 94.373562 
z
" clip-path="url(#p0f7448f708)" style="fill: #a50026; fill-opacity: 0.86; stroke: #ffffff; stroke-opacity: 0.86; stroke-width: 0.3"/>
    <path d="M 644.155623 76.694124 
C 644.979245 76.694124 645.769244 76.366895 646.351632 75.784507 
C 646.934021 75.202118 647.261249 74.412119 647.261249 73.588497 
C 647.261249 72.764875 646.934021 71.974876 646.351632 71.392487 
C 645.769244 70.810099 644.979245 70.48287 644.155623 70.48287 
C 643.332001 70.48287 642.542002 70.810099 641.959613 71.392487 
C 641.377225 71.974876 641.049996 72.764875 641.049996 73.588497 
C 641.049996 74.412119 641.377225 75.202118 641.959613 75.784507 
C 642.542002 76.366895 643.332001 76.694124 644.155623 76.694124 
z
" clip-path="url(#p0f7448f708)" style="fill: #a50026; fill-opacity: 0.86; stroke: #ffffff; stroke-opacity: 0.86; stroke-width: 0.3"/>
    <path d="M 644.155623 59.014685 
C 644.979245 59.014685 645.769244 58.687457 646.351632 58.105068 
C 646.934021 57.522679 647.261249 56.73268 647.261249 55.909058 
C 647.261249 55.085437 646.934021 54.295437 646.351632 53.713049 
C 645.769244 53.13066 644.979245 52.803432 644.155623 52.803432 
C 643.332001 52.803432 642.542002 53.13066 641.959613 53.713049 
C 641.377225 54.295437 641.049996 55.085437 641.049996 55.909058 
C 641.049996 56.73268 641.377225 57.522679 641.959613 58.105068 
C 642.542002 58.687457 643.332001 59.014685 644.155623 59.014685 
z
" clip-path="url(#p0f7448f708)" style="fill: #a50026; fill-opacity: 0.86; stroke: #ffffff; stroke-opacity: 0.86; stroke-width: 0.3"/>
    <path d="M 644.155623 41.335246 
C 644.979245 41.335246 645.769244 41.008018 646.351632 40.425629 
C 646.934021 39.843241 647.261249 39.053242 647.261249 38.22962 
C 647.261249 37.405998 646.934021 36.615999 646.351632 36.03361 
C 645.769244 35.451222 644.979245 35.123993 644.155623 35.123993 
C 643.332001 35.123993 642.542002 35.451222 641.959613 36.03361 
C 641.377225 36.615999 641.049996 37.405998 641.049996 38.22962 
C 641.049996 39.053242 641.377225 39.843241 641.959613 40.425629 
C 642.542002 41.008018 643.332001 41.335246 644.155623 41.335246 
z
" clip-path="url(#p0f7448f708)" style="fill: #a50026; fill-opacity: 0.86; stroke: #ffffff; stroke-opacity: 0.86; stroke-width: 0.3"/>
   </g>
   <g id="matplotlib.axis_1">
    <g id="xtick_1">
     <g id="line2d_1">
      <path d="M 129.848464 372.37101 
L 129.848464 22.318125 
" clip-path="url(#p0f7448f708)" style="fill: none; stroke-dasharray: 0.8,1.32; stroke-dashoffset: 0; stroke: #d8d2c2; stroke-opacity: 0.25; stroke-width: 0.8"/>
     </g>
     <g id="line2d_2">
      <defs>
       <path id="me4502d30f3" d="M 0 0 
L 0 3.5 
" style="stroke: #1f2a44; stroke-width: 0.8"/>
      </defs>
      <g>
       <use xlink:href="#me4502d30f3" x="129.848464" y="372.37101" style="fill: #1f2a44; stroke: #1f2a44; stroke-width: 0.8"/>
      </g>
     </g>
     <g id="text_1">
      <!-- 0 -->
      <g style="fill: #1f2a44" transform="translate(126.667214 386.969447) scale(0.1 -0.1)">
       <defs>
        <path id="DejaVuSans-30" d="M 2034 4250 
Q 1547 4250 1301 3770 
Q 1056 3291 1056 2328 
Q 1056 1369 1301 889 
Q 1547 409 2034 409 
Q 2525 409 2770 889 
Q 3016 1369 3016 2328 
Q 3016 3291 2770 3770 
Q 2525 4250 2034 4250 
z
M 2034 4750 
Q 2819 4750 3233 4129 
Q 3647 3509 3647 2328 
Q 3647 1150 3233 529 
Q 2819 -91 2034 -91 
Q 1250 -91 836 529 
Q 422 1150 422 2328 
Q 422 3509 836 4129 
Q 1250 4750 2034 4750 
z
" transform="scale(0.015625)"/>
       </defs>
       <use xlink:href="#DejaVuSans-30"/>
      </g>
     </g>
    </g>
    <g id="xtick_2">
     <g id="line2d_3">
      <path d="M 222.167107 372.37101 
L 222.167107 22.318125 
" clip-path="url(#p0f7448f708)" style="fill: none; stroke-dasharray: 0.8,1.32; stroke-dashoffset: 0; stroke: #d8d2c2; stroke-opacity: 0.25; stroke-width: 0.8"/>
     </g>
     <g id="line2d_4">
      <g>
       <use xlink:href="#me4502d30f3" x="222.167107" y="372.37101" style="fill: #1f2a44; stroke: #1f2a44; stroke-width: 0.8"/>
      </g>
     </g>
     <g id="text_2">
      <!-- 1000 -->
      <g style="fill: #1f2a44" transform="translate(209.442107 386.969447) scale(0.1 -0.1)">
       <defs>
        <path id="DejaVuSans-31" d="M 794 531 
L 1825 531 
L 1825 4091 
L 703 3866 
L 703 4441 
L 1819 4666 
L 2450 4666 
L 2450 531 
L 3481 531 
L 3481 0 
L 794 0 
L 794 531 
z
" transform="scale(0.015625)"/>
       </defs>
       <use xlink:href="#DejaVuSans-31"/>
       <use xlink:href="#DejaVuSans-30" transform="translate(63.623047 0)"/>
       <use xlink:href="#DejaVuSans-30" transform="translate(127.246094 0)"/>
       <use xlink:href="#DejaVuSans-30" transform="translate(190.869141 0)"/>
      </g>
     </g>
    </g>
    <g id="xtick_3">
     <g id="line2d_5">
      <path d="M 314.48575 372.37101 
L 314.48575 22.318125 
" clip-path="url(#p0f7448f708)" style="fill: none; stroke-dasharray: 0.8,1.32; stroke-dashoffset: 0; stroke: #d8d2c2; stroke-opacity: 0.25; stroke-width: 0.8"/>
     </g>
     <g id="line2d_6">
      <g>
       <use xlink:href="#me4502d30f3" x="314.48575" y="372.37101" style="fill: #1f2a44; stroke: #1f2a44; stroke-width: 0.8"/>
      </g>
     </g>
     <g id="text_3">
      <!-- 2000 -->
      <g style="fill: #1f2a44" transform="translate(301.76075 386.969447) scale(0.1 -0.1)">
       <defs>
        <path id="DejaVuSans-32" d="M 1228 531 
L 3431 531 
L 3431 0 
L 469 0 
L 469 531 
Q 828 903 1448 1529 
Q 2069 2156 2228 2338 
Q 2531 2678 2651 2914 
Q 2772 3150 2772 3378 
Q 2772 3750 2511 3984 
Q 2250 4219 1831 4219 
Q 1534 4219 1204 4116 
Q 875 4013 500 3803 
L 500 4441 
Q 881 4594 1212 4672 
Q 1544 4750 1819 4750 
Q 2544 4750 2975 4387 
Q 3406 4025 3406 3419 
Q 3406 3131 3298 2873 
Q 3191 2616 2906 2266 
Q 2828 2175 2409 1742 
Q 1991 1309 1228 531 
z
" transform="scale(0.015625)"/>
       </defs>
       <use xlink:href="#DejaVuSans-32"/>
       <use xlink:href="#DejaVuSans-30" transform="translate(63.623047 0)"/>
       <use xlink:href="#DejaVuSans-30" transform="translate(127.246094 0)"/>
       <use xlink:href="#DejaVuSans-30" transform="translate(190.869141 0)"/>
      </g>
     </g>
    </g>
    <g id="xtick_4">
     <g id="line2d_7">
      <path d="M 406.804392 372.37101 
L 406.804392 22.318125 
" clip-path="url(#p0f7448f708)" style="fill: none; stroke-dasharray: 0.8,1.32; stroke-dashoffset: 0; stroke: #d8d2c2; stroke-opacity: 0.25; stroke-width: 0.8"/>
     </g>
     <g id="line2d_8">
      <g>
       <use xlink:href="#me4502d30f3" x="406.804392" y="372.37101" style="fill: #1f2a44; stroke: #1f2a44; stroke-width: 0.8"/>
      </g>
     </g>
     <g id="text_4">
      <!-- 3000 -->
      <g style="fill: #1f2a44" transform="translate(394.079392 386.969447) scale(0.1 -0.1)">
       <defs>
        <path id="DejaVuSans-33" d="M 2597 2516 
Q 3050 2419 3304 2112 
Q 3559 1806 3559 1356 
Q 3559 666 3084 287 
Q 2609 -91 1734 -91 
Q 1441 -91 1130 -33 
Q 819 25 488 141 
L 488 750 
Q 750 597 1062 519 
Q 1375 441 1716 441 
Q 2309 441 2620 675 
Q 2931 909 2931 1356 
Q 2931 1769 2642 2001 
Q 2353 2234 1838 2234 
L 1294 2234 
L 1294 2753 
L 1863 2753 
Q 2328 2753 2575 2939 
Q 2822 3125 2822 3475 
Q 2822 3834 2567 4026 
Q 2313 4219 1838 4219 
Q 1578 4219 1281 4162 
Q 984 4106 628 3988 
L 628 4550 
Q 988 4650 1302 4700 
Q 1616 4750 1894 4750 
Q 2613 4750 3031 4423 
Q 3450 4097 3450 3541 
Q 3450 3153 3228 2886 
Q 3006 2619 2597 2516 
z
" transform="scale(0.015625)"/>
       </defs>
       <use xlink:href="#DejaVuSans-33"/>
       <use xlink:href="#DejaVuSans-30" transform="translate(63.623047 0)"/>
       <use xlink:href="#DejaVuSans-30" transform="translate(127.246094 0)"/>
       <use xlink:href="#DejaVuSans-30" transform="translate(190.869141 0)"/>
      </g>
     </g>
    </g>
    <g id="xtick_5">
     <g id="line2d_9">
      <path d="M 499.123035 372.37101 
L 499.123035 22.318125 
" clip-path="url(#p0f7448f708)" style="fill: none; stroke-dasharray: 0.8,1.32; stroke-dashoffset: 0; stroke: #d8d2c2; stroke-opacity: 0.25; stroke-width: 0.8"/>
     </g>
     <g id="line2d_10">
      <g>
       <use xlink:href="#me4502d30f3" x="499.123035" y="372.37101" style="fill: #1f2a44; stroke: #1f2a44; stroke-width: 0.8"/>
      </g>
     </g>
     <g id="text_5">
      <!-- 4000 -->
      <g style="fill: #1f2a44" transform="translate(486.398035 386.969447) scale(0.1 -0.1)">
       <defs>
        <path id="DejaVuSans-34" d="M 2419 4116 
L 825 1625 
L 2419 1625 
L 2419 4116 
z
M 2253 4666 
L 3047 4666 
L 3047 1625 
L 3713 1625 
L 3713 1100 
L 3047 1100 
L 3047 0 
L 2419 0 
L 2419 1100 
L 313 1100 
L 313 1709 
L 2253 4666 
z
" transform="scale(0.015625)"/>
       </defs>
       <use xlink:href="#DejaVuSans-34"/>
       <use xlink:href="#DejaVuSans-30" transform="translate(63.623047 0)"/>
       <use xlink:href="#DejaVuSans-30" transform="translate(127.246094 0)"/>
       <use xlink:href="#DejaVuSans-30" transform="translate(190.869141 0)"/>
      </g>
     </g>
    </g>
    <g id="xtick_6">
     <g id="line2d_11">
      <path d="M 591.441678 372.37101 
L 591.441678 22.318125 
" clip-path="url(#p0f7448f708)" style="fill: none; stroke-dasharray: 0.8,1.32; stroke-dashoffset: 0; stroke: #d8d2c2; stroke-opacity: 0.25; stroke-width: 0.8"/>
     </g>
     <g id="line2d_12">
      <g>
       <use xlink:href="#me4502d30f3" x="591.441678" y="372.37101" style="fill: #1f2a44; stroke: #1f2a44; stroke-width: 0.8"/>
      </g>
     </g>
     <g id="text_6">
      <!-- 5000 -->
      <g style="fill: #1f2a44" transform="translate(578.716678 386.969447) scale(0.1 -0.1)">
       <defs>
        <path id="DejaVuSans-35" d="M 691 4666 
L 3169 4666 
L 3169 4134 
L 1269 4134 
L 1269 2991 
Q 1406 3038 1543 3061 
Q 1681 3084 1819 3084 
Q 2600 3084 3056 2656 
Q 3513 2228 3513 1497 
Q 3513 744 3044 326 
Q 2575 -91 1722 -91 
Q 1428 -91 1123 -41 
Q 819 9 494 109 
L 494 744 
Q 775 591 1075 516 
Q 1375 441 1709 441 
Q 2250 441 2565 725 
Q 2881 1009 2881 1497 
Q 2881 1984 2565 2268 
Q 2250 2553 1709 2553 
Q 1456 2553 1204 2497 
Q 953 2441 691 2322 
L 691 4666 
z
" transform="scale(0.015625)"/>
       </defs>
       <use xlink:href="#DejaVuSans-35"/>
       <use xlink:href="#DejaVuSans-30" transform="translate(63.623047 0)"/>
       <use xlink:href="#DejaVuSans-30" transform="translate(127.246094 0)"/>
       <use xlink:href="#DejaVuSans-30" transform="translate(190.869141 0)"/>
      </g>
     </g>
    </g>
    <g id="text_7">
     <!-- Impact proxy (median_of_5_indicators) -->
     <g style="fill: #1f2a44" transform="translate(293.479099 400.647572) scale(0.1 -0.1)">
      <defs>
       <path id="DejaVuSans-49" d="M 628 4666 
L 1259 4666 
L 1259 0 
L 628 0 
L 628 4666 
z
" transform="scale(0.015625)"/>
       <path id="DejaVuSans-6d" d="M 3328 2828 
Q 3544 3216 3844 3400 
Q 4144 3584 4550 3584 
Q 5097 3584 5394 3201 
Q 5691 2819 5691 2113 
L 5691 0 
L 5113 0 
L 5113 2094 
Q 5113 2597 4934 2840 
Q 4756 3084 4391 3084 
Q 3944 3084 3684 2787 
Q 3425 2491 3425 1978 
L 3425 0 
L 2847 0 
L 2847 2094 
Q 2847 2600 2669 2842 
Q 2491 3084 2119 3084 
Q 1678 3084 1418 2786 
Q 1159 2488 1159 1978 
L 1159 0 
L 581 0 
L 581 3500 
L 1159 3500 
L 1159 2956 
Q 1356 3278 1631 3431 
Q 1906 3584 2284 3584 
Q 2666 3584 2933 3390 
Q 3200 3197 3328 2828 
z
" transform="scale(0.015625)"/>
       <path id="DejaVuSans-70" d="M 1159 525 
L 1159 -1331 
L 581 -1331 
L 581 3500 
L 1159 3500 
L 1159 2969 
Q 1341 3281 1617 3432 
Q 1894 3584 2278 3584 
Q 2916 3584 3314 3078 
Q 3713 2572 3713 1747 
Q 3713 922 3314 415 
Q 2916 -91 2278 -91 
Q 1894 -91 1617 61 
Q 1341 213 1159 525 
z
M 3116 1747 
Q 3116 2381 2855 2742 
Q 2594 3103 2138 3103 
Q 1681 3103 1420 2742 
Q 1159 2381 1159 1747 
Q 1159 1113 1420 752 
Q 1681 391 2138 391 
Q 2594 391 2855 752 
Q 3116 1113 3116 1747 
z
" transform="scale(0.015625)"/>
       <path id="DejaVuSans-61" d="M 2194 1759 
Q 1497 1759 1228 1600 
Q 959 1441 959 1056 
Q 959 750 1161 570 
Q 1363 391 1709 391 
Q 2188 391 2477 730 
Q 2766 1069 2766 1631 
L 2766 1759 
L 2194 1759 
z
M 3341 1997 
L 3341 0 
L 2766 0 
L 2766 531 
Q 2569 213 2275 61 
Q 1981 -91 1556 -91 
Q 1019 -91 701 211 
Q 384 513 384 1019 
Q 384 1609 779 1909 
Q 1175 2209 1959 2209 
L 2766 2209 
L 2766 2266 
Q 2766 2663 2505 2880 
Q 2244 3097 1772 3097 
Q 1472 3097 1187 3025 
Q 903 2953 641 2809 
L 641 3341 
Q 956 3463 1253 3523 
Q 1550 3584 1831 3584 
Q 2591 3584 2966 3190 
Q 3341 2797 3341 1997 
z
" transform="scale(0.015625)"/>
       <path id="DejaVuSans-63" d="M 3122 3366 
L 3122 2828 
Q 2878 2963 2633 3030 
Q 2388 3097 2138 3097 
Q 1578 3097 1268 2742 
Q 959 2388 959 1747 
Q 959 1106 1268 751 
Q 1578 397 2138 397 
Q 2388 397 2633 464 
Q 2878 531 3122 666 
L 3122 134 
Q 2881 22 2623 -34 
Q 2366 -91 2075 -91 
Q 1284 -91 818 406 
Q 353 903 353 1747 
Q 353 2603 823 3093 
Q 1294 3584 2113 3584 
Q 2378 3584 2631 3529 
Q 2884 3475 3122 3366 
z
" transform="scale(0.015625)"/>
       <path id="DejaVuSans-74" d="M 1172 4494 
L 1172 3500 
L 2356 3500 
L 2356 3053 
L 1172 3053 
L 1172 1153 
Q 1172 725 1289 603 
Q 1406 481 1766 481 
L 2356 481 
L 2356 0 
L 1766 0 
Q 1100 0 847 248 
Q 594 497 594 1153 
L 594 3053 
L 172 3053 
L 172 3500 
L 594 3500 
L 594 4494 
L 1172 4494 
z
" transform="scale(0.015625)"/>
       <path id="DejaVuSans-20" transform="scale(0.015625)"/>
       <path id="DejaVuSans-72" d="M 2631 2963 
Q 2534 3019 2420 3045 
Q 2306 3072 2169 3072 
Q 1681 3072 1420 2755 
Q 1159 2438 1159 1844 
L 1159 0 
L 581 0 
L 581 3500 
L 1159 3500 
L 1159 2956 
Q 1341 3275 1631 3429 
Q 1922 3584 2338 3584 
Q 2397 3584 2469 3576 
Q 2541 3569 2628 3553 
L 2631 2963 
z
" transform="scale(0.015625)"/>
       <path id="DejaVuSans-6f" d="M 1959 3097 
Q 1497 3097 1228 2736 
Q 959 2375 959 1747 
Q 959 1119 1226 758 
Q 1494 397 1959 397 
Q 2419 397 2687 759 
Q 2956 1122 2956 1747 
Q 2956 2369 2687 2733 
Q 2419 3097 1959 3097 
z
M 1959 3584 
Q 2709 3584 3137 3096 
Q 3566 2609 3566 1747 
Q 3566 888 3137 398 
Q 2709 -91 1959 -91 
Q 1206 -91 779 398 
Q 353 888 353 1747 
Q 353 2609 779 3096 
Q 1206 3584 1959 3584 
z
" transform="scale(0.015625)"/>
       <path id="DejaVuSans-78" d="M 3513 3500 
L 2247 1797 
L 3578 0 
L 2900 0 
L 1881 1375 
L 863 0 
L 184 0 
L 1544 1831 
L 300 3500 
L 978 3500 
L 1906 2253 
L 2834 3500 
L 3513 3500 
z
" transform="scale(0.015625)"/>
       <path id="DejaVuSans-79" d="M 2059 -325 
Q 1816 -950 1584 -1140 
Q 1353 -1331 966 -1331 
L 506 -1331 
L 506 -850 
L 844 -850 
Q 1081 -850 1212 -737 
Q 1344 -625 1503 -206 
L 1606 56 
L 191 3500 
L 800 3500 
L 1894 763 
L 2988 3500 
L 3597 3500 
L 2059 -325 
z
" transform="scale(0.015625)"/>
       <path id="DejaVuSans-28" d="M 1984 4856 
Q 1566 4138 1362 3434 
Q 1159 2731 1159 2009 
Q 1159 1288 1364 580 
Q 1569 -128 1984 -844 
L 1484 -844 
Q 1016 -109 783 600 
Q 550 1309 550 2009 
Q 550 2706 781 3412 
Q 1013 4119 1484 4856 
L 1984 4856 
z
" transform="scale(0.015625)"/>
       <path id="DejaVuSans-65" d="M 3597 1894 
L 3597 1613 
L 953 1613 
Q 991 1019 1311 708 
Q 1631 397 2203 397 
Q 2534 397 2845 478 
Q 3156 559 3463 722 
L 3463 178 
Q 3153 47 2828 -22 
Q 2503 -91 2169 -91 
Q 1331 -91 842 396 
Q 353 884 353 1716 
Q 353 2575 817 3079 
Q 1281 3584 2069 3584 
Q 2775 3584 3186 3129 
Q 3597 2675 3597 1894 
z
M 3022 2063 
Q 3016 2534 2758 2815 
Q 2500 3097 2075 3097 
Q 1594 3097 1305 2825 
Q 1016 2553 972 2059 
L 3022 2063 
z
" transform="scale(0.015625)"/>
       <path id="DejaVuSans-64" d="M 2906 2969 
L 2906 4863 
L 3481 4863 
L 3481 0 
L 2906 0 
L 2906 525 
Q 2725 213 2448 61 
Q 2172 -91 1784 -91 
Q 1150 -91 751 415 
Q 353 922 353 1747 
Q 353 2572 751 3078 
Q 1150 3584 1784 3584 
Q 2172 3584 2448 3432 
Q 2725 3281 2906 2969 
z
M 947 1747 
Q 947 1113 1208 752 
Q 1469 391 1925 391 
Q 2381 391 2643 752 
Q 2906 1113 2906 1747 
Q 2906 2381 2643 2742 
Q 2381 3103 1925 3103 
Q 1469 3103 1208 2742 
Q 947 2381 947 1747 
z
" transform="scale(0.015625)"/>
       <path id="DejaVuSans-69" d="M 603 3500 
L 1178 3500 
L 1178 0 
L 603 0 
L 603 3500 
z
M 603 4863 
L 1178 4863 
L 1178 4134 
L 603 4134 
L 603 4863 
z
" transform="scale(0.015625)"/>
       <path id="DejaVuSans-6e" d="M 3513 2113 
L 3513 0 
L 2938 0 
L 2938 2094 
Q 2938 2591 2744 2837 
Q 2550 3084 2163 3084 
Q 1697 3084 1428 2787 
Q 1159 2491 1159 1978 
L 1159 0 
L 581 0 
L 581 3500 
L 1159 3500 
L 1159 2956 
Q 1366 3272 1645 3428 
Q 1925 3584 2291 3584 
Q 2894 3584 3203 3211 
Q 3513 2838 3513 2113 
z
" transform="scale(0.015625)"/>
       <path id="DejaVuSans-5f" d="M 3263 -1063 
L 3263 -1509 
L -63 -1509 
L -63 -1063 
L 3263 -1063 
z
" transform="scale(0.015625)"/>
       <path id="DejaVuSans-66" d="M 2375 4863 
L 2375 4384 
L 1825 4384 
Q 1516 4384 1395 4259 
Q 1275 4134 1275 3809 
L 1275 3500 
L 2222 3500 
L 2222 3053 
L 1275 3053 
L 1275 0 
L 697 0 
L 697 3053 
L 147 3053 
L 147 3500 
L 697 3500 
L 697 3744 
Q 697 4328 969 4595 
Q 1241 4863 1831 4863 
L 2375 4863 
z
" transform="scale(0.015625)"/>
       <path id="DejaVuSans-73" d="M 2834 3397 
L 2834 2853 
Q 2591 2978 2328 3040 
Q 2066 3103 1784 3103 
Q 1356 3103 1142 2972 
Q 928 2841 928 2578 
Q 928 2378 1081 2264 
Q 1234 2150 1697 2047 
L 1894 2003 
Q 2506 1872 2764 1633 
Q 3022 1394 3022 966 
Q 3022 478 2636 193 
Q 2250 -91 1575 -91 
Q 1294 -91 989 -36 
Q 684 19 347 128 
L 347 722 
Q 666 556 975 473 
Q 1284 391 1588 391 
Q 1994 391 2212 530 
Q 2431 669 2431 922 
Q 2431 1156 2273 1281 
Q 2116 1406 1581 1522 
L 1381 1569 
Q 847 1681 609 1914 
Q 372 2147 372 2553 
Q 372 3047 722 3315 
Q 1072 3584 1716 3584 
Q 2034 3584 2315 3537 
Q 2597 3491 2834 3397 
z
" transform="scale(0.015625)"/>
       <path id="DejaVuSans-29" d="M 513 4856 
L 1013 4856 
Q 1481 4119 1714 3412 
Q 1947 2706 1947 2009 
Q 1947 1309 1714 600 
Q 1481 -109 1013 -844 
L 513 -844 
Q 928 -128 1133 580 
Q 1338 1288 1338 2009 
Q 1338 2731 1133 3434 
Q 928 4138 513 4856 
z
" transform="scale(0.015625)"/>
      </defs>
      <use xlink:href="#DejaVuSans-49"/>
      <use xlink:href="#DejaVuSans-6d" transform="translate(29.492188 0)"/>
      <use xlink:href="#DejaVuSans-70" transform="translate(126.904297 0)"/>
      <use xlink:href="#DejaVuSans-61" transform="translate(190.380859 0)"/>
      <use xlink:href="#DejaVuSans-63" transform="translate(251.660156 0)"/>
      <use xlink:href="#DejaVuSans-74" transform="translate(306.640625 0)"/>
      <use xlink:href="#DejaVuSans-20" transform="translate(345.849609 0)"/>
      <use xlink:href="#DejaVuSans-70" transform="translate(377.636719 0)"/>
      <use xlink:href="#DejaVuSans-72" transform="translate(441.113281 0)"/>
      <use xlink:href="#DejaVuSans-6f" transform="translate(479.976562 0)"/>
      <use xlink:href="#DejaVuSans-78" transform="translate(538.033203 0)"/>
      <use xlink:href="#DejaVuSans-79" transform="translate(597.212891 0)"/>
      <use xlink:href="#DejaVuSans-20" transform="translate(656.392578 0)"/>
      <use xlink:href="#DejaVuSans-28" transform="translate(688.179688 0)"/>
      <use xlink:href="#DejaVuSans-6d" transform="translate(727.193359 0)"/>
      <use xlink:href="#DejaVuSans-65" transform="translate(824.605469 0)"/>
      <use xlink:href="#DejaVuSans-64" transform="translate(886.128906 0)"/>
      <use xlink:href="#DejaVuSans-69" transform="translate(949.605469 0)"/>
      <use xlink:href="#DejaVuSans-61" transform="translate(977.388672 0)"/>
      <use xlink:href="#DejaVuSans-6e" transform="translate(1038.667969 0)"/>
      <use xlink:href="#DejaVuSans-5f" transform="translate(1102.046875 0)"/>
      <use xlink:href="#DejaVuSans-6f" transform="translate(1152.046875 0)"/>
      <use xlink:href="#DejaVuSans-66" transform="translate(1213.228516 0)"/>
      <use xlink:href="#DejaVuSans-5f" transform="translate(1248.433594 0)"/>
      <use xlink:href="#DejaVuSans-35" transform="translate(1298.433594 0)"/>
      <use xlink:href="#DejaVuSans-5f" transform="translate(1362.056641 0)"/>
      <use xlink:href="#DejaVuSans-69" transform="translate(1412.056641 0)"/>
      <use xlink:href="#DejaVuSans-6e" transform="translate(1439.839844 0)"/>
      <use xlink:href="#DejaVuSans-64" transform="translate(1503.21875 0)"/>
      <use xlink:href="#DejaVuSans-69" transform="translate(1566.695312 0)"/>
      <use xlink:href="#DejaVuSans-63" transform="translate(1594.478516 0)"/>
      <use xlink:href="#DejaVuSans-61" transform="translate(1649.458984 0)"/>
      <use xlink:href="#DejaVuSans-74" transform="translate(1710.738281 0)"/>
      <use xlink:href="#DejaVuSans-6f" transform="translate(1749.947266 0)"/>
      <use xlink:href="#DejaVuSans-72" transform="translate(1811.128906 0)"/>
      <use xlink:href="#DejaVuSans-73" transform="translate(1852.242188 0)"/>
      <use xlink:href="#DejaVuSans-29" transform="translate(1904.341797 0)"/>
     </g>
    </g>
   </g>
   <g id="matplotlib.axis_2">
    <g id="ytick_1">
     <g id="line2d_13">
      <path d="M 111.790938 356.459515 
L 669.506322 356.459515 
" clip-path="url(#p0f7448f708)" style="fill: none; stroke-dasharray: 0.8,1.32; stroke-dashoffset: 0; stroke: #d8d2c2; stroke-opacity: 0.45; stroke-width: 0.8"/>
     </g>
     <g id="line2d_14">
      <defs>
       <path id="m872dc4f649" d="M 0 0 
L -3.5 0 
" style="stroke: #1f2a44; stroke-width: 0.8"/>
      </defs>
      <g>
       <use xlink:href="#m872dc4f649" x="111.790938" y="356.459515" style="fill: #1f2a44; stroke: #1f2a44; stroke-width: 0.8"/>
      </g>
     </g>
     <g id="text_8">
      <!-- MANGO (FRUTA FRESCA) -->
      <g style="fill: #1f2a44" transform="translate(17.912188 359.118968) scale(0.07 -0.07)">
       <defs>
        <path id="DejaVuSans-4d" d="M 628 4666 
L 1569 4666 
L 2759 1491 
L 3956 4666 
L 4897 4666 
L 4897 0 
L 4281 0 
L 4281 4097 
L 3078 897 
L 2444 897 
L 1241 4097 
L 1241 0 
L 628 0 
L 628 4666 
z
" transform="scale(0.015625)"/>
        <path id="DejaVuSans-41" d="M 2188 4044 
L 1331 1722 
L 3047 1722 
L 2188 4044 
z
M 1831 4666 
L 2547 4666 
L 4325 0 
L 3669 0 
L 3244 1197 
L 1141 1197 
L 716 0 
L 50 0 
L 1831 4666 
z
" transform="scale(0.015625)"/>
        <path id="DejaVuSans-4e" d="M 628 4666 
L 1478 4666 
L 3547 763 
L 3547 4666 
L 4159 4666 
L 4159 0 
L 3309 0 
L 1241 3903 
L 1241 0 
L 628 0 
L 628 4666 
z
" transform="scale(0.015625)"/>
        <path id="DejaVuSans-47" d="M 3809 666 
L 3809 1919 
L 2778 1919 
L 2778 2438 
L 4434 2438 
L 4434 434 
Q 4069 175 3628 42 
Q 3188 -91 2688 -91 
Q 1594 -91 976 548 
Q 359 1188 359 2328 
Q 359 3472 976 4111 
Q 1594 4750 2688 4750 
Q 3144 4750 3555 4637 
Q 3966 4525 4313 4306 
L 4313 3634 
Q 3963 3931 3569 4081 
Q 3175 4231 2741 4231 
Q 1884 4231 1454 3753 
Q 1025 3275 1025 2328 
Q 1025 1384 1454 906 
Q 1884 428 2741 428 
Q 3075 428 3337 486 
Q 3600 544 3809 666 
z
" transform="scale(0.015625)"/>
        <path id="DejaVuSans-4f" d="M 2522 4238 
Q 1834 4238 1429 3725 
Q 1025 3213 1025 2328 
Q 1025 1447 1429 934 
Q 1834 422 2522 422 
Q 3209 422 3611 934 
Q 4013 1447 4013 2328 
Q 4013 3213 3611 3725 
Q 3209 4238 2522 4238 
z
M 2522 4750 
Q 3503 4750 4090 4092 
Q 4678 3434 4678 2328 
Q 4678 1225 4090 567 
Q 3503 -91 2522 -91 
Q 1538 -91 948 565 
Q 359 1222 359 2328 
Q 359 3434 948 4092 
Q 1538 4750 2522 4750 
z
" transform="scale(0.015625)"/>
        <path id="DejaVuSans-46" d="M 628 4666 
L 3309 4666 
L 3309 4134 
L 1259 4134 
L 1259 2759 
L 3109 2759 
L 3109 2228 
L 1259 2228 
L 1259 0 
L 628 0 
L 628 4666 
z
" transform="scale(0.015625)"/>
        <path id="DejaVuSans-52" d="M 2841 2188 
Q 3044 2119 3236 1894 
Q 3428 1669 3622 1275 
L 4263 0 
L 3584 0 
L 2988 1197 
Q 2756 1666 2539 1819 
Q 2322 1972 1947 1972 
L 1259 1972 
L 1259 0 
L 628 0 
L 628 4666 
L 2053 4666 
Q 2853 4666 3247 4331 
Q 3641 3997 3641 3322 
Q 3641 2881 3436 2590 
Q 3231 2300 2841 2188 
z
M 1259 4147 
L 1259 2491 
L 2053 2491 
Q 2509 2491 2742 2702 
Q 2975 2913 2975 3322 
Q 2975 3731 2742 3939 
Q 2509 4147 2053 4147 
L 1259 4147 
z
" transform="scale(0.015625)"/>
        <path id="DejaVuSans-55" d="M 556 4666 
L 1191 4666 
L 1191 1831 
Q 1191 1081 1462 751 
Q 1734 422 2344 422 
Q 2950 422 3222 751 
Q 3494 1081 3494 1831 
L 3494 4666 
L 4128 4666 
L 4128 1753 
Q 4128 841 3676 375 
Q 3225 -91 2344 -91 
Q 1459 -91 1007 375 
Q 556 841 556 1753 
L 556 4666 
z
" transform="scale(0.015625)"/>
        <path id="DejaVuSans-54" d="M -19 4666 
L 3928 4666 
L 3928 4134 
L 2272 4134 
L 2272 0 
L 1638 0 
L 1638 4134 
L -19 4134 
L -19 4666 
z
" transform="scale(0.015625)"/>
        <path id="DejaVuSans-45" d="M 628 4666 
L 3578 4666 
L 3578 4134 
L 1259 4134 
L 1259 2753 
L 3481 2753 
L 3481 2222 
L 1259 2222 
L 1259 531 
L 3634 531 
L 3634 0 
L 628 0 
L 628 4666 
z
" transform="scale(0.015625)"/>
        <path id="DejaVuSans-53" d="M 3425 4513 
L 3425 3897 
Q 3066 4069 2747 4153 
Q 2428 4238 2131 4238 
Q 1616 4238 1336 4038 
Q 1056 3838 1056 3469 
Q 1056 3159 1242 3001 
Q 1428 2844 1947 2747 
L 2328 2669 
Q 3034 2534 3370 2195 
Q 3706 1856 3706 1288 
Q 3706 609 3251 259 
Q 2797 -91 1919 -91 
Q 1588 -91 1214 -16 
Q 841 59 441 206 
L 441 856 
Q 825 641 1194 531 
Q 1563 422 1919 422 
Q 2459 422 2753 634 
Q 3047 847 3047 1241 
Q 3047 1584 2836 1778 
Q 2625 1972 2144 2069 
L 1759 2144 
Q 1053 2284 737 2584 
Q 422 2884 422 3419 
Q 422 4038 858 4394 
Q 1294 4750 2059 4750 
Q 2388 4750 2728 4690 
Q 3069 4631 3425 4513 
z
" transform="scale(0.015625)"/>
        <path id="DejaVuSans-43" d="M 4122 4306 
L 4122 3641 
Q 3803 3938 3442 4084 
Q 3081 4231 2675 4231 
Q 1875 4231 1450 3742 
Q 1025 3253 1025 2328 
Q 1025 1406 1450 917 
Q 1875 428 2675 428 
Q 3081 428 3442 575 
Q 3803 722 4122 1019 
L 4122 359 
Q 3791 134 3420 21 
Q 3050 -91 2638 -91 
Q 1578 -91 968 557 
Q 359 1206 359 2328 
Q 359 3453 968 4101 
Q 1578 4750 2638 4750 
Q 3056 4750 3426 4639 
Q 3797 4528 4122 4306 
z
" transform="scale(0.015625)"/>
       </defs>
       <use xlink:href="#DejaVuSans-4d"/>
       <use xlink:href="#DejaVuSans-41" transform="translate(86.279297 0)"/>
       <use xlink:href="#DejaVuSans-4e" transform="translate(154.6875 0)"/>
       <use xlink:href="#DejaVuSans-47" transform="translate(229.492188 0)"/>
       <use xlink:href="#DejaVuSans-4f" transform="translate(306.982422 0)"/>
       <use xlink:href="#DejaVuSans-20" transform="translate(385.693359 0)"/>
       <use xlink:href="#DejaVuSans-28" transform="translate(417.480469 0)"/>
       <use xlink:href="#DejaVuSans-46" transform="translate(456.494141 0)"/>
       <use xlink:href="#DejaVuSans-52" transform="translate(514.013672 0)"/>
       <use xlink:href="#DejaVuSans-55" transform="translate(583.496094 0)"/>
       <use xlink:href="#DejaVuSans-54" transform="translate(656.689453 0)"/>
       <use xlink:href="#DejaVuSans-41" transform="translate(710.023438 0)"/>
       <use xlink:href="#DejaVuSans-20" transform="translate(778.431641 0)"/>
       <use xlink:href="#DejaVuSans-46" transform="translate(810.21875 0)"/>
       <use xlink:href="#DejaVuSans-52" transform="translate(867.738281 0)"/>
       <use xlink:href="#DejaVuSans-45" transform="translate(937.220703 0)"/>
       <use xlink:href="#DejaVuSans-53" transform="translate(1000.404297 0)"/>
       <use xlink:href="#DejaVuSans-43" transform="translate(1063.880859 0)"/>
       <use xlink:href="#DejaVuSans-41" transform="translate(1133.705078 0)"/>
       <use xlink:href="#DejaVuSans-29" transform="translate(1202.113281 0)"/>
      </g>
     </g>
    </g>
    <g id="ytick_2">
     <g id="line2d_15">
      <path d="M 111.790938 338.780076 
L 669.506322 338.780076 
" clip-path="url(#p0f7448f708)" style="fill: none; stroke-dasharray: 0.8,1.32; stroke-dashoffset: 0; stroke: #d8d2c2; stroke-opacity: 0.45; stroke-width: 0.8"/>
     </g>
     <g id="line2d_16">
      <g>
       <use xlink:href="#m872dc4f649" x="111.790938" y="338.780076" style="fill: #1f2a44; stroke: #1f2a44; stroke-width: 0.8"/>
      </g>
     </g>
     <g id="text_9">
      <!-- AGUACATE (FRUTA FRESCA) -->
      <g style="fill: #1f2a44" transform="translate(7.2 341.439529) scale(0.07 -0.07)">
       <use xlink:href="#DejaVuSans-41"/>
       <use xlink:href="#DejaVuSans-47" transform="translate(66.658203 0)"/>
       <use xlink:href="#DejaVuSans-55" transform="translate(144.148438 0)"/>
       <use xlink:href="#DejaVuSans-41" transform="translate(217.341797 0)"/>
       <use xlink:href="#DejaVuSans-43" transform="translate(284 0)"/>
       <use xlink:href="#DejaVuSans-41" transform="translate(353.824219 0)"/>
       <use xlink:href="#DejaVuSans-54" transform="translate(414.482422 0)"/>
       <use xlink:href="#DejaVuSans-45" transform="translate(475.566406 0)"/>
       <use xlink:href="#DejaVuSans-20" transform="translate(538.75 0)"/>
       <use xlink:href="#DejaVuSans-28" transform="translate(570.537109 0)"/>
       <use xlink:href="#DejaVuSans-46" transform="translate(609.550781 0)"/>
       <use xlink:href="#DejaVuSans-52" transform="translate(667.070312 0)"/>
       <use xlink:href="#DejaVuSans-55" transform="translate(736.552734 0)"/>
       <use xlink:href="#DejaVuSans-54" transform="translate(809.746094 0)"/>
       <use xlink:href="#DejaVuSans-41" transform="translate(863.080078 0)"/>
       <use xlink:href="#DejaVuSans-20" transform="translate(931.488281 0)"/>
       <use xlink:href="#DejaVuSans-46" transform="translate(963.275391 0)"/>
       <use xlink:href="#DejaVuSans-52" transform="translate(1020.794922 0)"/>
       <use xlink:href="#DejaVuSans-45" transform="translate(1090.277344 0)"/>
       <use xlink:href="#DejaVuSans-53" transform="translate(1153.460938 0)"/>
       <use xlink:href="#DejaVuSans-43" transform="translate(1216.9375 0)"/>
       <use xlink:href="#DejaVuSans-41" transform="translate(1286.761719 0)"/>
       <use xlink:href="#DejaVuSans-29" transform="translate(1355.169922 0)"/>
      </g>
     </g>
    </g>
    <g id="ytick_3">
     <g id="line2d_17">
      <path d="M 111.790938 321.100638 
L 669.506322 321.100638 
" clip-path="url(#p0f7448f708)" style="fill: none; stroke-dasharray: 0.8,1.32; stroke-dashoffset: 0; stroke: #d8d2c2; stroke-opacity: 0.45; stroke-width: 0.8"/>
     </g>
     <g id="line2d_18">
      <g>
       <use xlink:href="#m872dc4f649" x="111.790938" y="321.100638" style="fill: #1f2a44; stroke: #1f2a44; stroke-width: 0.8"/>
      </g>
     </g>
     <g id="text_10">
      <!-- LIMÓN (FRUTA FRESCA) -->
      <g style="fill: #1f2a44" transform="translate(22.159219 324.072356) scale(0.07 -0.07)">
       <defs>
        <path id="DejaVuSans-4c" d="M 628 4666 
L 1259 4666 
L 1259 531 
L 3531 531 
L 3531 0 
L 628 0 
L 628 4666 
z
" transform="scale(0.015625)"/>
        <path id="DejaVuSans-d3" d="M 2522 4238 
Q 1834 4238 1429 3725 
Q 1025 3213 1025 2328 
Q 1025 1447 1429 934 
Q 1834 422 2522 422 
Q 3209 422 3611 934 
Q 4013 1447 4013 2328 
Q 4013 3213 3611 3725 
Q 3209 4238 2522 4238 
z
M 2522 4750 
Q 3503 4750 4090 4092 
Q 4678 3434 4678 2328 
Q 4678 1225 4090 567 
Q 3503 -91 2522 -91 
Q 1538 -91 948 565 
Q 359 1222 359 2328 
Q 359 3434 948 4092 
Q 1538 4750 2522 4750 
z
M 2692 5921 
L 3270 5921 
L 2558 5096 
L 2079 5096 
L 2692 5921 
z
" transform="scale(0.015625)"/>
       </defs>
       <use xlink:href="#DejaVuSans-4c"/>
       <use xlink:href="#DejaVuSans-49" transform="translate(55.712891 0)"/>
       <use xlink:href="#DejaVuSans-4d" transform="translate(85.205078 0)"/>
       <use xlink:href="#DejaVuSans-d3" transform="translate(171.484375 0)"/>
       <use xlink:href="#DejaVuSans-4e" transform="translate(250.195312 0)"/>
       <use xlink:href="#DejaVuSans-20" transform="translate(325 0)"/>
       <use xlink:href="#DejaVuSans-28" transform="translate(356.787109 0)"/>
       <use xlink:href="#DejaVuSans-46" transform="translate(395.800781 0)"/>
       <use xlink:href="#DejaVuSans-52" transform="translate(453.320312 0)"/>
       <use xlink:href="#DejaVuSans-55" transform="translate(522.802734 0)"/>
       <use xlink:href="#DejaVuSans-54" transform="translate(595.996094 0)"/>
       <use xlink:href="#DejaVuSans-41" transform="translate(649.330078 0)"/>
       <use xlink:href="#DejaVuSans-20" transform="translate(717.738281 0)"/>
       <use xlink:href="#DejaVuSans-46" transform="translate(749.525391 0)"/>
       <use xlink:href="#DejaVuSans-52" transform="translate(807.044922 0)"/>
       <use xlink:href="#DejaVuSans-45" transform="translate(876.527344 0)"/>
       <use xlink:href="#DejaVuSans-53" transform="translate(939.710938 0)"/>
       <use xlink:href="#DejaVuSans-43" transform="translate(1003.1875 0)"/>
       <use xlink:href="#DejaVuSans-41" transform="translate(1073.011719 0)"/>
       <use xlink:href="#DejaVuSans-29" transform="translate(1141.419922 0)"/>
      </g>
     </g>
    </g>
    <g id="ytick_4">
     <g id="line2d_19">
      <path d="M 111.790938 303.421199 
L 669.506322 303.421199 
" clip-path="url(#p0f7448f708)" style="fill: none; stroke-dasharray: 0.8,1.32; stroke-dashoffset: 0; stroke: #d8d2c2; stroke-opacity: 0.45; stroke-width: 0.8"/>
     </g>
     <g id="line2d_20">
      <g>
       <use xlink:href="#m872dc4f649" x="111.790938" y="303.421199" style="fill: #1f2a44; stroke: #1f2a44; stroke-width: 0.8"/>
      </g>
     </g>
     <g id="text_11">
      <!-- BANANO (FRUTA FRESCA) -->
      <g style="fill: #1f2a44" transform="translate(14.547813 306.080652) scale(0.07 -0.07)">
       <defs>
        <path id="DejaVuSans-42" d="M 1259 2228 
L 1259 519 
L 2272 519 
Q 2781 519 3026 730 
Q 3272 941 3272 1375 
Q 3272 1813 3026 2020 
Q 2781 2228 2272 2228 
L 1259 2228 
z
M 1259 4147 
L 1259 2741 
L 2194 2741 
Q 2656 2741 2882 2914 
Q 3109 3088 3109 3444 
Q 3109 3797 2882 3972 
Q 2656 4147 2194 4147 
L 1259 4147 
z
M 628 4666 
L 2241 4666 
Q 2963 4666 3353 4366 
Q 3744 4066 3744 3513 
Q 3744 3084 3544 2831 
Q 3344 2578 2956 2516 
Q 3422 2416 3680 2098 
Q 3938 1781 3938 1306 
Q 3938 681 3513 340 
Q 3088 0 2303 0 
L 628 0 
L 628 4666 
z
" transform="scale(0.015625)"/>
       </defs>
       <use xlink:href="#DejaVuSans-42"/>
       <use xlink:href="#DejaVuSans-41" transform="translate(68.603516 0)"/>
       <use xlink:href="#DejaVuSans-4e" transform="translate(137.011719 0)"/>
       <use xlink:href="#DejaVuSans-41" transform="translate(211.816406 0)"/>
       <use xlink:href="#DejaVuSans-4e" transform="translate(280.224609 0)"/>
       <use xlink:href="#DejaVuSans-4f" transform="translate(355.029297 0)"/>
       <use xlink:href="#DejaVuSans-20" transform="translate(433.740234 0)"/>
       <use xlink:href="#DejaVuSans-28" transform="translate(465.527344 0)"/>
       <use xlink:href="#DejaVuSans-46" transform="translate(504.541016 0)"/>
       <use xlink:href="#DejaVuSans-52" transform="translate(562.060547 0)"/>
       <use xlink:href="#DejaVuSans-55" transform="translate(631.542969 0)"/>
       <use xlink:href="#DejaVuSans-54" transform="translate(704.736328 0)"/>
       <use xlink:href="#DejaVuSans-41" transform="translate(758.070312 0)"/>
       <use xlink:href="#DejaVuSans-20" transform="translate(826.478516 0)"/>
       <use xlink:href="#DejaVuSans-46" transform="translate(858.265625 0)"/>
       <use xlink:href="#DejaVuSans-52" transform="translate(915.785156 0)"/>
       <use xlink:href="#DejaVuSans-45" transform="translate(985.267578 0)"/>
       <use xlink:href="#DejaVuSans-53" transform="translate(1048.451172 0)"/>
       <use xlink:href="#DejaVuSans-43" transform="translate(1111.927734 0)"/>
       <use xlink:href="#DejaVuSans-41" transform="translate(1181.751953 0)"/>
       <use xlink:href="#DejaVuSans-29" transform="translate(1250.160156 0)"/>
      </g>
     </g>
    </g>
    <g id="ytick_5">
     <g id="line2d_21">
      <path d="M 111.790938 285.74176 
L 669.506322 285.74176 
" clip-path="url(#p0f7448f708)" style="fill: none; stroke-dasharray: 0.8,1.32; stroke-dashoffset: 0; stroke: #d8d2c2; stroke-opacity: 0.45; stroke-width: 0.8"/>
     </g>
     <g id="line2d_22">
      <g>
       <use xlink:href="#m872dc4f649" x="111.790938" y="285.74176" style="fill: #1f2a44; stroke: #1f2a44; stroke-width: 0.8"/>
      </g>
     </g>
     <g id="text_12">
      <!-- CHIRIMOYA -->
      <g style="fill: #1f2a44" transform="translate(65.958438 288.401214) scale(0.07 -0.07)">
       <defs>
        <path id="DejaVuSans-48" d="M 628 4666 
L 1259 4666 
L 1259 2753 
L 3553 2753 
L 3553 4666 
L 4184 4666 
L 4184 0 
L 3553 0 
L 3553 2222 
L 1259 2222 
L 1259 0 
L 628 0 
L 628 4666 
z
" transform="scale(0.015625)"/>
        <path id="DejaVuSans-59" d="M -13 4666 
L 666 4666 
L 1959 2747 
L 3244 4666 
L 3922 4666 
L 2272 2222 
L 2272 0 
L 1638 0 
L 1638 2222 
L -13 4666 
z
" transform="scale(0.015625)"/>
       </defs>
       <use xlink:href="#DejaVuSans-43"/>
       <use xlink:href="#DejaVuSans-48" transform="translate(69.824219 0)"/>
       <use xlink:href="#DejaVuSans-49" transform="translate(145.019531 0)"/>
       <use xlink:href="#DejaVuSans-52" transform="translate(174.511719 0)"/>
       <use xlink:href="#DejaVuSans-49" transform="translate(243.994141 0)"/>
       <use xlink:href="#DejaVuSans-4d" transform="translate(273.486328 0)"/>
       <use xlink:href="#DejaVuSans-4f" transform="translate(359.765625 0)"/>
       <use xlink:href="#DejaVuSans-59" transform="translate(432.976562 0)"/>
       <use xlink:href="#DejaVuSans-41" transform="translate(486.310547 0)"/>
      </g>
     </g>
    </g>
    <g id="ytick_6">
     <g id="line2d_23">
      <path d="M 111.790938 268.062322 
L 669.506322 268.062322 
" clip-path="url(#p0f7448f708)" style="fill: none; stroke-dasharray: 0.8,1.32; stroke-dashoffset: 0; stroke: #d8d2c2; stroke-opacity: 0.45; stroke-width: 0.8"/>
     </g>
     <g id="line2d_24">
      <g>
       <use xlink:href="#m872dc4f649" x="111.790938" y="268.062322" style="fill: #1f2a44; stroke: #1f2a44; stroke-width: 0.8"/>
      </g>
     </g>
     <g id="text_13">
      <!-- CIRUELO -->
      <g style="fill: #1f2a44" transform="translate(74.270938 270.721775) scale(0.07 -0.07)">
       <use xlink:href="#DejaVuSans-43"/>
       <use xlink:href="#DejaVuSans-49" transform="translate(69.824219 0)"/>
       <use xlink:href="#DejaVuSans-52" transform="translate(99.316406 0)"/>
       <use xlink:href="#DejaVuSans-55" transform="translate(168.798828 0)"/>
       <use xlink:href="#DejaVuSans-45" transform="translate(241.992188 0)"/>
       <use xlink:href="#DejaVuSans-4c" transform="translate(305.175781 0)"/>
       <use xlink:href="#DejaVuSans-4f" transform="translate(357.263672 0)"/>
      </g>
     </g>
    </g>
    <g id="ytick_7">
     <g id="line2d_25">
      <path d="M 111.790938 250.382883 
L 669.506322 250.382883 
" clip-path="url(#p0f7448f708)" style="fill: none; stroke-dasharray: 0.8,1.32; stroke-dashoffset: 0; stroke: #d8d2c2; stroke-opacity: 0.45; stroke-width: 0.8"/>
     </g>
     <g id="line2d_26">
      <g>
       <use xlink:href="#m872dc4f649" x="111.790938" y="250.382883" style="fill: #1f2a44; stroke: #1f2a44; stroke-width: 0.8"/>
      </g>
     </g>
     <g id="text_14">
      <!-- ARÁNDANO -->
      <g style="fill: #1f2a44" transform="translate(64.590156 253.042336) scale(0.07 -0.07)">
       <defs>
        <path id="DejaVuSans-c1" d="M 2188 4044 
L 1331 1722 
L 3047 1722 
L 2188 4044 
z
M 1831 4666 
L 2547 4666 
L 4325 0 
L 3669 0 
L 3244 1197 
L 1141 1197 
L 716 0 
L 50 0 
L 1831 4666 
z
M 2356 5921 
L 2934 5921 
L 2222 5096 
L 1743 5096 
L 2356 5921 
z
" transform="scale(0.015625)"/>
        <path id="DejaVuSans-44" d="M 1259 4147 
L 1259 519 
L 2022 519 
Q 2988 519 3436 956 
Q 3884 1394 3884 2338 
Q 3884 3275 3436 3711 
Q 2988 4147 2022 4147 
L 1259 4147 
z
M 628 4666 
L 1925 4666 
Q 3281 4666 3915 4102 
Q 4550 3538 4550 2338 
Q 4550 1131 3912 565 
Q 3275 0 1925 0 
L 628 0 
L 628 4666 
z
" transform="scale(0.015625)"/>
       </defs>
       <use xlink:href="#DejaVuSans-41"/>
       <use xlink:href="#DejaVuSans-52" transform="translate(68.408203 0)"/>
       <use xlink:href="#DejaVuSans-c1" transform="translate(133.890625 0)"/>
       <use xlink:href="#DejaVuSans-4e" transform="translate(202.298828 0)"/>
       <use xlink:href="#DejaVuSans-44" transform="translate(277.103516 0)"/>
       <use xlink:href="#DejaVuSans-41" transform="translate(352.355469 0)"/>
       <use xlink:href="#DejaVuSans-4e" transform="translate(420.763672 0)"/>
       <use xlink:href="#DejaVuSans-4f" transform="translate(495.568359 0)"/>
      </g>
     </g>
    </g>
    <g id="ytick_8">
     <g id="line2d_27">
      <path d="M 111.790938 232.703445 
L 669.506322 232.703445 
" clip-path="url(#p0f7448f708)" style="fill: none; stroke-dasharray: 0.8,1.32; stroke-dashoffset: 0; stroke: #d8d2c2; stroke-opacity: 0.45; stroke-width: 0.8"/>
     </g>
     <g id="line2d_28">
      <g>
       <use xlink:href="#m872dc4f649" x="111.790938" y="232.703445" style="fill: #1f2a44; stroke: #1f2a44; stroke-width: 0.8"/>
      </g>
     </g>
     <g id="text_15">
      <!-- BABACO -->
      <g style="fill: #1f2a44" transform="translate(75.332969 235.362898) scale(0.07 -0.07)">
       <use xlink:href="#DejaVuSans-42"/>
       <use xlink:href="#DejaVuSans-41" transform="translate(68.603516 0)"/>
       <use xlink:href="#DejaVuSans-42" transform="translate(137.011719 0)"/>
       <use xlink:href="#DejaVuSans-41" transform="translate(205.615234 0)"/>
       <use xlink:href="#DejaVuSans-43" transform="translate(272.273438 0)"/>
       <use xlink:href="#DejaVuSans-4f" transform="translate(342.097656 0)"/>
      </g>
     </g>
    </g>
    <g id="ytick_9">
     <g id="line2d_29">
      <path d="M 111.790938 215.024006 
L 669.506322 215.024006 
" clip-path="url(#p0f7448f708)" style="fill: none; stroke-dasharray: 0.8,1.32; stroke-dashoffset: 0; stroke: #d8d2c2; stroke-opacity: 0.45; stroke-width: 0.8"/>
     </g>
     <g id="line2d_30">
      <g>
       <use xlink:href="#m872dc4f649" x="111.790938" y="215.024006" style="fill: #1f2a44; stroke: #1f2a44; stroke-width: 0.8"/>
      </g>
     </g>
     <g id="text_16">
      <!-- DURAZNO (MELOCOTON) -->
      <g style="fill: #1f2a44" transform="translate(16.635781 217.683459) scale(0.07 -0.07)">
       <defs>
        <path id="DejaVuSans-5a" d="M 359 4666 
L 4025 4666 
L 4025 4184 
L 1075 531 
L 4097 531 
L 4097 0 
L 288 0 
L 288 481 
L 3238 4134 
L 359 4134 
L 359 4666 
z
" transform="scale(0.015625)"/>
       </defs>
       <use xlink:href="#DejaVuSans-44"/>
       <use xlink:href="#DejaVuSans-55" transform="translate(77.001953 0)"/>
       <use xlink:href="#DejaVuSans-52" transform="translate(150.195312 0)"/>
       <use xlink:href="#DejaVuSans-41" transform="translate(215.677734 0)"/>
       <use xlink:href="#DejaVuSans-5a" transform="translate(284.085938 0)"/>
       <use xlink:href="#DejaVuSans-4e" transform="translate(352.591797 0)"/>
       <use xlink:href="#DejaVuSans-4f" transform="translate(427.396484 0)"/>
       <use xlink:href="#DejaVuSans-20" transform="translate(506.107422 0)"/>
       <use xlink:href="#DejaVuSans-28" transform="translate(537.894531 0)"/>
       <use xlink:href="#DejaVuSans-4d" transform="translate(576.908203 0)"/>
       <use xlink:href="#DejaVuSans-45" transform="translate(663.1875 0)"/>
       <use xlink:href="#DejaVuSans-4c" transform="translate(726.371094 0)"/>
       <use xlink:href="#DejaVuSans-4f" transform="translate(778.458984 0)"/>
       <use xlink:href="#DejaVuSans-43" transform="translate(857.169922 0)"/>
       <use xlink:href="#DejaVuSans-4f" transform="translate(926.994141 0)"/>
       <use xlink:href="#DejaVuSans-54" transform="translate(1005.705078 0)"/>
       <use xlink:href="#DejaVuSans-4f" transform="translate(1066.789062 0)"/>
       <use xlink:href="#DejaVuSans-4e" transform="translate(1145.5 0)"/>
       <use xlink:href="#DejaVuSans-29" transform="translate(1220.304688 0)"/>
      </g>
     </g>
    </g>
    <g id="ytick_10">
     <g id="line2d_31">
      <path d="M 111.790938 197.344567 
L 669.506322 197.344567 
" clip-path="url(#p0f7448f708)" style="fill: none; stroke-dasharray: 0.8,1.32; stroke-dashoffset: 0; stroke: #d8d2c2; stroke-opacity: 0.45; stroke-width: 0.8"/>
     </g>
     <g id="line2d_32">
      <g>
       <use xlink:href="#m872dc4f649" x="111.790938" y="197.344567" style="fill: #1f2a44; stroke: #1f2a44; stroke-width: 0.8"/>
      </g>
     </g>
     <g id="text_17">
      <!-- FRUTILLAS O FRESAS -->
      <g style="fill: #1f2a44" transform="translate(30.166563 200.00402) scale(0.07 -0.07)">
       <use xlink:href="#DejaVuSans-46"/>
       <use xlink:href="#DejaVuSans-52" transform="translate(57.519531 0)"/>
       <use xlink:href="#DejaVuSans-55" transform="translate(127.001953 0)"/>
       <use xlink:href="#DejaVuSans-54" transform="translate(200.195312 0)"/>
       <use xlink:href="#DejaVuSans-49" transform="translate(261.279297 0)"/>
       <use xlink:href="#DejaVuSans-4c" transform="translate(290.771484 0)"/>
       <use xlink:href="#DejaVuSans-4c" transform="translate(346.484375 0)"/>
       <use xlink:href="#DejaVuSans-41" transform="translate(404.447266 0)"/>
       <use xlink:href="#DejaVuSans-53" transform="translate(472.855469 0)"/>
       <use xlink:href="#DejaVuSans-20" transform="translate(536.332031 0)"/>
       <use xlink:href="#DejaVuSans-4f" transform="translate(568.119141 0)"/>
       <use xlink:href="#DejaVuSans-20" transform="translate(646.830078 0)"/>
       <use xlink:href="#DejaVuSans-46" transform="translate(678.617188 0)"/>
       <use xlink:href="#DejaVuSans-52" transform="translate(736.136719 0)"/>
       <use xlink:href="#DejaVuSans-45" transform="translate(805.619141 0)"/>
       <use xlink:href="#DejaVuSans-53" transform="translate(868.802734 0)"/>
       <use xlink:href="#DejaVuSans-41" transform="translate(934.154297 0)"/>
       <use xlink:href="#DejaVuSans-53" transform="translate(1002.5625 0)"/>
      </g>
     </g>
    </g>
    <g id="ytick_11">
     <g id="line2d_33">
      <path d="M 111.790938 179.665129 
L 669.506322 179.665129 
" clip-path="url(#p0f7448f708)" style="fill: none; stroke-dasharray: 0.8,1.32; stroke-dashoffset: 0; stroke: #d8d2c2; stroke-opacity: 0.45; stroke-width: 0.8"/>
     </g>
     <g id="line2d_34">
      <g>
       <use xlink:href="#m872dc4f649" x="111.790938" y="179.665129" style="fill: #1f2a44; stroke: #1f2a44; stroke-width: 0.8"/>
      </g>
     </g>
     <g id="text_18">
      <!-- GRANADILLA -->
      <g style="fill: #1f2a44" transform="translate(59.767813 182.324582) scale(0.07 -0.07)">
       <use xlink:href="#DejaVuSans-47"/>
       <use xlink:href="#DejaVuSans-52" transform="translate(77.490234 0)"/>
       <use xlink:href="#DejaVuSans-41" transform="translate(142.972656 0)"/>
       <use xlink:href="#DejaVuSans-4e" transform="translate(211.380859 0)"/>
       <use xlink:href="#DejaVuSans-41" transform="translate(286.185547 0)"/>
       <use xlink:href="#DejaVuSans-44" transform="translate(354.59375 0)"/>
       <use xlink:href="#DejaVuSans-49" transform="translate(431.595703 0)"/>
       <use xlink:href="#DejaVuSans-4c" transform="translate(461.087891 0)"/>
       <use xlink:href="#DejaVuSans-4c" transform="translate(516.800781 0)"/>
       <use xlink:href="#DejaVuSans-41" transform="translate(574.763672 0)"/>
      </g>
     </g>
    </g>
    <g id="ytick_12">
     <g id="line2d_35">
      <path d="M 111.790938 161.98569 
L 669.506322 161.98569 
" clip-path="url(#p0f7448f708)" style="fill: none; stroke-dasharray: 0.8,1.32; stroke-dashoffset: 0; stroke: #d8d2c2; stroke-opacity: 0.45; stroke-width: 0.8"/>
     </g>
     <g id="line2d_36">
      <g>
       <use xlink:href="#m872dc4f649" x="111.790938" y="161.98569" style="fill: #1f2a44; stroke: #1f2a44; stroke-width: 0.8"/>
      </g>
     </g>
     <g id="text_19">
      <!-- GUABA -->
      <g style="fill: #1f2a44" transform="translate(79.864375 164.645143) scale(0.07 -0.07)">
       <use xlink:href="#DejaVuSans-47"/>
       <use xlink:href="#DejaVuSans-55" transform="translate(77.490234 0)"/>
       <use xlink:href="#DejaVuSans-41" transform="translate(150.683594 0)"/>
       <use xlink:href="#DejaVuSans-42" transform="translate(219.091797 0)"/>
       <use xlink:href="#DejaVuSans-41" transform="translate(287.695312 0)"/>
      </g>
     </g>
    </g>
    <g id="ytick_13">
     <g id="line2d_37">
      <path d="M 111.790938 144.306251 
L 669.506322 144.306251 
" clip-path="url(#p0f7448f708)" style="fill: none; stroke-dasharray: 0.8,1.32; stroke-dashoffset: 0; stroke: #d8d2c2; stroke-opacity: 0.45; stroke-width: 0.8"/>
     </g>
     <g id="line2d_38">
      <g>
       <use xlink:href="#m872dc4f649" x="111.790938" y="144.306251" style="fill: #1f2a44; stroke: #1f2a44; stroke-width: 0.8"/>
      </g>
     </g>
     <g id="text_20">
      <!-- GUANABANA -->
      <g style="fill: #1f2a44" transform="translate(59.81375 146.965705) scale(0.07 -0.07)">
       <use xlink:href="#DejaVuSans-47"/>
       <use xlink:href="#DejaVuSans-55" transform="translate(77.490234 0)"/>
       <use xlink:href="#DejaVuSans-41" transform="translate(150.683594 0)"/>
       <use xlink:href="#DejaVuSans-4e" transform="translate(219.091797 0)"/>
       <use xlink:href="#DejaVuSans-41" transform="translate(293.896484 0)"/>
       <use xlink:href="#DejaVuSans-42" transform="translate(362.304688 0)"/>
       <use xlink:href="#DejaVuSans-41" transform="translate(430.908203 0)"/>
       <use xlink:href="#DejaVuSans-4e" transform="translate(499.316406 0)"/>
       <use xlink:href="#DejaVuSans-41" transform="translate(574.121094 0)"/>
      </g>
     </g>
    </g>
    <g id="ytick_14">
     <g id="line2d_39">
      <path d="M 111.790938 126.626813 
L 669.506322 126.626813 
" clip-path="url(#p0f7448f708)" style="fill: none; stroke-dasharray: 0.8,1.32; stroke-dashoffset: 0; stroke: #d8d2c2; stroke-opacity: 0.45; stroke-width: 0.8"/>
     </g>
     <g id="line2d_40">
      <g>
       <use xlink:href="#m872dc4f649" x="111.790938" y="126.626813" style="fill: #1f2a44; stroke: #1f2a44; stroke-width: 0.8"/>
      </g>
     </g>
     <g id="text_21">
      <!-- GUAYABA -->
      <g style="fill: #1f2a44" transform="translate(71.885469 129.286266) scale(0.07 -0.07)">
       <use xlink:href="#DejaVuSans-47"/>
       <use xlink:href="#DejaVuSans-55" transform="translate(77.490234 0)"/>
       <use xlink:href="#DejaVuSans-41" transform="translate(150.683594 0)"/>
       <use xlink:href="#DejaVuSans-59" transform="translate(211.341797 0)"/>
       <use xlink:href="#DejaVuSans-41" transform="translate(264.675781 0)"/>
       <use xlink:href="#DejaVuSans-42" transform="translate(333.083984 0)"/>
       <use xlink:href="#DejaVuSans-41" transform="translate(401.6875 0)"/>
      </g>
     </g>
    </g>
    <g id="ytick_15">
     <g id="line2d_41">
      <path d="M 111.790938 108.947374 
L 669.506322 108.947374 
" clip-path="url(#p0f7448f708)" style="fill: none; stroke-dasharray: 0.8,1.32; stroke-dashoffset: 0; stroke: #d8d2c2; stroke-opacity: 0.45; stroke-width: 0.8"/>
     </g>
     <g id="line2d_42">
      <g>
       <use xlink:href="#m872dc4f649" x="111.790938" y="108.947374" style="fill: #1f2a44; stroke: #1f2a44; stroke-width: 0.8"/>
      </g>
     </g>
     <g id="text_22">
      <!-- CLAUDIA -->
      <g style="fill: #1f2a44" transform="translate(73.690156 111.606827) scale(0.07 -0.07)">
       <use xlink:href="#DejaVuSans-43"/>
       <use xlink:href="#DejaVuSans-4c" transform="translate(69.824219 0)"/>
       <use xlink:href="#DejaVuSans-41" transform="translate(127.787109 0)"/>
       <use xlink:href="#DejaVuSans-55" transform="translate(196.195312 0)"/>
       <use xlink:href="#DejaVuSans-44" transform="translate(269.388672 0)"/>
       <use xlink:href="#DejaVuSans-49" transform="translate(346.390625 0)"/>
       <use xlink:href="#DejaVuSans-41" transform="translate(375.882812 0)"/>
      </g>
     </g>
    </g>
    <g id="ytick_16">
     <g id="line2d_43">
      <path d="M 111.790938 91.267936 
L 669.506322 91.267936 
" clip-path="url(#p0f7448f708)" style="fill: none; stroke-dasharray: 0.8,1.32; stroke-dashoffset: 0; stroke: #d8d2c2; stroke-opacity: 0.45; stroke-width: 0.8"/>
     </g>
     <g id="line2d_44">
      <g>
       <use xlink:href="#m872dc4f649" x="111.790938" y="91.267936" style="fill: #1f2a44; stroke: #1f2a44; stroke-width: 0.8"/>
      </g>
     </g>
     <g id="text_23">
      <!-- COCO (COCOTERO) -->
      <g style="fill: #1f2a44" transform="translate(36.438125 93.927389) scale(0.07 -0.07)">
       <use xlink:href="#DejaVuSans-43"/>
       <use xlink:href="#DejaVuSans-4f" transform="translate(69.824219 0)"/>
       <use xlink:href="#DejaVuSans-43" transform="translate(148.535156 0)"/>
       <use xlink:href="#DejaVuSans-4f" transform="translate(218.359375 0)"/>
       <use xlink:href="#DejaVuSans-20" transform="translate(297.070312 0)"/>
       <use xlink:href="#DejaVuSans-28" transform="translate(328.857422 0)"/>
       <use xlink:href="#DejaVuSans-43" transform="translate(367.871094 0)"/>
       <use xlink:href="#DejaVuSans-4f" transform="translate(437.695312 0)"/>
       <use xlink:href="#DejaVuSans-43" transform="translate(516.40625 0)"/>
       <use xlink:href="#DejaVuSans-4f" transform="translate(586.230469 0)"/>
       <use xlink:href="#DejaVuSans-54" transform="translate(664.941406 0)"/>
       <use xlink:href="#DejaVuSans-45" transform="translate(726.025391 0)"/>
       <use xlink:href="#DejaVuSans-52" transform="translate(789.208984 0)"/>
       <use xlink:href="#DejaVuSans-4f" transform="translate(858.691406 0)"/>
       <use xlink:href="#DejaVuSans-29" transform="translate(937.402344 0)"/>
      </g>
     </g>
    </g>
    <g id="ytick_17">
     <g id="line2d_45">
      <path d="M 111.790938 73.588497 
L 669.506322 73.588497 
" clip-path="url(#p0f7448f708)" style="fill: none; stroke-dasharray: 0.8,1.32; stroke-dashoffset: 0; stroke: #d8d2c2; stroke-opacity: 0.45; stroke-width: 0.8"/>
     </g>
     <g id="line2d_46">
      <g>
       <use xlink:href="#m872dc4f649" x="111.790938" y="73.588497" style="fill: #1f2a44; stroke: #1f2a44; stroke-width: 0.8"/>
      </g>
     </g>
     <g id="text_24">
      <!-- LIMA -->
      <g style="fill: #1f2a44" transform="translate(87.9975 76.24795) scale(0.07 -0.07)">
       <use xlink:href="#DejaVuSans-4c"/>
       <use xlink:href="#DejaVuSans-49" transform="translate(55.712891 0)"/>
       <use xlink:href="#DejaVuSans-4d" transform="translate(85.205078 0)"/>
       <use xlink:href="#DejaVuSans-41" transform="translate(171.484375 0)"/>
      </g>
     </g>
    </g>
    <g id="ytick_18">
     <g id="line2d_47">
      <path d="M 111.790938 55.909058 
L 669.506322 55.909058 
" clip-path="url(#p0f7448f708)" style="fill: none; stroke-dasharray: 0.8,1.32; stroke-dashoffset: 0; stroke: #d8d2c2; stroke-opacity: 0.45; stroke-width: 0.8"/>
     </g>
     <g id="line2d_48">
      <g>
       <use xlink:href="#m872dc4f649" x="111.790938" y="55.909058" style="fill: #1f2a44; stroke: #1f2a44; stroke-width: 0.8"/>
      </g>
     </g>
     <g id="text_25">
      <!-- HUERTO FRUTAL -->
      <g style="fill: #1f2a44" transform="translate(47.17875 58.568511) scale(0.07 -0.07)">
       <use xlink:href="#DejaVuSans-48"/>
       <use xlink:href="#DejaVuSans-55" transform="translate(75.195312 0)"/>
       <use xlink:href="#DejaVuSans-45" transform="translate(148.388672 0)"/>
       <use xlink:href="#DejaVuSans-52" transform="translate(211.572266 0)"/>
       <use xlink:href="#DejaVuSans-54" transform="translate(273.804688 0)"/>
       <use xlink:href="#DejaVuSans-4f" transform="translate(334.888672 0)"/>
       <use xlink:href="#DejaVuSans-20" transform="translate(413.599609 0)"/>
       <use xlink:href="#DejaVuSans-46" transform="translate(445.386719 0)"/>
       <use xlink:href="#DejaVuSans-52" transform="translate(502.90625 0)"/>
       <use xlink:href="#DejaVuSans-55" transform="translate(572.388672 0)"/>
       <use xlink:href="#DejaVuSans-54" transform="translate(645.582031 0)"/>
       <use xlink:href="#DejaVuSans-41" transform="translate(698.916016 0)"/>
       <use xlink:href="#DejaVuSans-4c" transform="translate(767.324219 0)"/>
      </g>
     </g>
    </g>
    <g id="ytick_19">
     <g id="line2d_49">
      <path d="M 111.790938 38.22962 
L 669.506322 38.22962 
" clip-path="url(#p0f7448f708)" style="fill: none; stroke-dasharray: 0.8,1.32; stroke-dashoffset: 0; stroke: #d8d2c2; stroke-opacity: 0.45; stroke-width: 0.8"/>
     </g>
     <g id="line2d_50">
      <g>
       <use xlink:href="#m872dc4f649" x="111.790938" y="38.22962" style="fill: #1f2a44; stroke: #1f2a44; stroke-width: 0.8"/>
      </g>
     </g>
     <g id="text_26">
      <!-- MANDARINA -->
      <g style="fill: #1f2a44" transform="translate(61.715781 40.889073) scale(0.07 -0.07)">
       <use xlink:href="#DejaVuSans-4d"/>
       <use xlink:href="#DejaVuSans-41" transform="translate(86.279297 0)"/>
       <use xlink:href="#DejaVuSans-4e" transform="translate(154.6875 0)"/>
       <use xlink:href="#DejaVuSans-44" transform="translate(229.492188 0)"/>
       <use xlink:href="#DejaVuSans-41" transform="translate(304.744141 0)"/>
       <use xlink:href="#DejaVuSans-52" transform="translate(373.152344 0)"/>
       <use xlink:href="#DejaVuSans-49" transform="translate(442.634766 0)"/>
       <use xlink:href="#DejaVuSans-4e" transform="translate(472.126953 0)"/>
       <use xlink:href="#DejaVuSans-41" transform="translate(546.931641 0)"/>
      </g>
     </g>
    </g>
   </g>
   <g id="patch_3">
    <path d="M 111.790938 372.37101 
L 111.790938 22.318125 
" style="fill: none; stroke: #1f2a44; stroke-width: 0.8; stroke-linejoin: miter; stroke-linecap: square"/>
   </g>
   <g id="patch_4">
    <path d="M 669.506322 372.37101 
L 669.506322 22.318125 
" style="fill: none; stroke: #1f2a44; stroke-width: 0.8; stroke-linejoin: miter; stroke-linecap: square"/>
   </g>
   <g id="patch_5">
    <path d="M 111.790938 372.37101 
L 669.506322 372.37101 
" style="fill: none; stroke: #1f2a44; stroke-width: 0.8; stroke-linejoin: miter; stroke-linecap: square"/>
   </g>
   <g id="patch_6">
    <path d="M 111.790938 22.318125 
L 669.506322 22.318125 
" style="fill: none; stroke: #1f2a44; stroke-width: 0.8; stroke-linejoin: miter; stroke-linecap: square"/>
   </g>
   <g id="text_27">
    <!-- Individual Tropical Crops: Fruits (Ranked Dot Plot) -->
    <g style="fill: #1f2a44" transform="translate(220.864567 16.318125) scale(0.12 -0.12)">
     <defs>
      <path id="DejaVuSans-Bold-49" d="M 588 4666 
L 1791 4666 
L 1791 0 
L 588 0 
L 588 4666 
z
" transform="scale(0.015625)"/>
      <path id="DejaVuSans-Bold-6e" d="M 4056 2131 
L 4056 0 
L 2931 0 
L 2931 347 
L 2931 1631 
Q 2931 2084 2911 2256 
Q 2891 2428 2841 2509 
Q 2775 2619 2662 2680 
Q 2550 2741 2406 2741 
Q 2056 2741 1856 2470 
Q 1656 2200 1656 1722 
L 1656 0 
L 538 0 
L 538 3500 
L 1656 3500 
L 1656 2988 
Q 1909 3294 2193 3439 
Q 2478 3584 2822 3584 
Q 3428 3584 3742 3212 
Q 4056 2841 4056 2131 
z
" transform="scale(0.015625)"/>
      <path id="DejaVuSans-Bold-64" d="M 2919 2988 
L 2919 4863 
L 4044 4863 
L 4044 0 
L 2919 0 
L 2919 506 
Q 2688 197 2409 53 
Q 2131 -91 1766 -91 
Q 1119 -91 703 423 
Q 288 938 288 1747 
Q 288 2556 703 3070 
Q 1119 3584 1766 3584 
Q 2128 3584 2408 3439 
Q 2688 3294 2919 2988 
z
M 2181 722 
Q 2541 722 2730 984 
Q 2919 1247 2919 1747 
Q 2919 2247 2730 2509 
Q 2541 2772 2181 2772 
Q 1825 2772 1636 2509 
Q 1447 2247 1447 1747 
Q 1447 1247 1636 984 
Q 1825 722 2181 722 
z
" transform="scale(0.015625)"/>
      <path id="DejaVuSans-Bold-69" d="M 538 3500 
L 1656 3500 
L 1656 0 
L 538 0 
L 538 3500 
z
M 538 4863 
L 1656 4863 
L 1656 3950 
L 538 3950 
L 538 4863 
z
" transform="scale(0.015625)"/>
      <path id="DejaVuSans-Bold-76" d="M 97 3500 
L 1216 3500 
L 2088 1081 
L 2956 3500 
L 4078 3500 
L 2700 0 
L 1472 0 
L 97 3500 
z
" transform="scale(0.015625)"/>
      <path id="DejaVuSans-Bold-75" d="M 500 1363 
L 500 3500 
L 1625 3500 
L 1625 3150 
Q 1625 2866 1622 2436 
Q 1619 2006 1619 1863 
Q 1619 1441 1641 1255 
Q 1663 1069 1716 984 
Q 1784 875 1895 815 
Q 2006 756 2150 756 
Q 2500 756 2700 1025 
Q 2900 1294 2900 1772 
L 2900 3500 
L 4019 3500 
L 4019 0 
L 2900 0 
L 2900 506 
Q 2647 200 2364 54 
Q 2081 -91 1741 -91 
Q 1134 -91 817 281 
Q 500 653 500 1363 
z
" transform="scale(0.015625)"/>
      <path id="DejaVuSans-Bold-61" d="M 2106 1575 
Q 1756 1575 1579 1456 
Q 1403 1338 1403 1106 
Q 1403 894 1545 773 
Q 1688 653 1941 653 
Q 2256 653 2472 879 
Q 2688 1106 2688 1447 
L 2688 1575 
L 2106 1575 
z
M 3816 1997 
L 3816 0 
L 2688 0 
L 2688 519 
Q 2463 200 2181 54 
Q 1900 -91 1497 -91 
Q 953 -91 614 226 
Q 275 544 275 1050 
Q 275 1666 698 1953 
Q 1122 2241 2028 2241 
L 2688 2241 
L 2688 2328 
Q 2688 2594 2478 2717 
Q 2269 2841 1825 2841 
Q 1466 2841 1156 2769 
Q 847 2697 581 2553 
L 581 3406 
Q 941 3494 1303 3539 
Q 1666 3584 2028 3584 
Q 2975 3584 3395 3211 
Q 3816 2838 3816 1997 
z
" transform="scale(0.015625)"/>
      <path id="DejaVuSans-Bold-6c" d="M 538 4863 
L 1656 4863 
L 1656 0 
L 538 0 
L 538 4863 
z
" transform="scale(0.015625)"/>
      <path id="DejaVuSans-Bold-20" transform="scale(0.015625)"/>
      <path id="DejaVuSans-Bold-54" d="M 31 4666 
L 4331 4666 
L 4331 3756 
L 2784 3756 
L 2784 0 
L 1581 0 
L 1581 3756 
L 31 3756 
L 31 4666 
z
" transform="scale(0.015625)"/>
      <path id="DejaVuSans-Bold-72" d="M 3138 2547 
Q 2991 2616 2845 2648 
Q 2700 2681 2553 2681 
Q 2122 2681 1889 2404 
Q 1656 2128 1656 1613 
L 1656 0 
L 538 0 
L 538 3500 
L 1656 3500 
L 1656 2925 
Q 1872 3269 2151 3426 
Q 2431 3584 2822 3584 
Q 2878 3584 2943 3579 
Q 3009 3575 3134 3559 
L 3138 2547 
z
" transform="scale(0.015625)"/>
      <path id="DejaVuSans-Bold-6f" d="M 2203 2784 
Q 1831 2784 1636 2517 
Q 1441 2250 1441 1747 
Q 1441 1244 1636 976 
Q 1831 709 2203 709 
Q 2569 709 2762 976 
Q 2956 1244 2956 1747 
Q 2956 2250 2762 2517 
Q 2569 2784 2203 2784 
z
M 2203 3584 
Q 3106 3584 3614 3096 
Q 4122 2609 4122 1747 
Q 4122 884 3614 396 
Q 3106 -91 2203 -91 
Q 1297 -91 786 396 
Q 275 884 275 1747 
Q 275 2609 786 3096 
Q 1297 3584 2203 3584 
z
" transform="scale(0.015625)"/>
      <path id="DejaVuSans-Bold-70" d="M 1656 506 
L 1656 -1331 
L 538 -1331 
L 538 3500 
L 1656 3500 
L 1656 2988 
Q 1888 3294 2169 3439 
Q 2450 3584 2816 3584 
Q 3463 3584 3878 3070 
Q 4294 2556 4294 1747 
Q 4294 938 3878 423 
Q 3463 -91 2816 -91 
Q 2450 -91 2169 54 
Q 1888 200 1656 506 
z
M 2400 2772 
Q 2041 2772 1848 2508 
Q 1656 2244 1656 1747 
Q 1656 1250 1848 986 
Q 2041 722 2400 722 
Q 2759 722 2948 984 
Q 3138 1247 3138 1747 
Q 3138 2247 2948 2509 
Q 2759 2772 2400 2772 
z
" transform="scale(0.015625)"/>
      <path id="DejaVuSans-Bold-63" d="M 3366 3391 
L 3366 2478 
Q 3138 2634 2908 2709 
Q 2678 2784 2431 2784 
Q 1963 2784 1702 2511 
Q 1441 2238 1441 1747 
Q 1441 1256 1702 982 
Q 1963 709 2431 709 
Q 2694 709 2930 787 
Q 3166 866 3366 1019 
L 3366 103 
Q 3103 6 2833 -42 
Q 2563 -91 2291 -91 
Q 1344 -91 809 395 
Q 275 881 275 1747 
Q 275 2613 809 3098 
Q 1344 3584 2291 3584 
Q 2566 3584 2833 3536 
Q 3100 3488 3366 3391 
z
" transform="scale(0.015625)"/>
      <path id="DejaVuSans-Bold-43" d="M 4288 256 
Q 3956 84 3597 -3 
Q 3238 -91 2847 -91 
Q 1681 -91 1000 561 
Q 319 1213 319 2328 
Q 319 3447 1000 4098 
Q 1681 4750 2847 4750 
Q 3238 4750 3597 4662 
Q 3956 4575 4288 4403 
L 4288 3438 
Q 3953 3666 3628 3772 
Q 3303 3878 2944 3878 
Q 2300 3878 1931 3465 
Q 1563 3053 1563 2328 
Q 1563 1606 1931 1193 
Q 2300 781 2944 781 
Q 3303 781 3628 887 
Q 3953 994 4288 1222 
L 4288 256 
z
" transform="scale(0.015625)"/>
      <path id="DejaVuSans-Bold-73" d="M 3272 3391 
L 3272 2541 
Q 2913 2691 2578 2766 
Q 2244 2841 1947 2841 
Q 1628 2841 1473 2761 
Q 1319 2681 1319 2516 
Q 1319 2381 1436 2309 
Q 1553 2238 1856 2203 
L 2053 2175 
Q 2913 2066 3209 1816 
Q 3506 1566 3506 1031 
Q 3506 472 3093 190 
Q 2681 -91 1863 -91 
Q 1516 -91 1145 -36 
Q 775 19 384 128 
L 384 978 
Q 719 816 1070 734 
Q 1422 653 1784 653 
Q 2113 653 2278 743 
Q 2444 834 2444 1013 
Q 2444 1163 2330 1236 
Q 2216 1309 1875 1350 
L 1678 1375 
Q 931 1469 631 1722 
Q 331 1975 331 2491 
Q 331 3047 712 3315 
Q 1094 3584 1881 3584 
Q 2191 3584 2531 3537 
Q 2872 3491 3272 3391 
z
" transform="scale(0.015625)"/>
      <path id="DejaVuSans-Bold-3a" d="M 716 3500 
L 1844 3500 
L 1844 2291 
L 716 2291 
L 716 3500 
z
M 716 1209 
L 1844 1209 
L 1844 0 
L 716 0 
L 716 1209 
z
" transform="scale(0.015625)"/>
      <path id="DejaVuSans-Bold-46" d="M 588 4666 
L 3834 4666 
L 3834 3756 
L 1791 3756 
L 1791 2888 
L 3713 2888 
L 3713 1978 
L 1791 1978 
L 1791 0 
L 588 0 
L 588 4666 
z
" transform="scale(0.015625)"/>
      <path id="DejaVuSans-Bold-74" d="M 1759 4494 
L 1759 3500 
L 2913 3500 
L 2913 2700 
L 1759 2700 
L 1759 1216 
Q 1759 972 1856 886 
Q 1953 800 2241 800 
L 2816 800 
L 2816 0 
L 1856 0 
Q 1194 0 917 276 
Q 641 553 641 1216 
L 641 2700 
L 84 2700 
L 84 3500 
L 641 3500 
L 641 4494 
L 1759 4494 
z
" transform="scale(0.015625)"/>
      <path id="DejaVuSans-Bold-28" d="M 2413 -844 
L 1484 -844 
Q 1006 -72 778 623 
Q 550 1319 550 2003 
Q 550 2688 779 3389 
Q 1009 4091 1484 4856 
L 2413 4856 
Q 2013 4116 1813 3408 
Q 1613 2700 1613 2009 
Q 1613 1319 1811 609 
Q 2009 -100 2413 -844 
z
" transform="scale(0.015625)"/>
      <path id="DejaVuSans-Bold-52" d="M 2297 2597 
Q 2675 2597 2839 2737 
Q 3003 2878 3003 3200 
Q 3003 3519 2839 3656 
Q 2675 3794 2297 3794 
L 1791 3794 
L 1791 2597 
L 2297 2597 
z
M 1791 1766 
L 1791 0 
L 588 0 
L 588 4666 
L 2425 4666 
Q 3347 4666 3776 4356 
Q 4206 4047 4206 3378 
Q 4206 2916 3982 2619 
Q 3759 2322 3309 2181 
Q 3556 2125 3751 1926 
Q 3947 1728 4147 1325 
L 4800 0 
L 3519 0 
L 2950 1159 
Q 2778 1509 2601 1637 
Q 2425 1766 2131 1766 
L 1791 1766 
z
" transform="scale(0.015625)"/>
      <path id="DejaVuSans-Bold-6b" d="M 538 4863 
L 1656 4863 
L 1656 2216 
L 2944 3500 
L 4244 3500 
L 2534 1894 
L 4378 0 
L 3022 0 
L 1656 1459 
L 1656 0 
L 538 0 
L 538 4863 
z
" transform="scale(0.015625)"/>
      <path id="DejaVuSans-Bold-65" d="M 4031 1759 
L 4031 1441 
L 1416 1441 
Q 1456 1047 1700 850 
Q 1944 653 2381 653 
Q 2734 653 3104 758 
Q 3475 863 3866 1075 
L 3866 213 
Q 3469 63 3072 -14 
Q 2675 -91 2278 -91 
Q 1328 -91 801 392 
Q 275 875 275 1747 
Q 275 2603 792 3093 
Q 1309 3584 2216 3584 
Q 3041 3584 3536 3087 
Q 4031 2591 4031 1759 
z
M 2881 2131 
Q 2881 2450 2695 2645 
Q 2509 2841 2209 2841 
Q 1884 2841 1681 2658 
Q 1478 2475 1428 2131 
L 2881 2131 
z
" transform="scale(0.015625)"/>
      <path id="DejaVuSans-Bold-44" d="M 1791 3756 
L 1791 909 
L 2222 909 
Q 2959 909 3348 1275 
Q 3738 1641 3738 2338 
Q 3738 3031 3350 3393 
Q 2963 3756 2222 3756 
L 1791 3756 
z
M 588 4666 
L 1856 4666 
Q 2919 4666 3439 4514 
Q 3959 4363 4331 4000 
Q 4659 3684 4818 3271 
Q 4978 2859 4978 2338 
Q 4978 1809 4818 1395 
Q 4659 981 4331 666 
Q 3956 303 3431 151 
Q 2906 0 1856 0 
L 588 0 
L 588 4666 
z
" transform="scale(0.015625)"/>
      <path id="DejaVuSans-Bold-50" d="M 588 4666 
L 2584 4666 
Q 3475 4666 3951 4270 
Q 4428 3875 4428 3144 
Q 4428 2409 3951 2014 
Q 3475 1619 2584 1619 
L 1791 1619 
L 1791 0 
L 588 0 
L 588 4666 
z
M 1791 3794 
L 1791 2491 
L 2456 2491 
Q 2806 2491 2997 2661 
Q 3188 2831 3188 3144 
Q 3188 3456 2997 3625 
Q 2806 3794 2456 3794 
L 1791 3794 
z
" transform="scale(0.015625)"/>
      <path id="DejaVuSans-Bold-29" d="M 513 -844 
Q 913 -100 1113 609 
Q 1313 1319 1313 2009 
Q 1313 2700 1113 3408 
Q 913 4116 513 4856 
L 1441 4856 
Q 1916 4091 2145 3389 
Q 2375 2688 2375 2003 
Q 2375 1319 2147 623 
Q 1919 -72 1441 -844 
L 513 -844 
z
" transform="scale(0.015625)"/>
     </defs>
     <use xlink:href="#DejaVuSans-Bold-49"/>
     <use xlink:href="#DejaVuSans-Bold-6e" transform="translate(37.207031 0)"/>
     <use xlink:href="#DejaVuSans-Bold-64" transform="translate(108.398438 0)"/>
     <use xlink:href="#DejaVuSans-Bold-69" transform="translate(179.980469 0)"/>
     <use xlink:href="#DejaVuSans-Bold-76" transform="translate(214.257812 0)"/>
     <use xlink:href="#DejaVuSans-Bold-69" transform="translate(279.443359 0)"/>
     <use xlink:href="#DejaVuSans-Bold-64" transform="translate(313.720703 0)"/>
     <use xlink:href="#DejaVuSans-Bold-75" transform="translate(385.302734 0)"/>
     <use xlink:href="#DejaVuSans-Bold-61" transform="translate(456.494141 0)"/>
     <use xlink:href="#DejaVuSans-Bold-6c" transform="translate(523.974609 0)"/>
     <use xlink:href="#DejaVuSans-Bold-20" transform="translate(558.251953 0)"/>
     <use xlink:href="#DejaVuSans-Bold-54" transform="translate(593.066406 0)"/>
     <use xlink:href="#DejaVuSans-Bold-72" transform="translate(650.279297 0)"/>
     <use xlink:href="#DejaVuSans-Bold-6f" transform="translate(699.595703 0)"/>
     <use xlink:href="#DejaVuSans-Bold-70" transform="translate(768.296875 0)"/>
     <use xlink:href="#DejaVuSans-Bold-69" transform="translate(839.878906 0)"/>
     <use xlink:href="#DejaVuSans-Bold-63" transform="translate(874.15625 0)"/>
     <use xlink:href="#DejaVuSans-Bold-61" transform="translate(933.433594 0)"/>
     <use xlink:href="#DejaVuSans-Bold-6c" transform="translate(1000.914062 0)"/>
     <use xlink:href="#DejaVuSans-Bold-20" transform="translate(1035.191406 0)"/>
     <use xlink:href="#DejaVuSans-Bold-43" transform="translate(1070.005859 0)"/>
     <use xlink:href="#DejaVuSans-Bold-72" transform="translate(1143.394531 0)"/>
     <use xlink:href="#DejaVuSans-Bold-6f" transform="translate(1192.710938 0)"/>
     <use xlink:href="#DejaVuSans-Bold-70" transform="translate(1261.412109 0)"/>
     <use xlink:href="#DejaVuSans-Bold-73" transform="translate(1332.994141 0)"/>
     <use xlink:href="#DejaVuSans-Bold-3a" transform="translate(1392.515625 0)"/>
     <use xlink:href="#DejaVuSans-Bold-20" transform="translate(1432.505859 0)"/>
     <use xlink:href="#DejaVuSans-Bold-46" transform="translate(1467.320312 0)"/>
     <use xlink:href="#DejaVuSans-Bold-72" transform="translate(1529.255859 0)"/>
     <use xlink:href="#DejaVuSans-Bold-75" transform="translate(1578.572266 0)"/>
     <use xlink:href="#DejaVuSans-Bold-69" transform="translate(1649.763672 0)"/>
     <use xlink:href="#DejaVuSans-Bold-74" transform="translate(1684.041016 0)"/>
     <use xlink:href="#DejaVuSans-Bold-73" transform="translate(1731.84375 0)"/>
     <use xlink:href="#DejaVuSans-Bold-20" transform="translate(1791.365234 0)"/>
     <use xlink:href="#DejaVuSans-Bold-28" transform="translate(1826.179688 0)"/>
     <use xlink:href="#DejaVuSans-Bold-52" transform="translate(1871.882812 0)"/>
     <use xlink:href="#DejaVuSans-Bold-61" transform="translate(1948.884766 0)"/>
     <use xlink:href="#DejaVuSans-Bold-6e" transform="translate(2016.365234 0)"/>
     <use xlink:href="#DejaVuSans-Bold-6b" transform="translate(2087.556641 0)"/>
     <use xlink:href="#DejaVuSans-Bold-65" transform="translate(2151.435547 0)"/>
     <use xlink:href="#DejaVuSans-Bold-64" transform="translate(2219.257812 0)"/>
     <use xlink:href="#DejaVuSans-Bold-20" transform="translate(2290.839844 0)"/>
     <use xlink:href="#DejaVuSans-Bold-44" transform="translate(2325.654297 0)"/>
     <use xlink:href="#DejaVuSans-Bold-6f" transform="translate(2408.662109 0)"/>
     <use xlink:href="#DejaVuSans-Bold-74" transform="translate(2477.363281 0)"/>
     <use xlink:href="#DejaVuSans-Bold-20" transform="translate(2525.166016 0)"/>
     <use xlink:href="#DejaVuSans-Bold-50" transform="translate(2559.980469 0)"/>
     <use xlink:href="#DejaVuSans-Bold-6c" transform="translate(2633.271484 0)"/>
     <use xlink:href="#DejaVuSans-Bold-6f" transform="translate(2667.548828 0)"/>
     <use xlink:href="#DejaVuSans-Bold-74" transform="translate(2736.25 0)"/>
     <use xlink:href="#DejaVuSans-Bold-29" transform="translate(2784.052734 0)"/>
    </g>
   </g>
  </g>
 </g>
 <defs>
  <clipPath id="p0f7448f708">
   <rect x="111.790938" y="22.318125" width="557.715385" height="350.052885"/>
  </clipPath>
 </defs>
</svg>
