<?xml version="1.0" encoding="utf-8" standalone="no"?>
<!DOCTYPE svg PUBLIC "-//W3C//DTD SVG 1.1//EN"
  "http://www.w3.org/Graphics/SVG/1.1/DTD/svg11.dtd">
<svg xmlns:xlink="http://www.w3.org/1999/xlink" width="856.666322pt" height="424.765481pt" viewBox="0 0 856.666322 424.765481" xmlns="http://www.w3.org/2000/svg" version="1.1">
 <metadata>
  <rdf:RDF xmlns:dc="http://purl.org/dc/elements/1.1/" xmlns:cc="http://creativecommons.org/ns#" xmlns:rdf="http://www.w3.org/1999/02/22-rdf-syntax-ns#">
   <cc:Work>
    <dc:type rdf:resource="http://purl.org/dc/dcmitype/StillImage"/>
    <dc:date>2026-05-06T14:18:47.563035</dc:date>
    <dc:format>image/svg+xml</dc:format>
    <dc:creator>
     <cc:Agent>
      <dc:title>Matplotlib v3.10.9, https://matplotlib.org/</dc:title>
     </cc:Agent>
    </dc:creator>
   </cc:Work>
  </rdf:RDF>
 </metadata>
 <defs>
  <style type="text/css">*{stroke-linejoin: round; stroke-linecap: butt}</style>
 </defs>
 <g id="figure_1">
  <g id="patch_1">
   <path d="M 0 424.765481 
L 856.666322 424.765481 
L 856.666322 0 
L 0 0 
L 0 424.765481 
z
" style="fill: none"/>
  </g>
  <g id="axes_1">
   <g id="patch_2">
    <path d="M 138.750937 400.887356 
L 849.466322 400.887356 
L 849.466322 22.318125 
L 138.750937 22.318125 
L 138.750937 400.887356 
z
" style="fill: none"/>
   </g>
   <g id="patch_3">
    <path d="M 138.750937 383.679663 
L 659.196474 383.679663 
L 659.196474 339.067128 
L 138.750937 339.067128 
z
" clip-path="url(#p1a7530ba02)" style="fill: #4c78a8; opacity: 0.9"/>
   </g>
   <g id="patch_4">
    <path d="M 138.750937 256.215276 
L 753.003992 256.215276 
L 753.003992 211.60274 
L 138.750937 211.60274 
z
" clip-path="url(#p1a7530ba02)" style="fill: #4c78a8; opacity: 0.9"/>
   </g>
   <g id="patch_5">
    <path d="M 138.750937 128.750889 
L 815.622732 128.750889 
L 815.622732 84.138353 
L 138.750937 84.138353 
z
" clip-path="url(#p1a7530ba02)" style="fill: #4c78a8; opacity: 0.9"/>
   </g>
   <g id="patch_6">
    <path d="M 138.750937 339.067128 
L 689.817128 339.067128 
L 689.817128 294.454592 
L 138.750937 294.454592 
z
" clip-path="url(#p1a7530ba02)" style="fill: #c44e52; opacity: 0.9"/>
   </g>
   <g id="patch_7">
    <path d="M 138.750937 211.60274 
L 789.883747 211.60274 
L 789.883747 166.990205 
L 138.750937 166.990205 
z
" clip-path="url(#p1a7530ba02)" style="fill: #c44e52; opacity: 0.9"/>
   </g>
   <g id="patch_8">
    <path d="M 138.750937 84.138353 
L 727.841284 84.138353 
L 727.841284 39.525817 
L 138.750937 39.525817 
z
" clip-path="url(#p1a7530ba02)" style="fill: #c44e52; opacity: 0.9"/>
   </g>
   <g id="matplotlib.axis_1">
    <g id="xtick_1">
     <g id="line2d_1">
      <path d="M 138.750937 400.887356 
L 138.750937 22.318125 
" clip-path="url(#p1a7530ba02)" style="fill: none; stroke-dasharray: 0.8,1.32; stroke-dashoffset: 0; stroke: #d8d2c2; stroke-opacity: 0.45; stroke-width: 0.8"/>
     </g>
     <g id="line2d_2">
      <defs>
       <path id="m39439abb33" d="M 0 0 
L 0 3.5 
" style="stroke: #1f2a44; stroke-width: 0.8"/>
      </defs>
      <g>
       <use xlink:href="#m39439abb33" x="138.750937" y="400.887356" style="fill: #1f2a44; stroke: #1f2a44; stroke-width: 0.8"/>
      </g>
     </g>
     <g id="text_1">
      <!-- 0 -->
      <g style="fill: #1f2a44" transform="translate(135.569687 415.485793) scale(0.1 -0.1)">
       <defs>
        <path id="DejaVuSans-30" d="M 2034 4250 
Q 1547 4250 1301 3770 
Q 1056 3291 1056 2328 
Q 1056 1369 1301 889 
Q 1547 409 2034 409 
Q 2525 409 2770 889 
Q 3016 1369 3016 2328 
Q 3016 3291 2770 3770 
Q 2525 4250 2034 4250 
z
M 2034 4750 
Q 2819 4750 3233 4129 
Q 3647 3509 3647 2328 
Q 3647 1150 3233 529 
Q 2819 -91 2034 -91 
Q 1250 -91 836 529 
Q 422 1150 422 2328 
Q 422 3509 836 4129 
Q 1250 4750 2034 4750 
z
" transform="scale(0.015625)"/>
       </defs>
       <use xlink:href="#DejaVuSans-30"/>
      </g>
     </g>
    </g>
    <g id="xtick_2">
     <g id="line2d_3">
      <path d="M 266.703206 400.887356 
L 266.703206 22.318125 
" clip-path="url(#p1a7530ba02)" style="fill: none; stroke-dasharray: 0.8,1.32; stroke-dashoffset: 0; stroke: #d8d2c2; stroke-opacity: 0.45; stroke-width: 0.8"/>
     </g>
     <g id="line2d_4">
      <g>
       <use xlink:href="#m39439abb33" x="266.703206" y="400.887356" style="fill: #1f2a44; stroke: #1f2a44; stroke-width: 0.8"/>
      </g>
     </g>
     <g id="text_2">
      <!-- 1 -->
      <g style="fill: #1f2a44" transform="translate(263.521956 415.485793) scale(0.1 -0.1)">
       <defs>
        <path id="DejaVuSans-31" d="M 794 531 
L 1825 531 
L 1825 4091 
L 703 3866 
L 703 4441 
L 1819 4666 
L 2450 4666 
L 2450 531 
L 3481 531 
L 3481 0 
L 794 0 
L 794 531 
z
" transform="scale(0.015625)"/>
       </defs>
       <use xlink:href="#DejaVuSans-31"/>
      </g>
     </g>
    </g>
    <g id="xtick_3">
     <g id="line2d_5">
      <path d="M 394.655475 400.887356 
L 394.655475 22.318125 
" clip-path="url(#p1a7530ba02)" style="fill: none; stroke-dasharray: 0.8,1.32; stroke-dashoffset: 0; stroke: #d8d2c2; stroke-opacity: 0.45; stroke-width: 0.8"/>
     </g>
     <g id="line2d_6">
      <g>
       <use xlink:href="#m39439abb33" x="394.655475" y="400.887356" style="fill: #1f2a44; stroke: #1f2a44; stroke-width: 0.8"/>
      </g>
     </g>
     <g id="text_3">
      <!-- 2 -->
      <g style="fill: #1f2a44" transform="translate(391.474225 415.485793) scale(0.1 -0.1)">
       <defs>
        <path id="DejaVuSans-32" d="M 1228 531 
L 3431 531 
L 3431 0 
L 469 0 
L 469 531 
Q 828 903 1448 1529 
Q 2069 2156 2228 2338 
Q 2531 2678 2651 2914 
Q 2772 3150 2772 3378 
Q 2772 3750 2511 3984 
Q 2250 4219 1831 4219 
Q 1534 4219 1204 4116 
Q 875 4013 500 3803 
L 500 4441 
Q 881 4594 1212 4672 
Q 1544 4750 1819 4750 
Q 2544 4750 2975 4387 
Q 3406 4025 3406 3419 
Q 3406 3131 3298 2873 
Q 3191 2616 2906 2266 
Q 2828 2175 2409 1742 
Q 1991 1309 1228 531 
z
" transform="scale(0.015625)"/>
       </defs>
       <use xlink:href="#DejaVuSans-32"/>
      </g>
     </g>
    </g>
    <g id="xtick_4">
     <g id="line2d_7">
      <path d="M 522.607743 400.887356 
L 522.607743 22.318125 
" clip-path="url(#p1a7530ba02)" style="fill: none; stroke-dasharray: 0.8,1.32; stroke-dashoffset: 0; stroke: #d8d2c2; stroke-opacity: 0.45; stroke-width: 0.8"/>
     </g>
     <g id="line2d_8">
      <g>
       <use xlink:href="#m39439abb33" x="522.607743" y="400.887356" style="fill: #1f2a44; stroke: #1f2a44; stroke-width: 0.8"/>
      </g>
     </g>
     <g id="text_4">
      <!-- 3 -->
      <g style="fill: #1f2a44" transform="translate(519.426493 415.485793) scale(0.1 -0.1)">
       <defs>
        <path id="DejaVuSans-33" d="M 2597 2516 
Q 3050 2419 3304 2112 
Q 3559 1806 3559 1356 
Q 3559 666 3084 287 
Q 2609 -91 1734 -91 
Q 1441 -91 1130 -33 
Q 819 25 488 141 
L 488 750 
Q 750 597 1062 519 
Q 1375 441 1716 441 
Q 2309 441 2620 675 
Q 2931 909 2931 1356 
Q 2931 1769 2642 2001 
Q 2353 2234 1838 2234 
L 1294 2234 
L 1294 2753 
L 1863 2753 
Q 2328 2753 2575 2939 
Q 2822 3125 2822 3475 
Q 2822 3834 2567 4026 
Q 2313 4219 1838 4219 
Q 1578 4219 1281 4162 
Q 984 4106 628 3988 
L 628 4550 
Q 988 4650 1302 4700 
Q 1616 4750 1894 4750 
Q 2613 4750 3031 4423 
Q 3450 4097 3450 3541 
Q 3450 3153 3228 2886 
Q 3006 2619 2597 2516 
z
" transform="scale(0.015625)"/>
       </defs>
       <use xlink:href="#DejaVuSans-33"/>
      </g>
     </g>
    </g>
    <g id="xtick_5">
     <g id="line2d_9">
      <path d="M 650.560012 400.887356 
L 650.560012 22.318125 
" clip-path="url(#p1a7530ba02)" style="fill: none; stroke-dasharray: 0.8,1.32; stroke-dashoffset: 0; stroke: #d8d2c2; stroke-opacity: 0.45; stroke-width: 0.8"/>
     </g>
     <g id="line2d_10">
      <g>
       <use xlink:href="#m39439abb33" x="650.560012" y="400.887356" style="fill: #1f2a44; stroke: #1f2a44; stroke-width: 0.8"/>
      </g>
     </g>
     <g id="text_5">
      <!-- 4 -->
      <g style="fill: #1f2a44" transform="translate(647.378762 415.485793) scale(0.1 -0.1)">
       <defs>
        <path id="DejaVuSans-34" d="M 2419 4116 
L 825 1625 
L 2419 1625 
L 2419 4116 
z
M 2253 4666 
L 3047 4666 
L 3047 1625 
L 3713 1625 
L 3713 1100 
L 3047 1100 
L 3047 0 
L 2419 0 
L 2419 1100 
L 313 1100 
L 313 1709 
L 2253 4666 
z
" transform="scale(0.015625)"/>
       </defs>
       <use xlink:href="#DejaVuSans-34"/>
      </g>
     </g>
    </g>
    <g id="xtick_6">
     <g id="line2d_11">
      <path d="M 778.512281 400.887356 
L 778.512281 22.318125 
" clip-path="url(#p1a7530ba02)" style="fill: none; stroke-dasharray: 0.8,1.32; stroke-dashoffset: 0; stroke: #d8d2c2; stroke-opacity: 0.45; stroke-width: 0.8"/>
     </g>
     <g id="line2d_12">
      <g>
       <use xlink:href="#m39439abb33" x="778.512281" y="400.887356" style="fill: #1f2a44; stroke: #1f2a44; stroke-width: 0.8"/>
      </g>
     </g>
     <g id="text_6">
      <!-- 5 -->
      <g style="fill: #1f2a44" transform="translate(775.331031 415.485793) scale(0.1 -0.1)">
       <defs>
        <path id="DejaVuSans-35" d="M 691 4666 
L 3169 4666 
L 3169 4134 
L 1269 4134 
L 1269 2991 
Q 1406 3038 1543 3061 
Q 1681 3084 1819 3084 
Q 2600 3084 3056 2656 
Q 3513 2228 3513 1497 
Q 3513 744 3044 326 
Q 2575 -91 1722 -91 
Q 1428 -91 1123 -41 
Q 819 9 494 109 
L 494 744 
Q 775 591 1075 516 
Q 1375 441 1709 441 
Q 2250 441 2565 725 
Q 2881 1009 2881 1497 
Q 2881 1984 2565 2268 
Q 2250 2553 1709 2553 
Q 1456 2553 1204 2497 
Q 953 2441 691 2322 
L 691 4666 
z
" transform="scale(0.015625)"/>
       </defs>
       <use xlink:href="#DejaVuSans-35"/>
      </g>
     </g>
    </g>
   </g>
   <g id="matplotlib.axis_2">
    <g id="ytick_1">
     <g id="line2d_13">
      <path d="M 138.750937 339.067128 
L 849.466322 339.067128 
" clip-path="url(#p1a7530ba02)" style="fill: none; stroke-dasharray: 0.8,1.32; stroke-dashoffset: 0; stroke: #d8d2c2; stroke-opacity: 0.45; stroke-width: 0.8"/>
     </g>
     <g id="line2d_14">
      <defs>
       <path id="m17cc6fcaf5" d="M 0 0 
L -3.5 0 
" style="stroke: #1f2a44; stroke-width: 0.8"/>
      </defs>
      <g>
       <use xlink:href="#m17cc6fcaf5" x="138.750937" y="339.067128" style="fill: #1f2a44; stroke: #1f2a44; stroke-width: 0.8"/>
      </g>
     </g>
     <g id="text_7">
      <!-- cacao almendra seca - -->
      <g style="fill: #1f2a44" transform="translate(7.2 337.899237) scale(0.11 -0.11)">
       <defs>
        <path id="DejaVuSans-63" d="M 3122 3366 
L 3122 2828 
Q 2878 2963 2633 3030 
Q 2388 3097 2138 3097 
Q 1578 3097 1268 2742 
Q 959 2388 959 1747 
Q 959 1106 1268 751 
Q 1578 397 2138 397 
Q 2388 397 2633 464 
Q 2878 531 3122 666 
L 3122 134 
Q 2881 22 2623 -34 
Q 2366 -91 2075 -91 
Q 1284 -91 818 406 
Q 353 903 353 1747 
Q 353 2603 823 3093 
Q 1294 3584 2113 3584 
Q 2378 3584 2631 3529 
Q 2884 3475 3122 3366 
z
" transform="scale(0.015625)"/>
        <path id="DejaVuSans-61" d="M 2194 1759 
Q 1497 1759 1228 1600 
Q 959 1441 959 1056 
Q 959 750 1161 570 
Q 1363 391 1709 391 
Q 2188 391 2477 730 
Q 2766 1069 2766 1631 
L 2766 1759 
L 2194 1759 
z
M 3341 1997 
L 3341 0 
L 2766 0 
L 2766 531 
Q 2569 213 2275 61 
Q 1981 -91 1556 -91 
Q 1019 -91 701 211 
Q 384 513 384 1019 
Q 384 1609 779 1909 
Q 1175 2209 1959 2209 
L 2766 2209 
L 2766 2266 
Q 2766 2663 2505 2880 
Q 2244 3097 1772 3097 
Q 1472 3097 1187 3025 
Q 903 2953 641 2809 
L 641 3341 
Q 956 3463 1253 3523 
Q 1550 3584 1831 3584 
Q 2591 3584 2966 3190 
Q 3341 2797 3341 1997 
z
" transform="scale(0.015625)"/>
        <path id="DejaVuSans-6f" d="M 1959 3097 
Q 1497 3097 1228 2736 
Q 959 2375 959 1747 
Q 959 1119 1226 758 
Q 1494 397 1959 397 
Q 2419 397 2687 759 
Q 2956 1122 2956 1747 
Q 2956 2369 2687 2733 
Q 2419 3097 1959 3097 
z
M 1959 3584 
Q 2709 3584 3137 3096 
Q 3566 2609 3566 1747 
Q 3566 888 3137 398 
Q 2709 -91 1959 -91 
Q 1206 -91 779 398 
Q 353 888 353 1747 
Q 353 2609 779 3096 
Q 1206 3584 1959 3584 
z
" transform="scale(0.015625)"/>
        <path id="DejaVuSans-20" transform="scale(0.015625)"/>
        <path id="DejaVuSans-6c" d="M 603 4863 
L 1178 4863 
L 1178 0 
L 603 0 
L 603 4863 
z
" transform="scale(0.015625)"/>
        <path id="DejaVuSans-6d" d="M 3328 2828 
Q 3544 3216 3844 3400 
Q 4144 3584 4550 3584 
Q 5097 3584 5394 3201 
Q 5691 2819 5691 2113 
L 5691 0 
L 5113 0 
L 5113 2094 
Q 5113 2597 4934 2840 
Q 4756 3084 4391 3084 
Q 3944 3084 3684 2787 
Q 3425 2491 3425 1978 
L 3425 0 
L 2847 0 
L 2847 2094 
Q 2847 2600 2669 2842 
Q 2491 3084 2119 3084 
Q 1678 3084 1418 2786 
Q 1159 2488 1159 1978 
L 1159 0 
L 581 0 
L 581 3500 
L 1159 3500 
L 1159 2956 
Q 1356 3278 1631 3431 
Q 1906 3584 2284 3584 
Q 2666 3584 2933 3390 
Q 3200 3197 3328 2828 
z
" transform="scale(0.015625)"/>
        <path id="DejaVuSans-65" d="M 3597 1894 
L 3597 1613 
L 953 1613 
Q 991 1019 1311 708 
Q 1631 397 2203 397 
Q 2534 397 2845 478 
Q 3156 559 3463 722 
L 3463 178 
Q 3153 47 2828 -22 
Q 2503 -91 2169 -91 
Q 1331 -91 842 396 
Q 353 884 353 1716 
Q 353 2575 817 3079 
Q 1281 3584 2069 3584 
Q 2775 3584 3186 3129 
Q 3597 2675 3597 1894 
z
M 3022 2063 
Q 3016 2534 2758 2815 
Q 2500 3097 2075 3097 
Q 1594 3097 1305 2825 
Q 1016 2553 972 2059 
L 3022 2063 
z
" transform="scale(0.015625)"/>
        <path id="DejaVuSans-6e" d="M 3513 2113 
L 3513 0 
L 2938 0 
L 2938 2094 
Q 2938 2591 2744 2837 
Q 2550 3084 2163 3084 
Q 1697 3084 1428 2787 
Q 1159 2491 1159 1978 
L 1159 0 
L 581 0 
L 581 3500 
L 1159 3500 
L 1159 2956 
Q 1366 3272 1645 3428 
Q 1925 3584 2291 3584 
Q 2894 3584 3203 3211 
Q 3513 2838 3513 2113 
z
" transform="scale(0.015625)"/>
        <path id="DejaVuSans-64" d="M 2906 2969 
L 2906 4863 
L 3481 4863 
L 3481 0 
L 2906 0 
L 2906 525 
Q 2725 213 2448 61 
Q 2172 -91 1784 -91 
Q 1150 -91 751 415 
Q 353 922 353 1747 
Q 353 2572 751 3078 
Q 1150 3584 1784 3584 
Q 2172 3584 2448 3432 
Q 2725 3281 2906 2969 
z
M 947 1747 
Q 947 1113 1208 752 
Q 1469 391 1925 391 
Q 2381 391 2643 752 
Q 2906 1113 2906 1747 
Q 2906 2381 2643 2742 
Q 2381 3103 1925 3103 
Q 1469 3103 1208 2742 
Q 947 2381 947 1747 
z
" transform="scale(0.015625)"/>
        <path id="DejaVuSans-72" d="M 2631 2963 
Q 2534 3019 2420 3045 
Q 2306 3072 2169 3072 
Q 1681 3072 1420 2755 
Q 1159 2438 1159 1844 
L 1159 0 
L 581 0 
L 581 3500 
L 1159 3500 
L 1159 2956 
Q 1341 3275 1631 3429 
Q 1922 3584 2338 3584 
Q 2397 3584 2469 3576 
Q 2541 3569 2628 3553 
L 2631 2963 
z
" transform="scale(0.015625)"/>
        <path id="DejaVuSans-73" d="M 2834 3397 
L 2834 2853 
Q 2591 2978 2328 3040 
Q 2066 3103 1784 3103 
Q 1356 3103 1142 2972 
Q 928 2841 928 2578 
Q 928 2378 1081 2264 
Q 1234 2150 1697 2047 
L 1894 2003 
Q 2506 1872 2764 1633 
Q 3022 1394 3022 966 
Q 3022 478 2636 193 
Q 2250 -91 1575 -91 
Q 1294 -91 989 -36 
Q 684 19 347 128 
L 347 722 
Q 666 556 975 473 
Q 1284 391 1588 391 
Q 1994 391 2212 530 
Q 2431 669 2431 922 
Q 2431 1156 2273 1281 
Q 2116 1406 1581 1522 
L 1381 1569 
Q 847 1681 609 1914 
Q 372 2147 372 2553 
Q 372 3047 722 3315 
Q 1072 3584 1716 3584 
Q 2034 3584 2315 3537 
Q 2597 3491 2834 3397 
z
" transform="scale(0.015625)"/>
        <path id="DejaVuSans-2d" d="M 313 2009 
L 1997 2009 
L 1997 1497 
L 313 1497 
L 313 2009 
z
" transform="scale(0.015625)"/>
       </defs>
       <use xlink:href="#DejaVuSans-63"/>
       <use xlink:href="#DejaVuSans-61" transform="translate(54.980469 0)"/>
       <use xlink:href="#DejaVuSans-63" transform="translate(116.259766 0)"/>
       <use xlink:href="#DejaVuSans-61" transform="translate(171.240234 0)"/>
       <use xlink:href="#DejaVuSans-6f" transform="translate(232.519531 0)"/>
       <use xlink:href="#DejaVuSans-20" transform="translate(293.701172 0)"/>
       <use xlink:href="#DejaVuSans-61" transform="translate(325.488281 0)"/>
       <use xlink:href="#DejaVuSans-6c" transform="translate(386.767578 0)"/>
       <use xlink:href="#DejaVuSans-6d" transform="translate(414.550781 0)"/>
       <use xlink:href="#DejaVuSans-65" transform="translate(511.962891 0)"/>
       <use xlink:href="#DejaVuSans-6e" transform="translate(573.486328 0)"/>
       <use xlink:href="#DejaVuSans-64" transform="translate(636.865234 0)"/>
       <use xlink:href="#DejaVuSans-72" transform="translate(700.341797 0)"/>
       <use xlink:href="#DejaVuSans-61" transform="translate(741.455078 0)"/>
       <use xlink:href="#DejaVuSans-20" transform="translate(802.734375 0)"/>
       <use xlink:href="#DejaVuSans-73" transform="translate(834.521484 0)"/>
       <use xlink:href="#DejaVuSans-65" transform="translate(886.621094 0)"/>
       <use xlink:href="#DejaVuSans-63" transform="translate(948.144531 0)"/>
       <use xlink:href="#DejaVuSans-61" transform="translate(1003.125 0)"/>
       <use xlink:href="#DejaVuSans-20" transform="translate(1064.404297 0)"/>
       <use xlink:href="#DejaVuSans-2d" transform="translate(1096.191406 0)"/>
      </g>
      <!-- sierra | region -->
      <g style="fill: #1f2a44" transform="translate(55.122187 350.274581) scale(0.11 -0.11)">
       <defs>
        <path id="DejaVuSans-69" d="M 603 3500 
L 1178 3500 
L 1178 0 
L 603 0 
L 603 3500 
z
M 603 4863 
L 1178 4863 
L 1178 4134 
L 603 4134 
L 603 4863 
z
" transform="scale(0.015625)"/>
        <path id="DejaVuSans-7c" d="M 1344 4891 
L 1344 -1509 
L 813 -1509 
L 813 4891 
L 1344 4891 
z
" transform="scale(0.015625)"/>
        <path id="DejaVuSans-67" d="M 2906 1791 
Q 2906 2416 2648 2759 
Q 2391 3103 1925 3103 
Q 1463 3103 1205 2759 
Q 947 2416 947 1791 
Q 947 1169 1205 825 
Q 1463 481 1925 481 
Q 2391 481 2648 825 
Q 2906 1169 2906 1791 
z
M 3481 434 
Q 3481 -459 3084 -895 
Q 2688 -1331 1869 -1331 
Q 1566 -1331 1297 -1286 
Q 1028 -1241 775 -1147 
L 775 -588 
Q 1028 -725 1275 -790 
Q 1522 -856 1778 -856 
Q 2344 -856 2625 -561 
Q 2906 -266 2906 331 
L 2906 616 
Q 2728 306 2450 153 
Q 2172 0 1784 0 
Q 1141 0 747 490 
Q 353 981 353 1791 
Q 353 2603 747 3093 
Q 1141 3584 1784 3584 
Q 2172 3584 2450 3431 
Q 2728 3278 2906 2969 
L 2906 3500 
L 3481 3500 
L 3481 434 
z
" transform="scale(0.015625)"/>
       </defs>
       <use xlink:href="#DejaVuSans-73"/>
       <use xlink:href="#DejaVuSans-69" transform="translate(52.099609 0)"/>
       <use xlink:href="#DejaVuSans-65" transform="translate(79.882812 0)"/>
       <use xlink:href="#DejaVuSans-72" transform="translate(141.40625 0)"/>
       <use xlink:href="#DejaVuSans-72" transform="translate(180.769531 0)"/>
       <use xlink:href="#DejaVuSans-61" transform="translate(221.882812 0)"/>
       <use xlink:href="#DejaVuSans-20" transform="translate(283.162109 0)"/>
       <use xlink:href="#DejaVuSans-7c" transform="translate(314.949219 0)"/>
       <use xlink:href="#DejaVuSans-20" transform="translate(348.640625 0)"/>
       <use xlink:href="#DejaVuSans-72" transform="translate(380.427734 0)"/>
       <use xlink:href="#DejaVuSans-65" transform="translate(419.291016 0)"/>
       <use xlink:href="#DejaVuSans-67" transform="translate(480.814453 0)"/>
       <use xlink:href="#DejaVuSans-69" transform="translate(544.291016 0)"/>
       <use xlink:href="#DejaVuSans-6f" transform="translate(572.074219 0)"/>
       <use xlink:href="#DejaVuSans-6e" transform="translate(633.255859 0)"/>
      </g>
     </g>
    </g>
    <g id="ytick_2">
     <g id="line2d_15">
      <path d="M 138.750937 211.60274 
L 849.466322 211.60274 
" clip-path="url(#p1a7530ba02)" style="fill: none; stroke-dasharray: 0.8,1.32; stroke-dashoffset: 0; stroke: #d8d2c2; stroke-opacity: 0.45; stroke-width: 0.8"/>
     </g>
     <g id="line2d_16">
      <g>
       <use xlink:href="#m17cc6fcaf5" x="138.750937" y="211.60274" style="fill: #1f2a44; stroke: #1f2a44; stroke-width: 0.8"/>
      </g>
     </g>
     <g id="text_8">
      <!-- cacao almendra seca - -->
      <g style="fill: #1f2a44" transform="translate(7.2 210.43485) scale(0.11 -0.11)">
       <use xlink:href="#DejaVuSans-63"/>
       <use xlink:href="#DejaVuSans-61" transform="translate(54.980469 0)"/>
       <use xlink:href="#DejaVuSans-63" transform="translate(116.259766 0)"/>
       <use xlink:href="#DejaVuSans-61" transform="translate(171.240234 0)"/>
       <use xlink:href="#DejaVuSans-6f" transform="translate(232.519531 0)"/>
       <use xlink:href="#DejaVuSans-20" transform="translate(293.701172 0)"/>
       <use xlink:href="#DejaVuSans-61" transform="translate(325.488281 0)"/>
       <use xlink:href="#DejaVuSans-6c" transform="translate(386.767578 0)"/>
       <use xlink:href="#DejaVuSans-6d" transform="translate(414.550781 0)"/>
       <use xlink:href="#DejaVuSans-65" transform="translate(511.962891 0)"/>
       <use xlink:href="#DejaVuSans-6e" transform="translate(573.486328 0)"/>
       <use xlink:href="#DejaVuSans-64" transform="translate(636.865234 0)"/>
       <use xlink:href="#DejaVuSans-72" transform="translate(700.341797 0)"/>
       <use xlink:href="#DejaVuSans-61" transform="translate(741.455078 0)"/>
       <use xlink:href="#DejaVuSans-20" transform="translate(802.734375 0)"/>
       <use xlink:href="#DejaVuSans-73" transform="translate(834.521484 0)"/>
       <use xlink:href="#DejaVuSans-65" transform="translate(886.621094 0)"/>
       <use xlink:href="#DejaVuSans-63" transform="translate(948.144531 0)"/>
       <use xlink:href="#DejaVuSans-61" transform="translate(1003.125 0)"/>
       <use xlink:href="#DejaVuSans-20" transform="translate(1064.404297 0)"/>
       <use xlink:href="#DejaVuSans-2d" transform="translate(1096.191406 0)"/>
      </g>
      <!-- costa | region -->
      <g style="fill: #1f2a44" transform="translate(56.706875 222.810194) scale(0.11 -0.11)">
       <defs>
        <path id="DejaVuSans-74" d="M 1172 4494 
L 1172 3500 
L 2356 3500 
L 2356 3053 
L 1172 3053 
L 1172 1153 
Q 1172 725 1289 603 
Q 1406 481 1766 481 
L 2356 481 
L 2356 0 
L 1766 0 
Q 1100 0 847 248 
Q 594 497 594 1153 
L 594 3053 
L 172 3053 
L 172 3500 
L 594 3500 
L 594 4494 
L 1172 4494 
z
" transform="scale(0.015625)"/>
       </defs>
       <use xlink:href="#DejaVuSans-63"/>
       <use xlink:href="#DejaVuSans-6f" transform="translate(54.980469 0)"/>
       <use xlink:href="#DejaVuSans-73" transform="translate(116.162109 0)"/>
       <use xlink:href="#DejaVuSans-74" transform="translate(168.261719 0)"/>
       <use xlink:href="#DejaVuSans-61" transform="translate(207.470703 0)"/>
       <use xlink:href="#DejaVuSans-20" transform="translate(268.75 0)"/>
       <use xlink:href="#DejaVuSans-7c" transform="translate(300.537109 0)"/>
       <use xlink:href="#DejaVuSans-20" transform="translate(334.228516 0)"/>
       <use xlink:href="#DejaVuSans-72" transform="translate(366.015625 0)"/>
       <use xlink:href="#DejaVuSans-65" transform="translate(404.878906 0)"/>
       <use xlink:href="#DejaVuSans-67" transform="translate(466.402344 0)"/>
       <use xlink:href="#DejaVuSans-69" transform="translate(529.878906 0)"/>
       <use xlink:href="#DejaVuSans-6f" transform="translate(557.662109 0)"/>
       <use xlink:href="#DejaVuSans-6e" transform="translate(618.84375 0)"/>
      </g>
     </g>
    </g>
    <g id="ytick_3">
     <g id="line2d_17">
      <path d="M 138.750937 84.138353 
L 849.466322 84.138353 
" clip-path="url(#p1a7530ba02)" style="fill: none; stroke-dasharray: 0.8,1.32; stroke-dashoffset: 0; stroke: #d8d2c2; stroke-opacity: 0.45; stroke-width: 0.8"/>
     </g>
     <g id="line2d_18">
      <g>
       <use xlink:href="#m17cc6fcaf5" x="138.750937" y="84.138353" style="fill: #1f2a44; stroke: #1f2a44; stroke-width: 0.8"/>
      </g>
     </g>
     <g id="text_9">
      <!-- cacao almendra seca - -->
      <g style="fill: #1f2a44" transform="translate(7.2 82.970462) scale(0.11 -0.11)">
       <use xlink:href="#DejaVuSans-63"/>
       <use xlink:href="#DejaVuSans-61" transform="translate(54.980469 0)"/>
       <use xlink:href="#DejaVuSans-63" transform="translate(116.259766 0)"/>
       <use xlink:href="#DejaVuSans-61" transform="translate(171.240234 0)"/>
       <use xlink:href="#DejaVuSans-6f" transform="translate(232.519531 0)"/>
       <use xlink:href="#DejaVuSans-20" transform="translate(293.701172 0)"/>
       <use xlink:href="#DejaVuSans-61" transform="translate(325.488281 0)"/>
       <use xlink:href="#DejaVuSans-6c" transform="translate(386.767578 0)"/>
       <use xlink:href="#DejaVuSans-6d" transform="translate(414.550781 0)"/>
       <use xlink:href="#DejaVuSans-65" transform="translate(511.962891 0)"/>
       <use xlink:href="#DejaVuSans-6e" transform="translate(573.486328 0)"/>
       <use xlink:href="#DejaVuSans-64" transform="translate(636.865234 0)"/>
       <use xlink:href="#DejaVuSans-72" transform="translate(700.341797 0)"/>
       <use xlink:href="#DejaVuSans-61" transform="translate(741.455078 0)"/>
       <use xlink:href="#DejaVuSans-20" transform="translate(802.734375 0)"/>
       <use xlink:href="#DejaVuSans-73" transform="translate(834.521484 0)"/>
       <use xlink:href="#DejaVuSans-65" transform="translate(886.621094 0)"/>
       <use xlink:href="#DejaVuSans-63" transform="translate(948.144531 0)"/>
       <use xlink:href="#DejaVuSans-61" transform="translate(1003.125 0)"/>
       <use xlink:href="#DejaVuSans-20" transform="translate(1064.404297 0)"/>
       <use xlink:href="#DejaVuSans-2d" transform="translate(1096.191406 0)"/>
      </g>
      <!-- oriente | region -->
      <g style="fill: #1f2a44" transform="translate(47.140312 95.345806) scale(0.11 -0.11)">
       <use xlink:href="#DejaVuSans-6f"/>
       <use xlink:href="#DejaVuSans-72" transform="translate(61.181641 0)"/>
       <use xlink:href="#DejaVuSans-69" transform="translate(102.294922 0)"/>
       <use xlink:href="#DejaVuSans-65" transform="translate(130.078125 0)"/>
       <use xlink:href="#DejaVuSans-6e" transform="translate(191.601562 0)"/>
       <use xlink:href="#DejaVuSans-74" transform="translate(254.980469 0)"/>
       <use xlink:href="#DejaVuSans-65" transform="translate(294.189453 0)"/>
       <use xlink:href="#DejaVuSans-20" transform="translate(355.712891 0)"/>
       <use xlink:href="#DejaVuSans-7c" transform="translate(387.5 0)"/>
       <use xlink:href="#DejaVuSans-20" transform="translate(421.191406 0)"/>
       <use xlink:href="#DejaVuSans-72" transform="translate(452.978516 0)"/>
       <use xlink:href="#DejaVuSans-65" transform="translate(491.841797 0)"/>
       <use xlink:href="#DejaVuSans-67" transform="translate(553.365234 0)"/>
       <use xlink:href="#DejaVuSans-69" transform="translate(616.841797 0)"/>
       <use xlink:href="#DejaVuSans-6f" transform="translate(644.625 0)"/>
       <use xlink:href="#DejaVuSans-6e" transform="translate(705.806641 0)"/>
      </g>
     </g>
    </g>
   </g>
   <g id="patch_9">
    <path d="M 138.750937 400.887356 
L 138.750937 22.318125 
" style="fill: none; stroke: #1f2a44; stroke-width: 0.8; stroke-linejoin: miter; stroke-linecap: square"/>
   </g>
   <g id="patch_10">
    <path d="M 849.466322 400.887356 
L 849.466322 22.318125 
" style="fill: none; stroke: #1f2a44; stroke-width: 0.8; stroke-linejoin: miter; stroke-linecap: square"/>
   </g>
   <g id="patch_11">
    <path d="M 138.750937 400.887356 
L 849.466322 400.887356 
" style="fill: none; stroke: #1f2a44; stroke-width: 0.8; stroke-linejoin: miter; stroke-linecap: square"/>
   </g>
   <g id="patch_12">
    <path d="M 138.750937 22.318125 
L 849.466322 22.318125 
" style="fill: none; stroke: #1f2a44; stroke-width: 0.8; stroke-linejoin: miter; stroke-linecap: square"/>
   </g>
   <g id="text_10">
    <!-- Regional Differences -->
    <g style="fill: #1f2a44" transform="translate(423.654567 16.318125) scale(0.12 -0.12)">
     <defs>
      <path id="DejaVuSans-Bold-52" d="M 2297 2597 
Q 2675 2597 2839 2737 
Q 3003 2878 3003 3200 
Q 3003 3519 2839 3656 
Q 2675 3794 2297 3794 
L 1791 3794 
L 1791 2597 
L 2297 2597 
z
M 1791 1766 
L 1791 0 
L 588 0 
L 588 4666 
L 2425 4666 
Q 3347 4666 3776 4356 
Q 4206 4047 4206 3378 
Q 4206 2916 3982 2619 
Q 3759 2322 3309 2181 
Q 3556 2125 3751 1926 
Q 3947 1728 4147 1325 
L 4800 0 
L 3519 0 
L 2950 1159 
Q 2778 1509 2601 1637 
Q 2425 1766 2131 1766 
L 1791 1766 
z
" transform="scale(0.015625)"/>
      <path id="DejaVuSans-Bold-65" d="M 4031 1759 
L 4031 1441 
L 1416 1441 
Q 1456 1047 1700 850 
Q 1944 653 2381 653 
Q 2734 653 3104 758 
Q 3475 863 3866 1075 
L 3866 213 
Q 3469 63 3072 -14 
Q 2675 -91 2278 -91 
Q 1328 -91 801 392 
Q 275 875 275 1747 
Q 275 2603 792 3093 
Q 1309 3584 2216 3584 
Q 3041 3584 3536 3087 
Q 4031 2591 4031 1759 
z
M 2881 2131 
Q 2881 2450 2695 2645 
Q 2509 2841 2209 2841 
Q 1884 2841 1681 2658 
Q 1478 2475 1428 2131 
L 2881 2131 
z
" transform="scale(0.015625)"/>
      <path id="DejaVuSans-Bold-67" d="M 2919 594 
Q 2688 288 2409 144 
Q 2131 0 1766 0 
Q 1125 0 706 504 
Q 288 1009 288 1791 
Q 288 2575 706 3076 
Q 1125 3578 1766 3578 
Q 2131 3578 2409 3434 
Q 2688 3291 2919 2981 
L 2919 3500 
L 4044 3500 
L 4044 353 
Q 4044 -491 3511 -936 
Q 2978 -1381 1966 -1381 
Q 1638 -1381 1331 -1331 
Q 1025 -1281 716 -1178 
L 716 -306 
Q 1009 -475 1290 -558 
Q 1572 -641 1856 -641 
Q 2406 -641 2662 -400 
Q 2919 -159 2919 353 
L 2919 594 
z
M 2181 2772 
Q 1834 2772 1640 2515 
Q 1447 2259 1447 1791 
Q 1447 1309 1634 1061 
Q 1822 813 2181 813 
Q 2531 813 2725 1069 
Q 2919 1325 2919 1791 
Q 2919 2259 2725 2515 
Q 2531 2772 2181 2772 
z
" transform="scale(0.015625)"/>
      <path id="DejaVuSans-Bold-69" d="M 538 3500 
L 1656 3500 
L 1656 0 
L 538 0 
L 538 3500 
z
M 538 4863 
L 1656 4863 
L 1656 3950 
L 538 3950 
L 538 4863 
z
" transform="scale(0.015625)"/>
      <path id="DejaVuSans-Bold-6f" d="M 2203 2784 
Q 1831 2784 1636 2517 
Q 1441 2250 1441 1747 
Q 1441 1244 1636 976 
Q 1831 709 2203 709 
Q 2569 709 2762 976 
Q 2956 1244 2956 1747 
Q 2956 2250 2762 2517 
Q 2569 2784 2203 2784 
z
M 2203 3584 
Q 3106 3584 3614 3096 
Q 4122 2609 4122 1747 
Q 4122 884 3614 396 
Q 3106 -91 2203 -91 
Q 1297 -91 786 396 
Q 275 884 275 1747 
Q 275 2609 786 3096 
Q 1297 3584 2203 3584 
z
" transform="scale(0.015625)"/>
      <path id="DejaVuSans-Bold-6e" d="M 4056 2131 
L 4056 0 
L 2931 0 
L 2931 347 
L 2931 1631 
Q 2931 2084 2911 2256 
Q 2891 2428 2841 2509 
Q 2775 2619 2662 2680 
Q 2550 2741 2406 2741 
Q 2056 2741 1856 2470 
Q 1656 2200 1656 1722 
L 1656 0 
L 538 0 
L 538 3500 
L 1656 3500 
L 1656 2988 
Q 1909 3294 2193 3439 
Q 2478 3584 2822 3584 
Q 3428 3584 3742 3212 
Q 4056 2841 4056 2131 
z
" transform="scale(0.015625)"/>
      <path id="DejaVuSans-Bold-61" d="M 2106 1575 
Q 1756 1575 1579 1456 
Q 1403 1338 1403 1106 
Q 1403 894 1545 773 
Q 1688 653 1941 653 
Q 2256 653 2472 879 
Q 2688 1106 2688 1447 
L 2688 1575 
L 2106 1575 
z
M 3816 1997 
L 3816 0 
L 2688 0 
L 2688 519 
Q 2463 200 2181 54 
Q 1900 -91 1497 -91 
Q 953 -91 614 226 
Q 275 544 275 1050 
Q 275 1666 698 1953 
Q 1122 2241 2028 2241 
L 2688 2241 
L 2688 2328 
Q 2688 2594 2478 2717 
Q 2269 2841 1825 2841 
Q 1466 2841 1156 2769 
Q 847 2697 581 2553 
L 581 3406 
Q 941 3494 1303 3539 
Q 1666 3584 2028 3584 
Q 2975 3584 3395 3211 
Q 3816 2838 3816 1997 
z
" transform="scale(0.015625)"/>
      <path id="DejaVuSans-Bold-6c" d="M 538 4863 
L 1656 4863 
L 1656 0 
L 538 0 
L 538 4863 
z
" transform="scale(0.015625)"/>
      <path id="DejaVuSans-Bold-20" transform="scale(0.015625)"/>
      <path id="DejaVuSans-Bold-44" d="M 1791 3756 
L 1791 909 
L 2222 909 
Q 2959 909 3348 1275 
Q 3738 1641 3738 2338 
Q 3738 3031 3350 3393 
Q 2963 3756 2222 3756 
L 1791 3756 
z
M 588 4666 
L 1856 4666 
Q 2919 4666 3439 4514 
Q 3959 4363 4331 4000 
Q 4659 3684 4818 3271 
Q 4978 2859 4978 2338 
Q 4978 1809 4818 1395 
Q 4659 981 4331 666 
Q 3956 303 3431 151 
Q 2906 0 1856 0 
L 588 0 
L 588 4666 
z
" transform="scale(0.015625)"/>
      <path id="DejaVuSans-Bold-66" d="M 2841 4863 
L 2841 4128 
L 2222 4128 
Q 1984 4128 1890 4042 
Q 1797 3956 1797 3744 
L 1797 3500 
L 2753 3500 
L 2753 2700 
L 1797 2700 
L 1797 0 
L 678 0 
L 678 2700 
L 122 2700 
L 122 3500 
L 678 3500 
L 678 3744 
Q 678 4316 997 4589 
Q 1316 4863 1984 4863 
L 2841 4863 
z
" transform="scale(0.015625)"/>
      <path id="DejaVuSans-Bold-72" d="M 3138 2547 
Q 2991 2616 2845 2648 
Q 2700 2681 2553 2681 
Q 2122 2681 1889 2404 
Q 1656 2128 1656 1613 
L 1656 0 
L 538 0 
L 538 3500 
L 1656 3500 
L 1656 2925 
Q 1872 3269 2151 3426 
Q 2431 3584 2822 3584 
Q 2878 3584 2943 3579 
Q 3009 3575 3134 3559 
L 3138 2547 
z
" transform="scale(0.015625)"/>
      <path id="DejaVuSans-Bold-63" d="M 3366 3391 
L 3366 2478 
Q 3138 2634 2908 2709 
Q 2678 2784 2431 2784 
Q 1963 2784 1702 2511 
Q 1441 2238 1441 1747 
Q 1441 1256 1702 982 
Q 1963 709 2431 709 
Q 2694 709 2930 787 
Q 3166 866 3366 1019 
L 3366 103 
Q 3103 6 2833 -42 
Q 2563 -91 2291 -91 
Q 1344 -91 809 395 
Q 275 881 275 1747 
Q 275 2613 809 3098 
Q 1344 3584 2291 3584 
Q 2566 3584 2833 3536 
Q 3100 3488 3366 3391 
z
" transform="scale(0.015625)"/>
      <path id="DejaVuSans-Bold-73" d="M 3272 3391 
L 3272 2541 
Q 2913 2691 2578 2766 
Q 2244 2841 1947 2841 
Q 1628 2841 1473 2761 
Q 1319 2681 1319 2516 
Q 1319 2381 1436 2309 
Q 1553 2238 1856 2203 
L 2053 2175 
Q 2913 2066 3209 1816 
Q 3506 1566 3506 1031 
Q 3506 472 3093 190 
Q 2681 -91 1863 -91 
Q 1516 -91 1145 -36 
Q 775 19 384 128 
L 384 978 
Q 719 816 1070 734 
Q 1422 653 1784 653 
Q 2113 653 2278 743 
Q 2444 834 2444 1013 
Q 2444 1163 2330 1236 
Q 2216 1309 1875 1350 
L 1678 1375 
Q 931 1469 631 1722 
Q 331 1975 331 2491 
Q 331 3047 712 3315 
Q 1094 3584 1881 3584 
Q 2191 3584 2531 3537 
Q 2872 3491 3272 3391 
z
" transform="scale(0.015625)"/>
     </defs>
     <use xlink:href="#DejaVuSans-Bold-52"/>
     <use xlink:href="#DejaVuSans-Bold-65" transform="translate(77.001953 0)"/>
     <use xlink:href="#DejaVuSans-Bold-67" transform="translate(144.824219 0)"/>
     <use xlink:href="#DejaVuSans-Bold-69" transform="translate(216.40625 0)"/>
     <use xlink:href="#DejaVuSans-Bold-6f" transform="translate(250.683594 0)"/>
     <use xlink:href="#DejaVuSans-Bold-6e" transform="translate(319.384766 0)"/>
     <use xlink:href="#DejaVuSans-Bold-61" transform="translate(390.576172 0)"/>
     <use xlink:href="#DejaVuSans-Bold-6c" transform="translate(458.056641 0)"/>
     <use xlink:href="#DejaVuSans-Bold-20" transform="translate(492.333984 0)"/>
     <use xlink:href="#DejaVuSans-Bold-44" transform="translate(527.148438 0)"/>
     <use xlink:href="#DejaVuSans-Bold-69" transform="translate(610.15625 0)"/>
     <use xlink:href="#DejaVuSans-Bold-66" transform="translate(644.433594 0)"/>
     <use xlink:href="#DejaVuSans-Bold-66" transform="translate(687.939453 0)"/>
     <use xlink:href="#DejaVuSans-Bold-65" transform="translate(731.445312 0)"/>
     <use xlink:href="#DejaVuSans-Bold-72" transform="translate(799.267578 0)"/>
     <use xlink:href="#DejaVuSans-Bold-65" transform="translate(848.583984 0)"/>
     <use xlink:href="#DejaVuSans-Bold-6e" transform="translate(916.40625 0)"/>
     <use xlink:href="#DejaVuSans-Bold-63" transform="translate(987.597656 0)"/>
     <use xlink:href="#DejaVuSans-Bold-65" transform="translate(1046.875 0)"/>
     <use xlink:href="#DejaVuSans-Bold-73" transform="translate(1114.697266 0)"/>
    </g>
   </g>
   <g id="legend_1">
    <g id="patch_13">
     <path d="M 758.974135 38.916563 
L 778.974135 38.916563 
L 778.974135 31.916563 
L 758.974135 31.916563 
z
" style="fill: #4c78a8; opacity: 0.9"/>
    </g>
    <g id="text_11">
     <!-- monocrop -->
     <g style="fill: #1f2a44" transform="translate(786.974135 38.916563) scale(0.1 -0.1)">
      <defs>
       <path id="DejaVuSans-70" d="M 1159 525 
L 1159 -1331 
L 581 -1331 
L 581 3500 
L 1159 3500 
L 1159 2969 
Q 1341 3281 1617 3432 
Q 1894 3584 2278 3584 
Q 2916 3584 3314 3078 
Q 3713 2572 3713 1747 
Q 3713 922 3314 415 
Q 2916 -91 2278 -91 
Q 1894 -91 1617 61 
Q 1341 213 1159 525 
z
M 3116 1747 
Q 3116 2381 2855 2742 
Q 2594 3103 2138 3103 
Q 1681 3103 1420 2742 
Q 1159 2381 1159 1747 
Q 1159 1113 1420 752 
Q 1681 391 2138 391 
Q 2594 391 2855 752 
Q 3116 1113 3116 1747 
z
" transform="scale(0.015625)"/>
      </defs>
      <use xlink:href="#DejaVuSans-6d"/>
      <use xlink:href="#DejaVuSans-6f" transform="translate(97.412109 0)"/>
      <use xlink:href="#DejaVuSans-6e" transform="translate(158.59375 0)"/>
      <use xlink:href="#DejaVuSans-6f" transform="translate(221.972656 0)"/>
      <use xlink:href="#DejaVuSans-63" transform="translate(283.154297 0)"/>
      <use xlink:href="#DejaVuSans-72" transform="translate(338.134766 0)"/>
      <use xlink:href="#DejaVuSans-6f" transform="translate(376.998047 0)"/>
      <use xlink:href="#DejaVuSans-70" transform="translate(438.179688 0)"/>
     </g>
    </g>
    <g id="patch_14">
     <path d="M 758.974135 53.594688 
L 778.974135 53.594688 
L 778.974135 46.594688 
L 758.974135 46.594688 
z
" style="fill: #c44e52; opacity: 0.9"/>
    </g>
    <g id="text_12">
     <!-- associated -->
     <g style="fill: #1f2a44" transform="translate(786.974135 53.594688) scale(0.1 -0.1)">
      <use xlink:href="#DejaVuSans-61"/>
      <use xlink:href="#DejaVuSans-73" transform="translate(61.279297 0)"/>
      <use xlink:href="#DejaVuSans-73" transform="translate(113.378906 0)"/>
      <use xlink:href="#DejaVuSans-6f" transform="translate(165.478516 0)"/>
      <use xlink:href="#DejaVuSans-63" transform="translate(226.660156 0)"/>
      <use xlink:href="#DejaVuSans-69" transform="translate(281.640625 0)"/>
      <use xlink:href="#DejaVuSans-61" transform="translate(309.423828 0)"/>
      <use xlink:href="#DejaVuSans-74" transform="translate(370.703125 0)"/>
      <use xlink:href="#DejaVuSans-65" transform="translate(409.912109 0)"/>
      <use xlink:href="#DejaVuSans-64" transform="translate(471.435547 0)"/>
     </g>
    </g>
   </g>
  </g>
 </g>
 <defs>
  <clipPath id="p1a7530ba02">
   <rect x="138.750937" y="22.318125" width="710.715385" height="378.569231"/>
  </clipPath>
 </defs>
</svg>
